ISO-10303-21;
HEADER;
/* Generated by software containing ST-Developer
 * from STEP Tools, Inc. (www.steptools.com) 
 */
/* OPTION: strings as raw bytes, not using required /X/ escapes */

FILE_DESCRIPTION(
/* description */ ('Unknown'),
/* implementation_level */ '2;1');

FILE_NAME(
/* name */ 'ÂùóÂçï',
/* time_stamp */ '2025-06-19T16:30:08+08:00',
/* author */ ('Unknown'),
/* organization */ ('Unknown'),
/* preprocessor_version */ 'ST-DEVELOPER v16.7',
/* originating_system */ 'DEX',
/* authorisation */ $);

FILE_SCHEMA (('AUTOMOTIVE_DESIGN {1 0 10303 214 3 1 1}'));
ENDSEC;

DATA;
#10=PROPERTY_DEFINITION_REPRESENTATION(#14,#12);
#11=PROPERTY_DEFINITION_REPRESENTATION(#15,#13);
#12=REPRESENTATION('',(#16),#1338);
#13=REPRESENTATION('',(#17),#1338);
#14=PROPERTY_DEFINITION('pmi validation property','',#1343);
#15=PROPERTY_DEFINITION('pmi validation property','',#1343);
#16=VALUE_REPRESENTATION_ITEM('number of annotations',COUNT_MEASURE(0.));
#17=VALUE_REPRESENTATION_ITEM('number of views',COUNT_MEASURE(0.));
#18=SHAPE_REPRESENTATION_RELATIONSHIP('','',#606,#19);
#19=ADVANCED_BREP_SHAPE_REPRESENTATION('',(#604),#1338);
#20=B_SPLINE_SURFACE_WITH_KNOTS('',3,3,((#1221,#1222,#1223,#1224,#1225,
#1226,#1227,#1228,#1229,#1230,#1231),(#1232,#1233,#1234,#1235,#1236,#1237,
#1238,#1239,#1240,#1241,#1242),(#1243,#1244,#1245,#1246,#1247,#1248,#1249,
#1250,#1251,#1252,#1253),(#1254,#1255,#1256,#1257,#1258,#1259,#1260,#1261,
#1262,#1263,#1264)),.UNSPECIFIED.,.F.,.T.,.F.,(4,4),(1,1,1,1,1,1,1,1,1,
1,1,1,1,1,1),(0.,1.),(0.624985471782856,0.749985471782856,0.874985471782856,
0.999985471782856,1.12498547178286,1.24998547178286,1.37498547178286,1.49998547178286,
1.62498547178286,1.74998547178286,1.87498547178286,1.99998547178286,2.12498547178286,
2.24998547178286,2.37498547178286),.UNSPECIFIED.);
#21=B_SPLINE_SURFACE_WITH_KNOTS('',1,3,((#1265,#1266,#1267,#1268,#1269,
#1270,#1271,#1272,#1273,#1274,#1275,#1276,#1277,#1278,#1279,#1280,#1281,
#1282),(#1283,#1284,#1285,#1286,#1287,#1288,#1289,#1290,#1291,#1292,#1293,
#1294,#1295,#1296,#1297,#1298,#1299,#1300),(#1301,#1302,#1303,#1304,#1305,
#1306,#1307,#1308,#1309,#1310,#1311,#1312,#1313,#1314,#1315,#1316,#1317,
#1318),(#1319,#1320,#1321,#1322,#1323,#1324,#1325,#1326,#1327,#1328,#1329,
#1330,#1331,#1332,#1333,#1334,#1335,#1336)),.RULED_SURF.,.F.,.T.,.F.,(2,
1,1,2),(2,2,2,2,2,2,2,2,2,2,2),(-0.01,0.,1.,1.808),(0.874980837246976,0.999980837246976,
1.12498083724698,1.24998083724698,1.37498083724698,1.49998083724698,1.62498083724698,
1.74998083724698,1.87498083724698,1.99998083724698,2.12498083724698),
 .UNSPECIFIED.);
#22=SPHERICAL_SURFACE('',#637,3.3);
#23=PLANE('',#635);
#24=PLANE('',#653);
#25=PLANE('',#654);
#26=CONICAL_SURFACE('',#627,2.4,1.0471975511966);
#27=CIRCLE('',#610,0.4);
#28=CIRCLE('',#612,0.922912372737023);
#29=CIRCLE('',#614,0.4);
#30=CIRCLE('',#616,0.922912372737023);
#31=CIRCLE('',#618,0.4);
#32=CIRCLE('',#620,0.922912372737023);
#33=CIRCLE('',#622,0.4);
#34=CIRCLE('',#624,0.922912372737023);
#35=CIRCLE('',#626,0.4);
#36=CIRCLE('',#628,2.4);
#37=CIRCLE('',#630,0.922912372737023);
#38=CIRCLE('',#632,0.922912372737023);
#39=CIRCLE('',#634,0.4);
#40=CIRCLE('',#636,2.9843600618096);
#41=CIRCLE('',#638,3.17250792944681);
#42=CIRCLE('',#652,3.25);
#43=LINE('',#802,#67);
#44=LINE('',#811,#68);
#45=LINE('',#821,#69);
#46=LINE('',#831,#70);
#47=LINE('',#841,#71);
#48=LINE('',#851,#72);
#49=LINE('',#861,#73);
#50=LINE('',#871,#74);
#51=LINE('',#881,#75);
#52=LINE('',#891,#76);
#53=LINE('',#915,#77);
#54=LINE('',#919,#78);
#55=LINE('',#983,#79);
#56=LINE('',#1003,#80);
#57=LINE('',#1052,#81);
#58=LINE('',#1062,#82);
#59=LINE('',#1063,#83);
#60=LINE('',#1064,#84);
#61=LINE('',#1095,#85);
#62=LINE('',#1097,#86);
#63=LINE('',#1103,#87);
#64=LINE('',#1105,#88);
#65=LINE('',#1106,#89);
#66=LINE('',#1149,#90);
#67=VECTOR('',#661,1000.);
#68=VECTOR('',#662,1000.);
#69=VECTOR('',#667,1000.);
#70=VECTOR('',#672,1000.);
#71=VECTOR('',#677,1000.);
#72=VECTOR('',#682,1000.);
#73=VECTOR('',#687,1000.);
#74=VECTOR('',#692,1000.);
#75=VECTOR('',#697,1000.);
#76=VECTOR('',#702,1000.);
#77=VECTOR('',#711,1000.);
#78=VECTOR('',#716,1000.);
#79=VECTOR('',#735,1000.);
#80=VECTOR('',#736,1000.);
#81=VECTOR('',#741,1000.);
#82=VECTOR('',#742,1000.);
#83=VECTOR('',#743,1000.);
#84=VECTOR('',#744,1000.);
#85=VECTOR('',#749,1000.);
#86=VECTOR('',#752,1000.);
#87=VECTOR('',#753,1000.);
#88=VECTOR('',#756,1000.);
#89=VECTOR('',#757,1000.);
#90=VECTOR('',#762,1000.);
#91=ORIENTED_EDGE('',*,*,#259,.T.);
#92=ORIENTED_EDGE('',*,*,#260,.T.);
#93=ORIENTED_EDGE('',*,*,#261,.T.);
#94=ORIENTED_EDGE('',*,*,#262,.F.);
#95=ORIENTED_EDGE('',*,*,#263,.F.);
#96=ORIENTED_EDGE('',*,*,#264,.F.);
#97=ORIENTED_EDGE('',*,*,#263,.T.);
#98=ORIENTED_EDGE('',*,*,#265,.F.);
#99=ORIENTED_EDGE('',*,*,#266,.F.);
#100=ORIENTED_EDGE('',*,*,#267,.F.);
#101=ORIENTED_EDGE('',*,*,#266,.T.);
#102=ORIENTED_EDGE('',*,*,#268,.F.);
#103=ORIENTED_EDGE('',*,*,#269,.F.);
#104=ORIENTED_EDGE('',*,*,#270,.F.);
#105=ORIENTED_EDGE('',*,*,#269,.T.);
#106=ORIENTED_EDGE('',*,*,#271,.F.);
#107=ORIENTED_EDGE('',*,*,#272,.F.);
#108=ORIENTED_EDGE('',*,*,#273,.F.);
#109=ORIENTED_EDGE('',*,*,#272,.T.);
#110=ORIENTED_EDGE('',*,*,#274,.F.);
#111=ORIENTED_EDGE('',*,*,#275,.F.);
#112=ORIENTED_EDGE('',*,*,#276,.F.);
#113=ORIENTED_EDGE('',*,*,#275,.T.);
#114=ORIENTED_EDGE('',*,*,#277,.F.);
#115=ORIENTED_EDGE('',*,*,#278,.F.);
#116=ORIENTED_EDGE('',*,*,#279,.F.);
#117=ORIENTED_EDGE('',*,*,#278,.T.);
#118=ORIENTED_EDGE('',*,*,#280,.F.);
#119=ORIENTED_EDGE('',*,*,#281,.F.);
#120=ORIENTED_EDGE('',*,*,#282,.F.);
#121=ORIENTED_EDGE('',*,*,#281,.T.);
#122=ORIENTED_EDGE('',*,*,#283,.F.);
#123=ORIENTED_EDGE('',*,*,#284,.F.);
#124=ORIENTED_EDGE('',*,*,#285,.F.);
#125=ORIENTED_EDGE('',*,*,#284,.T.);
#126=ORIENTED_EDGE('',*,*,#286,.F.);
#127=ORIENTED_EDGE('',*,*,#287,.F.);
#128=ORIENTED_EDGE('',*,*,#288,.F.);
#129=ORIENTED_EDGE('',*,*,#289,.T.);
#130=ORIENTED_EDGE('',*,*,#290,.T.);
#131=ORIENTED_EDGE('',*,*,#291,.T.);
#132=ORIENTED_EDGE('',*,*,#286,.T.);
#133=ORIENTED_EDGE('',*,*,#283,.T.);
#134=ORIENTED_EDGE('',*,*,#280,.T.);
#135=ORIENTED_EDGE('',*,*,#277,.T.);
#136=ORIENTED_EDGE('',*,*,#274,.T.);
#137=ORIENTED_EDGE('',*,*,#271,.T.);
#138=ORIENTED_EDGE('',*,*,#268,.T.);
#139=ORIENTED_EDGE('',*,*,#265,.T.);
#140=ORIENTED_EDGE('',*,*,#262,.T.);
#141=ORIENTED_EDGE('',*,*,#292,.F.);
#142=ORIENTED_EDGE('',*,*,#293,.T.);
#143=ORIENTED_EDGE('',*,*,#289,.F.);
#144=ORIENTED_EDGE('',*,*,#261,.F.);
#145=ORIENTED_EDGE('',*,*,#294,.F.);
#146=ORIENTED_EDGE('',*,*,#287,.T.);
#147=ORIENTED_EDGE('',*,*,#291,.F.);
#148=ORIENTED_EDGE('',*,*,#295,.F.);
#149=ORIENTED_EDGE('',*,*,#296,.F.);
#150=ORIENTED_EDGE('',*,*,#295,.T.);
#151=ORIENTED_EDGE('',*,*,#290,.F.);
#152=ORIENTED_EDGE('',*,*,#293,.F.);
#153=ORIENTED_EDGE('',*,*,#297,.F.);
#154=ORIENTED_EDGE('',*,*,#292,.T.);
#155=ORIENTED_EDGE('',*,*,#298,.F.);
#156=ORIENTED_EDGE('',*,*,#298,.T.);
#157=ORIENTED_EDGE('',*,*,#299,.T.);
#158=ORIENTED_EDGE('',*,*,#300,.T.);
#159=ORIENTED_EDGE('',*,*,#301,.T.);
#160=ORIENTED_EDGE('',*,*,#302,.T.);
#161=ORIENTED_EDGE('',*,*,#303,.T.);
#162=ORIENTED_EDGE('',*,*,#304,.T.);
#163=ORIENTED_EDGE('',*,*,#305,.T.);
#164=ORIENTED_EDGE('',*,*,#306,.T.);
#165=ORIENTED_EDGE('',*,*,#307,.T.);
#166=ORIENTED_EDGE('',*,*,#308,.T.);
#167=ORIENTED_EDGE('',*,*,#309,.T.);
#168=ORIENTED_EDGE('',*,*,#310,.F.);
#169=ORIENTED_EDGE('',*,*,#311,.T.);
#170=ORIENTED_EDGE('',*,*,#259,.F.);
#171=ORIENTED_EDGE('',*,*,#312,.T.);
#172=ORIENTED_EDGE('',*,*,#313,.T.);
#173=ORIENTED_EDGE('',*,*,#314,.T.);
#174=ORIENTED_EDGE('',*,*,#315,.T.);
#175=ORIENTED_EDGE('',*,*,#316,.F.);
#176=ORIENTED_EDGE('',*,*,#317,.F.);
#177=ORIENTED_EDGE('',*,*,#318,.T.);
#178=ORIENTED_EDGE('',*,*,#314,.F.);
#179=ORIENTED_EDGE('',*,*,#319,.T.);
#180=ORIENTED_EDGE('',*,*,#308,.F.);
#181=ORIENTED_EDGE('',*,*,#320,.F.);
#182=ORIENTED_EDGE('',*,*,#302,.F.);
#183=ORIENTED_EDGE('',*,*,#320,.T.);
#184=ORIENTED_EDGE('',*,*,#307,.F.);
#185=ORIENTED_EDGE('',*,*,#321,.F.);
#186=ORIENTED_EDGE('',*,*,#322,.F.);
#187=ORIENTED_EDGE('',*,*,#316,.T.);
#188=ORIENTED_EDGE('',*,*,#303,.F.);
#189=ORIENTED_EDGE('',*,*,#323,.T.);
#190=ORIENTED_EDGE('',*,*,#324,.T.);
#191=ORIENTED_EDGE('',*,*,#321,.T.);
#192=ORIENTED_EDGE('',*,*,#306,.F.);
#193=ORIENTED_EDGE('',*,*,#325,.F.);
#194=ORIENTED_EDGE('',*,*,#326,.F.);
#195=ORIENTED_EDGE('',*,*,#323,.F.);
#196=ORIENTED_EDGE('',*,*,#305,.F.);
#197=ORIENTED_EDGE('',*,*,#327,.F.);
#198=ORIENTED_EDGE('',*,*,#301,.F.);
#199=ORIENTED_EDGE('',*,*,#327,.T.);
#200=ORIENTED_EDGE('',*,*,#304,.F.);
#201=ORIENTED_EDGE('',*,*,#328,.F.);
#202=ORIENTED_EDGE('',*,*,#312,.F.);
#203=ORIENTED_EDGE('',*,*,#329,.F.);
#204=ORIENTED_EDGE('',*,*,#330,.F.);
#205=ORIENTED_EDGE('',*,*,#325,.T.);
#206=ORIENTED_EDGE('',*,*,#300,.F.);
#207=ORIENTED_EDGE('',*,*,#328,.T.);
#208=ORIENTED_EDGE('',*,*,#311,.F.);
#209=ORIENTED_EDGE('',*,*,#331,.F.);
#210=ORIENTED_EDGE('',*,*,#332,.F.);
#211=ORIENTED_EDGE('',*,*,#333,.F.);
#212=ORIENTED_EDGE('',*,*,#329,.T.);
#213=ORIENTED_EDGE('',*,*,#313,.F.);
#214=ORIENTED_EDGE('',*,*,#332,.T.);
#215=ORIENTED_EDGE('',*,*,#331,.T.);
#216=ORIENTED_EDGE('',*,*,#310,.T.);
#217=ORIENTED_EDGE('',*,*,#334,.T.);
#218=ORIENTED_EDGE('',*,*,#335,.T.);
#219=ORIENTED_EDGE('',*,*,#336,.F.);
#220=ORIENTED_EDGE('',*,*,#318,.F.);
#221=ORIENTED_EDGE('',*,*,#337,.F.);
#222=ORIENTED_EDGE('',*,*,#335,.F.);
#223=ORIENTED_EDGE('',*,*,#334,.F.);
#224=ORIENTED_EDGE('',*,*,#309,.F.);
#225=ORIENTED_EDGE('',*,*,#319,.F.);
#226=ORIENTED_EDGE('',*,*,#315,.F.);
#227=ORIENTED_EDGE('',*,*,#338,.F.);
#228=ORIENTED_EDGE('',*,*,#339,.F.);
#229=ORIENTED_EDGE('',*,*,#337,.T.);
#230=ORIENTED_EDGE('',*,*,#317,.T.);
#231=ORIENTED_EDGE('',*,*,#322,.T.);
#232=ORIENTED_EDGE('',*,*,#324,.F.);
#233=ORIENTED_EDGE('',*,*,#326,.T.);
#234=ORIENTED_EDGE('',*,*,#330,.T.);
#235=ORIENTED_EDGE('',*,*,#333,.T.);
#236=ORIENTED_EDGE('',*,*,#336,.T.);
#237=ORIENTED_EDGE('',*,*,#340,.F.);
#238=ORIENTED_EDGE('',*,*,#341,.F.);
#239=ORIENTED_EDGE('',*,*,#299,.F.);
#240=ORIENTED_EDGE('',*,*,#340,.T.);
#241=ORIENTED_EDGE('',*,*,#342,.F.);
#242=ORIENTED_EDGE('',*,*,#294,.T.);
#243=ORIENTED_EDGE('',*,*,#264,.T.);
#244=ORIENTED_EDGE('',*,*,#267,.T.);
#245=ORIENTED_EDGE('',*,*,#270,.T.);
#246=ORIENTED_EDGE('',*,*,#273,.T.);
#247=ORIENTED_EDGE('',*,*,#276,.T.);
#248=ORIENTED_EDGE('',*,*,#279,.T.);
#249=ORIENTED_EDGE('',*,*,#282,.T.);
#250=ORIENTED_EDGE('',*,*,#285,.T.);
#251=ORIENTED_EDGE('',*,*,#288,.T.);
#252=ORIENTED_EDGE('',*,*,#296,.T.);
#253=ORIENTED_EDGE('',*,*,#297,.T.);
#254=ORIENTED_EDGE('',*,*,#342,.T.);
#255=ORIENTED_EDGE('',*,*,#341,.T.);
#256=ORIENTED_EDGE('',*,*,#339,.T.);
#257=ORIENTED_EDGE('',*,*,#260,.F.);
#258=ORIENTED_EDGE('',*,*,#338,.T.);
#259=EDGE_CURVE('',#343,#343,#402,.T.);
#260=EDGE_CURVE('',#344,#344,#403,.T.);
#261=EDGE_CURVE('',#345,#346,#43,.T.);
#262=EDGE_CURVE('',#347,#346,#404,.T.);
#263=EDGE_CURVE('',#348,#347,#44,.T.);
#264=EDGE_CURVE('',#345,#348,#27,.T.);
#265=EDGE_CURVE('',#349,#347,#405,.T.);
#266=EDGE_CURVE('',#350,#349,#45,.T.);
#267=EDGE_CURVE('',#348,#350,#28,.F.);
#268=EDGE_CURVE('',#351,#349,#406,.T.);
#269=EDGE_CURVE('',#352,#351,#46,.T.);
#270=EDGE_CURVE('',#350,#352,#29,.T.);
#271=EDGE_CURVE('',#353,#351,#407,.T.);
#272=EDGE_CURVE('',#354,#353,#47,.T.);
#273=EDGE_CURVE('',#352,#354,#30,.F.);
#274=EDGE_CURVE('',#355,#353,#408,.T.);
#275=EDGE_CURVE('',#356,#355,#48,.T.);
#276=EDGE_CURVE('',#354,#356,#31,.T.);
#277=EDGE_CURVE('',#357,#355,#409,.T.);
#278=EDGE_CURVE('',#358,#357,#49,.T.);
#279=EDGE_CURVE('',#356,#358,#32,.F.);
#280=EDGE_CURVE('',#359,#357,#410,.T.);
#281=EDGE_CURVE('',#360,#359,#50,.T.);
#282=EDGE_CURVE('',#358,#360,#33,.T.);
#283=EDGE_CURVE('',#361,#359,#411,.T.);
#284=EDGE_CURVE('',#362,#361,#51,.T.);
#285=EDGE_CURVE('',#360,#362,#34,.F.);
#286=EDGE_CURVE('',#363,#361,#412,.T.);
#287=EDGE_CURVE('',#364,#363,#52,.T.);
#288=EDGE_CURVE('',#362,#364,#35,.T.);
#289=EDGE_CURVE('',#346,#365,#413,.T.);
#290=EDGE_CURVE('',#365,#366,#414,.T.);
#291=EDGE_CURVE('',#366,#363,#415,.T.);
#292=EDGE_CURVE('',#367,#367,#36,.F.);
#293=EDGE_CURVE('',#368,#365,#53,.T.);
#294=EDGE_CURVE('',#368,#345,#37,.F.);
#295=EDGE_CURVE('',#369,#366,#54,.T.);
#296=EDGE_CURVE('',#364,#369,#38,.F.);
#297=EDGE_CURVE('',#369,#368,#39,.T.);
#298=EDGE_CURVE('',#370,#370,#40,.T.);
#299=EDGE_CURVE('',#371,#371,#41,.T.);
#300=EDGE_CURVE('',#372,#373,#416,.T.);
#301=EDGE_CURVE('',#373,#372,#417,.T.);
#302=EDGE_CURVE('',#374,#375,#418,.T.);
#303=EDGE_CURVE('',#375,#374,#419,.T.);
#304=EDGE_CURVE('',#376,#377,#420,.T.);
#305=EDGE_CURVE('',#377,#378,#421,.T.);
#306=EDGE_CURVE('',#378,#379,#55,.T.);
#307=EDGE_CURVE('',#379,#380,#422,.T.);
#308=EDGE_CURVE('',#380,#381,#423,.T.);
#309=EDGE_CURVE('',#381,#382,#424,.T.);
#310=EDGE_CURVE('',#383,#382,#56,.T.);
#311=EDGE_CURVE('',#383,#376,#425,.T.);
#312=EDGE_CURVE('',#384,#385,#426,.T.);
#313=EDGE_CURVE('',#385,#384,#427,.T.);
#314=EDGE_CURVE('',#386,#387,#428,.T.);
#315=EDGE_CURVE('',#387,#386,#429,.T.);
#316=EDGE_CURVE('',#388,#374,#57,.T.);
#317=EDGE_CURVE('',#389,#388,#430,.T.);
#318=EDGE_CURVE('',#389,#387,#58,.T.);
#319=EDGE_CURVE('',#386,#381,#59,.T.);
#320=EDGE_CURVE('',#375,#380,#60,.T.);
#321=EDGE_CURVE('',#390,#379,#431,.T.);
#322=EDGE_CURVE('',#388,#390,#432,.T.);
#323=EDGE_CURVE('',#378,#391,#433,.T.);
#324=EDGE_CURVE('',#391,#390,#61,.T.);
#325=EDGE_CURVE('',#392,#373,#62,.T.);
#326=EDGE_CURVE('',#391,#392,#434,.T.);
#327=EDGE_CURVE('',#372,#377,#63,.T.);
#328=EDGE_CURVE('',#385,#376,#64,.T.);
#329=EDGE_CURVE('',#393,#384,#65,.T.);
#330=EDGE_CURVE('',#392,#393,#435,.T.);
#331=EDGE_CURVE('',#394,#383,#436,.T.);
#332=EDGE_CURVE('',#395,#394,#437,.T.);
#333=EDGE_CURVE('',#393,#395,#438,.T.);
#334=EDGE_CURVE('',#382,#396,#439,.T.);
#335=EDGE_CURVE('',#396,#397,#440,.T.);
#336=EDGE_CURVE('',#395,#397,#66,.T.);
#337=EDGE_CURVE('',#397,#389,#441,.T.);
#338=EDGE_CURVE('',#398,#398,#442,.T.);
#339=EDGE_CURVE('',#399,#399,#443,.T.);
#340=EDGE_CURVE('',#400,#401,#42,.T.);
#341=EDGE_CURVE('',#401,#400,#444,.T.);
#342=EDGE_CURVE('',#400,#401,#445,.T.);
#343=VERTEX_POINT('',#788);
#344=VERTEX_POINT('',#800);
#345=VERTEX_POINT('',#803);
#346=VERTEX_POINT('',#804);
#347=VERTEX_POINT('',#810);
#348=VERTEX_POINT('',#812);
#349=VERTEX_POINT('',#820);
#350=VERTEX_POINT('',#822);
#351=VERTEX_POINT('',#830);
#352=VERTEX_POINT('',#832);
#353=VERTEX_POINT('',#840);
#354=VERTEX_POINT('',#842);
#355=VERTEX_POINT('',#850);
#356=VERTEX_POINT('',#852);
#357=VERTEX_POINT('',#860);
#358=VERTEX_POINT('',#862);
#359=VERTEX_POINT('',#870);
#360=VERTEX_POINT('',#872);
#361=VERTEX_POINT('',#880);
#362=VERTEX_POINT('',#882);
#363=VERTEX_POINT('',#890);
#364=VERTEX_POINT('',#892);
#365=VERTEX_POINT('',#900);
#366=VERTEX_POINT('',#906);
#367=VERTEX_POINT('',#913);
#368=VERTEX_POINT('',#916);
#369=VERTEX_POINT('',#920);
#370=VERTEX_POINT('',#926);
#371=VERTEX_POINT('',#929);
#372=VERTEX_POINT('',#935);
#373=VERTEX_POINT('',#936);
#374=VERTEX_POINT('',#955);
#375=VERTEX_POINT('',#956);
#376=VERTEX_POINT('',#976);
#377=VERTEX_POINT('',#977);
#378=VERTEX_POINT('',#982);
#379=VERTEX_POINT('',#984);
#380=VERTEX_POINT('',#989);
#381=VERTEX_POINT('',#997);
#382=VERTEX_POINT('',#1002);
#383=VERTEX_POINT('',#1004);
#384=VERTEX_POINT('',#1014);
#385=VERTEX_POINT('',#1015);
#386=VERTEX_POINT('',#1036);
#387=VERTEX_POINT('',#1037);
#388=VERTEX_POINT('',#1053);
#389=VERTEX_POINT('',#1061);
#390=VERTEX_POINT('',#1077);
#391=VERTEX_POINT('',#1094);
#392=VERTEX_POINT('',#1098);
#393=VERTEX_POINT('',#1107);
#394=VERTEX_POINT('',#1121);
#395=VERTEX_POINT('',#1126);
#396=VERTEX_POINT('',#1143);
#397=VERTEX_POINT('',#1148);
#398=VERTEX_POINT('',#1167);
#399=VERTEX_POINT('',#1187);
#400=VERTEX_POINT('',#1190);
#401=VERTEX_POINT('',#1191);
#402=B_SPLINE_CURVE_WITH_KNOTS('',3,(#777,#778,#779,#780,#781,#782,#783,
#784,#785,#786,#787),.UNSPECIFIED.,.T.,.F.,(1,1,1,1,1,1,1,1,1,1,1,1,1,1,
1),(-0.00589034537130811,-0.00392689691420539,-0.00196344845710266,5.5517927081296E-17,
0.00196344845710278,0.0039268969142055,0.00589034537130822,0.00785379382841094,
0.00981724228551366,0.0117806907426164,0.0137441391997191,0.0157075876568218,
0.0176710361139245,0.0196344845710273,0.02159793302813),.UNSPECIFIED.);
#403=B_SPLINE_CURVE_WITH_KNOTS('',3,(#789,#790,#791,#792,#793,#794,#795,
#796,#797,#798,#799),.UNSPECIFIED.,.T.,.F.,(1,1,1,1,1,1,1,1,1,1,1,1,1,1,
1),(-0.00585654780872182,-0.00390436520581453,-0.00195218260290724,5.55217381335491E-17,
0.00195218260290735,0.00390436520581464,0.00585654780872193,0.00780873041162923,
0.00976091301453652,0.0117130956174438,0.0136652782203511,0.0156174608232584,
0.0175696434261657,0.019521826029073,0.0214740086319803),.UNSPECIFIED.);
#404=B_SPLINE_CURVE_WITH_KNOTS('',3,(#805,#806,#807,#808,#809),
 .UNSPECIFIED.,.F.,.F.,(4,1,4),(2.30576672911779E-7,0.000541951872218019,
0.00108367316776313),.UNSPECIFIED.);
#405=B_SPLINE_CURVE_WITH_KNOTS('',3,(#815,#816,#817,#818,#819),
 .UNSPECIFIED.,.F.,.F.,(4,1,4),(2.29600534789073E-7,0.000749543530806214,
0.00149885746107764),.UNSPECIFIED.);
#406=B_SPLINE_CURVE_WITH_KNOTS('',3,(#825,#826,#827,#828,#829),
 .UNSPECIFIED.,.F.,.F.,(4,1,4),(3.10724964366877E-7,0.000542032425809218,
0.00108375412665407),.UNSPECIFIED.);
#407=B_SPLINE_CURVE_WITH_KNOTS('',3,(#835,#836,#837,#838,#839),
 .UNSPECIFIED.,.F.,.F.,(4,1,4),(3.18047982417577E-7,0.000749631839480482,
0.00149894563097855),.UNSPECIFIED.);
#408=B_SPLINE_CURVE_WITH_KNOTS('',3,(#845,#846,#847,#848,#849),
 .UNSPECIFIED.,.F.,.F.,(4,1,4),(2.29240889134586E-7,0.00054195128628137,
0.00108367333167361),.UNSPECIFIED.);
#409=B_SPLINE_CURVE_WITH_KNOTS('',3,(#855,#856,#857,#858,#859),
 .UNSPECIFIED.,.F.,.F.,(4,1,4),(2.30956524664001E-7,0.000749544881302842,
0.00149885880608102),.UNSPECIFIED.);
#410=B_SPLINE_CURVE_WITH_KNOTS('',3,(#865,#866,#867,#868,#869),
 .UNSPECIFIED.,.F.,.F.,(4,1,4),(2.30576672432198E-7,0.00054195187221828,
0.00108367316776413),.UNSPECIFIED.);
#411=B_SPLINE_CURVE_WITH_KNOTS('',3,(#875,#876,#877,#878,#879),
 .UNSPECIFIED.,.F.,.F.,(4,1,4),(2.29600534785057E-7,0.000749543530806019,
0.00149885746107725),.UNSPECIFIED.);
#412=B_SPLINE_CURVE_WITH_KNOTS('',3,(#885,#886,#887,#888,#889),
 .UNSPECIFIED.,.F.,.F.,(4,1,4),(3.1072496466935E-7,0.000542032425810002,
0.00108375412665534),.UNSPECIFIED.);
#413=B_SPLINE_CURVE_WITH_KNOTS('',3,(#895,#896,#897,#898,#899),
 .UNSPECIFIED.,.F.,.F.,(4,1,4),(2.30956524535893E-7,0.000749544881302821,
0.00149885880608111),.UNSPECIFIED.);
#414=B_SPLINE_CURVE_WITH_KNOTS('',3,(#901,#902,#903,#904,#905),
 .UNSPECIFIED.,.F.,.F.,(4,1,4),(2.29240889328424E-7,0.000541951286281193,
0.00108367333167306),.UNSPECIFIED.);
#415=B_SPLINE_CURVE_WITH_KNOTS('',3,(#907,#908,#909,#910,#911),
 .UNSPECIFIED.,.F.,.F.,(4,1,4),(3.18047982607406E-7,0.000749631839480698,
0.00149894563097879),.UNSPECIFIED.);
#416=B_SPLINE_CURVE_WITH_KNOTS('',3,(#931,#932,#933,#934),.UNSPECIFIED.,
 .F.,.F.,(4,4),(0.,0.000863320915105935),.UNSPECIFIED.);
#417=B_SPLINE_CURVE_WITH_KNOTS('',3,(#937,#938,#939,#940,#941,#942,#943,
#944,#945,#946,#947),.UNSPECIFIED.,.F.,.F.,(4,1,1,1,1,1,1,1,4),(-0.0115739404885434,
-0.00966721549034942,-0.00776049049215542,-0.00585376549396142,-0.00394704049576742,
-0.00204031549757343,-0.000133590499379427,0.00177313449881457,0.00367985949700857),
 .UNSPECIFIED.);
#418=B_SPLINE_CURVE_WITH_KNOTS('',3,(#948,#949,#950,#951,#952,#953,#954),
 .UNSPECIFIED.,.F.,.F.,(4,1,1,1,4),(0.,0.00137036781790261,0.00274073563580521,
0.00411110345370782,0.00548147127161043),.UNSPECIFIED.);
#419=B_SPLINE_CURVE_WITH_KNOTS('',3,(#957,#958,#959,#960,#961,#962,#963,
#964,#965,#966,#967,#968,#969),.UNSPECIFIED.,.F.,.F.,(4,1,1,1,1,1,1,1,1,
1,4),(-0.0121813481522459,-0.0102803919005024,-0.00837943564875884,-0.00647847939701529,
-0.00552800127114352,-0.00457752314527175,-0.00362704501939998,-0.00267656689352821,
-0.000775610641784666,0.00112534560995888,0.00302630186170242),
 .UNSPECIFIED.);
#420=B_SPLINE_CURVE_WITH_KNOTS('',3,(#971,#972,#973,#974,#975),
 .UNSPECIFIED.,.F.,.F.,(4,1,4),(0.,0.00296551262649447,0.00593102525298895),
 .UNSPECIFIED.);
#421=B_SPLINE_CURVE_WITH_KNOTS('',3,(#978,#979,#980,#981),.UNSPECIFIED.,
 .F.,.F.,(4,4),(2.15846447643559E-13,0.00134225783972733),.UNSPECIFIED.);
#422=B_SPLINE_CURVE_WITH_KNOTS('',3,(#985,#986,#987,#988),.UNSPECIFIED.,
 .F.,.F.,(4,4),(0.,0.674007653398),.UNSPECIFIED.);
#423=B_SPLINE_CURVE_WITH_KNOTS('',3,(#990,#991,#992,#993,#994,#995,#996),
 .UNSPECIFIED.,.F.,.F.,(4,1,1,1,4),(0.,0.00243104013577004,0.00486208027154007,
0.00729312040731011,0.00972416054308015),.UNSPECIFIED.);
#424=B_SPLINE_CURVE_WITH_KNOTS('',3,(#998,#999,#1000,#1001),
 .UNSPECIFIED.,.F.,.F.,(4,4),(0.,1.14327436252),.UNSPECIFIED.);
#425=B_SPLINE_CURVE_WITH_KNOTS('',3,(#1005,#1006,#1007,#1008),
 .UNSPECIFIED.,.F.,.F.,(4,4),(0.,0.00151609091880411),.UNSPECIFIED.);
#426=B_SPLINE_CURVE_WITH_KNOTS('',3,(#1010,#1011,#1012,#1013),
 .UNSPECIFIED.,.F.,.F.,(4,4),(0.,0.00063283761440873),.UNSPECIFIED.);
#427=B_SPLINE_CURVE_WITH_KNOTS('',3,(#1016,#1017,#1018,#1019,#1020,#1021,
#1022,#1023,#1024,#1025,#1026),.UNSPECIFIED.,.F.,.F.,(4,1,1,1,1,1,1,1,4),
(-0.00937671290806676,-0.00782927924389127,-0.00628184557971579,-0.0047344119155403,
-0.00318697825136481,-0.00163954458718932,-9.21109230138338E-5,0.00145532274116165,
0.00300275640533714),.UNSPECIFIED.);
#428=B_SPLINE_CURVE_WITH_KNOTS('',3,(#1027,#1028,#1029,#1030,#1031,#1032,
#1033,#1034,#1035),.UNSPECIFIED.,.F.,.F.,(4,1,1,1,1,1,4),(0.,0.00140778054384709,
0.00211167081577063,0.00281556108769418,0.00351945135961772,0.00422334163154126,
0.00563112217538835),.UNSPECIFIED.);
#429=B_SPLINE_CURVE_WITH_KNOTS('',3,(#1038,#1039,#1040,#1041,#1042,#1043,
#1044,#1045,#1046,#1047,#1048,#1049,#1050),.UNSPECIFIED.,.F.,.F.,(4,1,1,
1,1,1,1,1,1,1,4),(-0.0104330926457439,-0.00884146124708675,-0.00724982984842963,
-0.0056581984497725,-0.00486238275044394,-0.00406656705111538,-0.00327075135178681,
-0.00247493565245825,-0.000883304253801124,0.000708327144856001,0.00229995854351313),
 .UNSPECIFIED.);
#430=B_SPLINE_CURVE_WITH_KNOTS('',3,(#1054,#1055,#1056,#1057,#1058,#1059,
#1060),.UNSPECIFIED.,.F.,.F.,(4,1,1,1,4),(-0.00295394222505672,-0.000540885656181804,
0.00187217091269311,0.00428522748156803,0.00669828405044294),
 .UNSPECIFIED.);
#431=B_SPLINE_CURVE_WITH_KNOTS('',3,(#1066,#1067,#1068,#1069,#1070,#1071,
#1072,#1073,#1074,#1075,#1076),.UNSPECIFIED.,.F.,.F.,(4,1,1,1,1,1,1,1,4),
(0.,0.00194867528209611,0.00389735056419222,0.00584602584628833,0.00779470112838444,
0.00974337641048055,0.0116920516925767,0.0136407269746728,0.0155894022567689),
 .UNSPECIFIED.);
#432=B_SPLINE_CURVE_WITH_KNOTS('',3,(#1078,#1079,#1080,#1081),
 .UNSPECIFIED.,.F.,.F.,(4,4),(0.,0.001551890019442),.UNSPECIFIED.);
#433=B_SPLINE_CURVE_WITH_KNOTS('',3,(#1083,#1084,#1085,#1086,#1087,#1088,
#1089,#1090,#1091,#1092,#1093),.UNSPECIFIED.,.F.,.F.,(4,1,1,1,1,1,1,1,4),
(1.16061643267633E-13,0.00158185008951082,0.00316370017890557,0.00474555026830032,
0.00632740035769508,0.00790925044708983,0.00949110053648459,0.0110729506258793,
0.0126548007152741),.UNSPECIFIED.);
#434=B_SPLINE_CURVE_WITH_KNOTS('',3,(#1099,#1100,#1101,#1102),
 .UNSPECIFIED.,.F.,.F.,(4,4),(0.,0.00187493450480189),.UNSPECIFIED.);
#435=B_SPLINE_CURVE_WITH_KNOTS('',3,(#1108,#1109,#1110,#1111,#1112),
 .UNSPECIFIED.,.F.,.F.,(4,1,4),(0.,0.00294528090954247,0.00589056181908494),
 .UNSPECIFIED.);
#436=B_SPLINE_CURVE_WITH_KNOTS('',3,(#1114,#1115,#1116,#1117,#1118,#1119,
#1120),.UNSPECIFIED.,.F.,.F.,(4,1,1,1,4),(-0.00783883009419377,-0.00569124838534862,
-0.00354366667650346,-0.00139608496765831,0.000751496741186845),
 .UNSPECIFIED.);
#437=B_SPLINE_CURVE_WITH_KNOTS('',3,(#1122,#1123,#1124,#1125),
 .UNSPECIFIED.,.F.,.F.,(4,4),(0.,0.395983427619),.UNSPECIFIED.);
#438=B_SPLINE_CURVE_WITH_KNOTS('',3,(#1127,#1128,#1129,#1130),
 .UNSPECIFIED.,.F.,.F.,(4,4),(0.,0.00195477911327734),.UNSPECIFIED.);
#439=B_SPLINE_CURVE_WITH_KNOTS('',3,(#1132,#1133,#1134,#1135,#1136,#1137,
#1138,#1139,#1140,#1141,#1142),.UNSPECIFIED.,.F.,.F.,(4,1,1,1,1,1,1,1,4),
(1.38778555702848E-16,0.00139662427650432,0.00279324855300849,0.00418987282951267,
0.00558649710601685,0.00698312138252103,0.00837974565902521,0.00977636993552938,
0.0111729942120336),.UNSPECIFIED.);
#440=B_SPLINE_CURVE_WITH_KNOTS('',3,(#1144,#1145,#1146,#1147),
 .UNSPECIFIED.,.F.,.F.,(4,4),(0.,0.728852551181),.UNSPECIFIED.);
#441=B_SPLINE_CURVE_WITH_KNOTS('',3,(#1151,#1152,#1153,#1154),
 .UNSPECIFIED.,.F.,.F.,(4,4),(0.,0.00177477391855782),.UNSPECIFIED.);
#442=B_SPLINE_CURVE_WITH_KNOTS('',3,(#1156,#1157,#1158,#1159,#1160,#1161,
#1162,#1163,#1164,#1165,#1166),.UNSPECIFIED.,.T.,.F.,(1,1,1,1,1,1,1,1,1,
1,1,1,1,1,1),(-0.0076682167370536,-0.00511214449136903,-0.00255607224568445,
1.14446565408047E-16,0.00255607224568469,0.00511214449136926,0.00766821673705383,
0.0102242889827384,0.012780361228423,0.0153364334741075,0.0178925057197921,
0.0204485779654767,0.0230046502111613,0.0255607224568458,0.0281167947025304),
 .UNSPECIFIED.);
#443=B_SPLINE_CURVE_WITH_KNOTS('',3,(#1168,#1169,#1170,#1171,#1172,#1173,
#1174,#1175,#1176,#1177,#1178,#1179,#1180,#1181,#1182,#1183,#1184,#1185,
#1186),.UNSPECIFIED.,.T.,.F.,(1,1,1,1,1,1,1,1,1,1,1,1,1,1,1,1,1,1,1,1,1,
1,1),(-0.190789473684211,-0.128289473684211,-0.0657894736842105,0.,0.059375,
0.12171875,0.1842109375,0.246710546875,0.30921052734375,0.371710526367187,
0.434210526318359,0.496710526315918,0.559210526315796,0.62171052631579,
0.684210526315789,0.746710526315789,0.809210526315789,0.871710526315789,
0.934210526315789,1.,1.059375,1.12171875,1.1842109375),.UNSPECIFIED.);
#444=B_SPLINE_CURVE_WITH_KNOTS('',3,(#1192,#1193,#1194,#1195,#1196,#1197,
#1198,#1199,#1200,#1201,#1202,#1203,#1204,#1205,#1206),.UNSPECIFIED.,.F.,
 .F.,(4,1,1,1,1,1,1,1,1,1,1,1,4),(0.,0.125,0.25,0.375,0.4375,0.5,0.5625,
0.625,0.6875,0.75,0.8125,0.875,1.),.UNSPECIFIED.);
#445=B_SPLINE_CURVE_WITH_KNOTS('',3,(#1208,#1209,#1210,#1211,#1212,#1213,
#1214,#1215,#1216,#1217,#1218,#1219),.UNSPECIFIED.,.F.,.F.,(4,1,1,1,1,1,
1,1,1,4),(1.40108217243426E-5,0.125011278658533,0.250008546495341,0.375005814332149,
0.500003082168957,0.625000350005765,0.687498983924169,0.749997617842573,
0.874994885679381,0.99999215351619),.UNSPECIFIED.);
#446=EDGE_LOOP('',(#91));
#447=EDGE_LOOP('',(#92));
#448=EDGE_LOOP('',(#93,#94,#95,#96));
#449=EDGE_LOOP('',(#97,#98,#99,#100));
#450=EDGE_LOOP('',(#101,#102,#103,#104));
#451=EDGE_LOOP('',(#105,#106,#107,#108));
#452=EDGE_LOOP('',(#109,#110,#111,#112));
#453=EDGE_LOOP('',(#113,#114,#115,#116));
#454=EDGE_LOOP('',(#117,#118,#119,#120));
#455=EDGE_LOOP('',(#121,#122,#123,#124));
#456=EDGE_LOOP('',(#125,#126,#127,#128));
#457=EDGE_LOOP('',(#129,#130,#131,#132,#133,#134,#135,#136,#137,#138,#139,
#140));
#458=EDGE_LOOP('',(#141));
#459=EDGE_LOOP('',(#142,#143,#144,#145));
#460=EDGE_LOOP('',(#146,#147,#148,#149));
#461=EDGE_LOOP('',(#150,#151,#152,#153));
#462=EDGE_LOOP('',(#154));
#463=EDGE_LOOP('',(#155));
#464=EDGE_LOOP('',(#156));
#465=EDGE_LOOP('',(#157));
#466=EDGE_LOOP('',(#158,#159));
#467=EDGE_LOOP('',(#160,#161));
#468=EDGE_LOOP('',(#162,#163,#164,#165,#166,#167,#168,#169));
#469=EDGE_LOOP('',(#170));
#470=EDGE_LOOP('',(#171,#172));
#471=EDGE_LOOP('',(#173,#174));
#472=EDGE_LOOP('',(#175,#176,#177,#178,#179,#180,#181,#182));
#473=EDGE_LOOP('',(#183,#184,#185,#186,#187,#188));
#474=EDGE_LOOP('',(#189,#190,#191,#192));
#475=EDGE_LOOP('',(#193,#194,#195,#196,#197,#198));
#476=EDGE_LOOP('',(#199,#200,#201,#202,#203,#204,#205,#206));
#477=EDGE_LOOP('',(#207,#208,#209,#210,#211,#212,#213));
#478=EDGE_LOOP('',(#214,#215,#216,#217,#218,#219));
#479=EDGE_LOOP('',(#220,#221,#222,#223,#224,#225,#226));
#480=EDGE_LOOP('',(#227));
#481=EDGE_LOOP('',(#228));
#482=EDGE_LOOP('',(#229,#230,#231,#232,#233,#234,#235,#236));
#483=EDGE_LOOP('',(#237,#238));
#484=EDGE_LOOP('',(#239));
#485=EDGE_LOOP('',(#240,#241));
#486=EDGE_LOOP('',(#242,#243,#244,#245,#246,#247,#248,#249,#250,#251,#252,
#253));
#487=EDGE_LOOP('',(#254,#255));
#488=EDGE_LOOP('',(#256));
#489=EDGE_LOOP('',(#257));
#490=EDGE_LOOP('',(#258));
#491=FACE_BOUND('',#446,.T.);
#492=FACE_BOUND('',#447,.T.);
#493=FACE_BOUND('',#448,.T.);
#494=FACE_BOUND('',#449,.T.);
#495=FACE_BOUND('',#450,.T.);
#496=FACE_BOUND('',#451,.T.);
#497=FACE_BOUND('',#452,.T.);
#498=FACE_BOUND('',#453,.T.);
#499=FACE_BOUND('',#454,.T.);
#500=FACE_BOUND('',#455,.T.);
#501=FACE_BOUND('',#456,.T.);
#502=FACE_BOUND('',#457,.T.);
#503=FACE_BOUND('',#458,.T.);
#504=FACE_BOUND('',#459,.T.);
#505=FACE_BOUND('',#460,.T.);
#506=FACE_BOUND('',#461,.T.);
#507=FACE_BOUND('',#462,.T.);
#508=FACE_BOUND('',#463,.T.);
#509=FACE_BOUND('',#464,.T.);
#510=FACE_BOUND('',#465,.T.);
#511=FACE_BOUND('',#466,.T.);
#512=FACE_BOUND('',#467,.T.);
#513=FACE_BOUND('',#468,.T.);
#514=FACE_BOUND('',#469,.T.);
#515=FACE_BOUND('',#470,.T.);
#516=FACE_BOUND('',#471,.T.);
#517=FACE_BOUND('',#472,.T.);
#518=FACE_BOUND('',#473,.T.);
#519=FACE_BOUND('',#474,.T.);
#520=FACE_BOUND('',#475,.T.);
#521=FACE_BOUND('',#476,.T.);
#522=FACE_BOUND('',#477,.T.);
#523=FACE_BOUND('',#478,.T.);
#524=FACE_BOUND('',#479,.T.);
#525=FACE_BOUND('',#480,.T.);
#526=FACE_BOUND('',#481,.T.);
#527=FACE_BOUND('',#482,.T.);
#528=FACE_BOUND('',#483,.T.);
#529=FACE_BOUND('',#484,.T.);
#530=FACE_BOUND('',#485,.T.);
#531=FACE_BOUND('',#486,.T.);
#532=FACE_BOUND('',#487,.T.);
#533=FACE_BOUND('',#488,.T.);
#534=FACE_BOUND('',#489,.T.);
#535=FACE_BOUND('',#490,.T.);
#536=CYLINDRICAL_SURFACE('',#608,2.5);
#537=CYLINDRICAL_SURFACE('',#609,0.4);
#538=CYLINDRICAL_SURFACE('',#611,0.922912372737023);
#539=CYLINDRICAL_SURFACE('',#613,0.4);
#540=CYLINDRICAL_SURFACE('',#615,0.922912372737023);
#541=CYLINDRICAL_SURFACE('',#617,0.4);
#542=CYLINDRICAL_SURFACE('',#619,0.922912372737023);
#543=CYLINDRICAL_SURFACE('',#621,0.4);
#544=CYLINDRICAL_SURFACE('',#623,0.922912372737023);
#545=CYLINDRICAL_SURFACE('',#625,0.4);
#546=CYLINDRICAL_SURFACE('',#629,0.922912372737023);
#547=CYLINDRICAL_SURFACE('',#631,0.922912372737023);
#548=CYLINDRICAL_SURFACE('',#633,0.4);
#549=CYLINDRICAL_SURFACE('',#639,2.5);
#550=CYLINDRICAL_SURFACE('',#640,11.3808467325);
#551=CYLINDRICAL_SURFACE('',#641,2.);
#552=CYLINDRICAL_SURFACE('',#642,4.);
#553=CYLINDRICAL_SURFACE('',#643,10.);
#554=CYLINDRICAL_SURFACE('',#644,3.25);
#555=CYLINDRICAL_SURFACE('',#645,10.);
#556=CYLINDRICAL_SURFACE('',#646,4.99988030655);
#557=CYLINDRICAL_SURFACE('',#647,10.);
#558=CYLINDRICAL_SURFACE('',#648,2.45);
#559=CYLINDRICAL_SURFACE('',#649,10.);
#560=CYLINDRICAL_SURFACE('',#650,24.293467299);
#561=CYLINDRICAL_SURFACE('',#651,3.25);
#562=ADVANCED_FACE('',(#491,#492),#536,.F.);
#563=ADVANCED_FACE('',(#493),#537,.F.);
#564=ADVANCED_FACE('',(#494),#538,.T.);
#565=ADVANCED_FACE('',(#495),#539,.F.);
#566=ADVANCED_FACE('',(#496),#540,.T.);
#567=ADVANCED_FACE('',(#497),#541,.F.);
#568=ADVANCED_FACE('',(#498),#542,.T.);
#569=ADVANCED_FACE('',(#499),#543,.F.);
#570=ADVANCED_FACE('',(#500),#544,.T.);
#571=ADVANCED_FACE('',(#501),#545,.F.);
#572=ADVANCED_FACE('',(#502,#503),#26,.F.);
#573=ADVANCED_FACE('',(#504),#546,.T.);
#574=ADVANCED_FACE('',(#505),#547,.T.);
#575=ADVANCED_FACE('',(#506),#548,.F.);
#576=ADVANCED_FACE('',(#507,#508),#23,.F.);
#577=ADVANCED_FACE('',(#509,#510),#22,.T.);
#578=ADVANCED_FACE('',(#511,#512),#549,.F.);
#579=ADVANCED_FACE('',(#513,#514),#550,.F.);
#580=ADVANCED_FACE('',(#515,#516),#551,.F.);
#581=ADVANCED_FACE('',(#517),#552,.T.);
#582=ADVANCED_FACE('',(#518),#553,.F.);
#583=ADVANCED_FACE('',(#519),#554,.T.);
#584=ADVANCED_FACE('',(#520),#555,.F.);
#585=ADVANCED_FACE('',(#521),#556,.T.);
#586=ADVANCED_FACE('',(#522),#557,.F.);
#587=ADVANCED_FACE('',(#523),#558,.T.);
#588=ADVANCED_FACE('',(#524),#559,.F.);
#589=ADVANCED_FACE('',(#525,#526,#527),#560,.F.);
#590=ADVANCED_FACE('',(#528),#561,.F.);
#591=ADVANCED_FACE('',(#529,#530),#24,.F.);
#592=ADVANCED_FACE('',(#531),#25,.F.);
#593=ADVANCED_FACE('',(#532,#533),#20,.F.);
#594=ADVANCED_FACE('',(#534,#535),#21,.F.);
#595=CLOSED_SHELL('',(#562,#563,#564,#565,#566,#567,#568,#569,#570,#571,
#572,#573,#574,#575,#576,#577,#578,#579,#580,#581,#582,#583,#584,#585,#586,
#587,#588,#589,#590,#591,#592,#593,#594));
#596=STYLED_ITEM('',(#597),#604);
#597=PRESENTATION_STYLE_ASSIGNMENT((#598));
#598=SURFACE_STYLE_USAGE(.BOTH.,#599);
#599=SURFACE_SIDE_STYLE('',(#600));
#600=SURFACE_STYLE_FILL_AREA(#601);
#601=FILL_AREA_STYLE('',(#602));
#602=FILL_AREA_STYLE_COLOUR('',#603);
#603=COLOUR_RGB('',0.506983280181885,0.531564235687256,0.550000011920929);
#604=MANIFOLD_SOLID_BREP($,#595);
#605=SHAPE_DEFINITION_REPRESENTATION(#1343,#606);
#606=SHAPE_REPRESENTATION('Î÷π«π«∏…-◊Ó∂Ã',(#607),#1338);
#607=AXIS2_PLACEMENT_3D('',#775,#655,#656);
#608=AXIS2_PLACEMENT_3D('',#776,#657,#658);
#609=AXIS2_PLACEMENT_3D('',#801,#659,#660);
#610=AXIS2_PLACEMENT_3D('',#813,#663,#664);
#611=AXIS2_PLACEMENT_3D('',#814,#665,#666);
#612=AXIS2_PLACEMENT_3D('',#823,#668,#669);
#613=AXIS2_PLACEMENT_3D('',#824,#670,#671);
#614=AXIS2_PLACEMENT_3D('',#833,#673,#674);
#615=AXIS2_PLACEMENT_3D('',#834,#675,#676);
#616=AXIS2_PLACEMENT_3D('',#843,#678,#679);
#617=AXIS2_PLACEMENT_3D('',#844,#680,#681);
#618=AXIS2_PLACEMENT_3D('',#853,#683,#684);
#619=AXIS2_PLACEMENT_3D('',#854,#685,#686);
#620=AXIS2_PLACEMENT_3D('',#863,#688,#689);
#621=AXIS2_PLACEMENT_3D('',#864,#690,#691);
#622=AXIS2_PLACEMENT_3D('',#873,#693,#694);
#623=AXIS2_PLACEMENT_3D('',#874,#695,#696);
#624=AXIS2_PLACEMENT_3D('',#883,#698,#699);
#625=AXIS2_PLACEMENT_3D('',#884,#700,#701);
#626=AXIS2_PLACEMENT_3D('',#893,#703,#704);
#627=AXIS2_PLACEMENT_3D('',#894,#705,#706);
#628=AXIS2_PLACEMENT_3D('',#912,#707,#708);
#629=AXIS2_PLACEMENT_3D('',#914,#709,#710);
#630=AXIS2_PLACEMENT_3D('',#917,#712,#713);
#631=AXIS2_PLACEMENT_3D('',#918,#714,#715);
#632=AXIS2_PLACEMENT_3D('',#921,#717,#718);
#633=AXIS2_PLACEMENT_3D('',#922,#719,#720);
#634=AXIS2_PLACEMENT_3D('',#923,#721,#722);
#635=AXIS2_PLACEMENT_3D('',#924,#723,#724);
#636=AXIS2_PLACEMENT_3D('',#925,#725,#726);
#637=AXIS2_PLACEMENT_3D('',#927,#727,#728);
#638=AXIS2_PLACEMENT_3D('',#928,#729,#730);
#639=AXIS2_PLACEMENT_3D('',#930,#731,#732);
#640=AXIS2_PLACEMENT_3D('',#970,#733,#734);
#641=AXIS2_PLACEMENT_3D('',#1009,#737,#738);
#642=AXIS2_PLACEMENT_3D('',#1051,#739,#740);
#643=AXIS2_PLACEMENT_3D('',#1065,#745,#746);
#644=AXIS2_PLACEMENT_3D('',#1082,#747,#748);
#645=AXIS2_PLACEMENT_3D('',#1096,#750,#751);
#646=AXIS2_PLACEMENT_3D('',#1104,#754,#755);
#647=AXIS2_PLACEMENT_3D('',#1113,#758,#759);
#648=AXIS2_PLACEMENT_3D('',#1131,#760,#761);
#649=AXIS2_PLACEMENT_3D('',#1150,#763,#764);
#650=AXIS2_PLACEMENT_3D('',#1155,#765,#766);
#651=AXIS2_PLACEMENT_3D('',#1188,#767,#768);
#652=AXIS2_PLACEMENT_3D('',#1189,#769,#770);
#653=AXIS2_PLACEMENT_3D('',#1207,#771,#772);
#654=AXIS2_PLACEMENT_3D('',#1220,#773,#774);
#655=DIRECTION('',(0.,0.,1.));
#656=DIRECTION('',(1.,0.,0.));
#657=DIRECTION('',(0.999780683474845,0.0209424198833996,5.21637973622999E-15));
#658=DIRECTION('',(-0.0209424198833996,0.999780683474845,1.5241721492425E-14));
#659=DIRECTION('',(-1.,-4.81732709278757E-14,-1.35746580749397E-14));
#660=DIRECTION('',(-4.88062375747024E-14,0.898478923355677,0.439016656045788));
#661=DIRECTION('',(-1.,-4.81732709278757E-14,-1.35746580749397E-14));
#662=DIRECTION('',(-1.,-4.81732709278757E-14,-1.35746580749397E-14));
#663=DIRECTION('',(-1.,-4.82455352316861E-14,-1.35746580749397E-14));
#664=DIRECTION('',(-4.82455352316864E-14,1.,2.05668815311807E-14));
#665=DIRECTION('',(-1.,-4.81732709278757E-14,-1.35746580749397E-14));
#666=DIRECTION('',(-4.88062375747024E-14,0.898478923355677,0.439016656045788));
#667=DIRECTION('',(-1.,-4.81732709278757E-14,-1.35746580749397E-14));
#668=DIRECTION('',(-1.,-4.82455352316861E-14,-1.35746580749397E-14));
#669=DIRECTION('',(-4.82455352316864E-14,1.,2.05668815311807E-14));
#670=DIRECTION('',(-1.,-4.81732709278757E-14,-1.35746580749397E-14));
#671=DIRECTION('',(-4.88062375747024E-14,0.898478923355677,0.439016656045788));
#672=DIRECTION('',(-1.,-4.81732709278757E-14,-1.35746580749397E-14));
#673=DIRECTION('',(-1.,-4.82455352316861E-14,-1.35746580749397E-14));
#674=DIRECTION('',(-4.82455352316864E-14,1.,2.05668815311807E-14));
#675=DIRECTION('',(-1.,-4.81732709278757E-14,-1.35746580749397E-14));
#676=DIRECTION('',(-4.88062375747024E-14,0.898478923355677,0.439016656045788));
#677=DIRECTION('',(-1.,-4.81732709278757E-14,-1.35746580749397E-14));
#678=DIRECTION('',(-1.,-4.82455352316861E-14,-1.35746580749397E-14));
#679=DIRECTION('',(-4.82455352316864E-14,1.,2.05668815311807E-14));
#680=DIRECTION('',(-1.,-4.81732709278757E-14,-1.35746580749397E-14));
#681=DIRECTION('',(-4.88062375747024E-14,0.898478923355677,0.439016656045788));
#682=DIRECTION('',(-1.,-4.81732709278757E-14,-1.35746580749397E-14));
#683=DIRECTION('',(-1.,-4.82455352316861E-14,-1.35746580749397E-14));
#684=DIRECTION('',(-4.82455352316864E-14,1.,2.05668815311807E-14));
#685=DIRECTION('',(-1.,-4.81732709278757E-14,-1.35746580749397E-14));
#686=DIRECTION('',(-4.88062375747024E-14,0.898478923355677,0.439016656045788));
#687=DIRECTION('',(-1.,-4.81732709278757E-14,-1.35746580749397E-14));
#688=DIRECTION('',(-1.,-4.82455352316861E-14,-1.35746580749397E-14));
#689=DIRECTION('',(-4.82455352316864E-14,1.,2.05668815311807E-14));
#690=DIRECTION('',(-1.,-4.81732709278757E-14,-1.35746580749397E-14));
#691=DIRECTION('',(-4.88062375747024E-14,0.898478923355677,0.439016656045788));
#692=DIRECTION('',(-1.,-4.81732709278757E-14,-1.35746580749397E-14));
#693=DIRECTION('',(-1.,-4.82455352316861E-14,-1.35746580749397E-14));
#694=DIRECTION('',(-4.82455352316864E-14,1.,2.05668815311807E-14));
#695=DIRECTION('',(-1.,-4.81732709278757E-14,-1.35746580749397E-14));
#696=DIRECTION('',(-4.88062375747024E-14,0.898478923355677,0.439016656045788));
#697=DIRECTION('',(-1.,-4.81732709278757E-14,-1.35746580749397E-14));
#698=DIRECTION('',(-1.,-4.82455352316861E-14,-1.35746580749397E-14));
#699=DIRECTION('',(-4.82455352316864E-14,1.,2.05668815311807E-14));
#700=DIRECTION('',(-1.,-4.81732709278757E-14,-1.35746580749397E-14));
#701=DIRECTION('',(-4.88062375747024E-14,0.898478923355677,0.439016656045788));
#702=DIRECTION('',(-1.,-4.81732709278757E-14,-1.35746580749397E-14));
#703=DIRECTION('',(-1.,-4.82455352316861E-14,-1.35746580749397E-14));
#704=DIRECTION('',(-4.82455352316864E-14,1.,2.05668815311807E-14));
#705=DIRECTION('',(-1.,-4.81732709278757E-14,-1.35746580749397E-14));
#706=DIRECTION('',(-4.88062375747024E-14,0.898478923355677,0.439016656045788));
#707=DIRECTION('',(-1.,-4.81732709278757E-14,-1.35746580749397E-14));
#708=DIRECTION('',(-1.6756913726245E-14,0.0900122159713017,0.995940661372923));
#709=DIRECTION('',(-1.,-4.81732709278757E-14,-1.35746580749397E-14));
#710=DIRECTION('',(-4.88062375747024E-14,0.898478923355677,0.439016656045788));
#711=DIRECTION('',(-1.,-4.81732709278757E-14,-1.35746580749397E-14));
#712=DIRECTION('',(-1.,-4.82455352316861E-14,-1.35746580749397E-14));
#713=DIRECTION('',(-4.82455352316864E-14,1.,2.05668815311807E-14));
#714=DIRECTION('',(-1.,-4.81732709278757E-14,-1.35746580749397E-14));
#715=DIRECTION('',(-4.88062375747024E-14,0.898478923355677,0.439016656045788));
#716=DIRECTION('',(-1.,-4.81732709278757E-14,-1.35746580749397E-14));
#717=DIRECTION('',(-1.,-4.82455352316861E-14,-1.35746580749397E-14));
#718=DIRECTION('',(-4.82455352316864E-14,1.,2.05668815311807E-14));
#719=DIRECTION('',(-1.,-4.81732709278757E-14,-1.35746580749397E-14));
#720=DIRECTION('',(-4.88062375747024E-14,0.898478923355677,0.439016656045788));
#721=DIRECTION('',(-1.,-4.82455352316861E-14,-1.35746580749397E-14));
#722=DIRECTION('',(-4.82455352316864E-14,1.,2.05668815311807E-14));
#723=DIRECTION('',(1.,4.81732709278757E-14,1.35746580749397E-14));
#724=DIRECTION('',(-4.88062375747024E-14,0.898478923355677,0.439016656045788));
#725=DIRECTION('',(1.,4.81732709278757E-14,1.35746580749397E-14));
#726=DIRECTION('',(4.88062375747024E-14,-0.898478923355677,-0.439016656045788));
#727=DIRECTION('',(-1.,-4.81732709278757E-14,-1.35746580749397E-14));
#728=DIRECTION('',(4.88062375747024E-14,-0.898478923355677,-0.439016656045788));
#729=DIRECTION('',(-1.,-4.82455352316861E-14,-1.35746580749397E-14));
#730=DIRECTION('',(-4.82455352316864E-14,1.,2.05668815311807E-14));
#731=DIRECTION('',(-5.07076848316245E-15,-1.53071999520193E-14,0.999999999999999));
#732=DIRECTION('',(-0.999780683474845,-0.0209424198834,-5.18211894757946E-15));
#733=DIRECTION('',(5.07076848316245E-15,1.53071999520193E-14,-0.999999999999999));
#734=DIRECTION('',(0.999780683474845,0.0209424198833998,5.20467035276715E-15));
#735=DIRECTION('',(5.07076848316245E-15,1.53071999520193E-14,-0.999999999999999));
#736=DIRECTION('',(5.07076848316245E-15,1.53071999520193E-14,-0.999999999999999));
#737=DIRECTION('',(-5.07076848316245E-15,-1.53071999520193E-14,0.999999999999999));
#738=DIRECTION('',(-0.999780683474845,-0.0209424198834,-5.18211894757946E-15));
#739=DIRECTION('',(0.999780683474845,0.0209424198834,5.27969714310315E-15));
#740=DIRECTION('',(0.0209424198834001,-0.999780683474845,-1.52833548558485E-14));
#741=DIRECTION('',(0.999780683474845,0.0209424198834,5.27969714310315E-15));
#742=DIRECTION('',(0.999780683474845,0.0209424198834,5.27969714310315E-15));
#743=DIRECTION('',(0.999780683474845,0.0209424198834,5.27969714310315E-15));
#744=DIRECTION('',(0.999780683474845,0.0209424198834,5.27969714310315E-15));
#745=DIRECTION('',(0.999780683474845,0.0209424198834,5.27969714310315E-15));
#746=DIRECTION('',(-0.0209424198834001,0.999780683474845,1.51862103411938E-14));
#747=DIRECTION('',(5.07076848316245E-15,1.53071999520193E-14,-0.999999999999999));
#748=DIRECTION('',(-0.999780683474845,-0.0209424198834,-5.27969714310315E-15));
#749=DIRECTION('',(5.07076848316245E-15,1.53071999520193E-14,-0.999999999999999));
#750=DIRECTION('',(0.999780683474845,0.0209424198834,5.27969714310315E-15));
#751=DIRECTION('',(0.0209424198834001,-0.999780683474845,-1.52833548558485E-14));
#752=DIRECTION('',(0.999780683474845,0.0209424198834,5.27969714310315E-15));
#753=DIRECTION('',(0.999780683474845,0.0209424198834,5.27969714310315E-15));
#754=DIRECTION('',(0.999780683474845,0.0209424198834,5.27969714310315E-15));
#755=DIRECTION('',(-0.0209424198834001,0.999780683474845,1.51862103411938E-14));
#756=DIRECTION('',(0.999780683474845,0.0209424198834,5.27969714310315E-15));
#757=DIRECTION('',(0.999780683474845,0.0209424198834,5.27969714310315E-15));
#758=DIRECTION('',(0.999780683474845,0.0209424198834,5.27969714310315E-15));
#759=DIRECTION('',(0.0209424198834001,-0.999780683474845,-1.52833548558485E-14));
#760=DIRECTION('',(5.07076848316245E-15,1.53071999520193E-14,-0.999999999999999));
#761=DIRECTION('',(0.999780683474845,0.0209424198834002,5.27058984485428E-15));
#762=DIRECTION('',(5.07076848316245E-15,1.53071999520193E-14,-0.999999999999999));
#763=DIRECTION('',(0.999780683474845,0.0209424198834,5.27969714310315E-15));
#764=DIRECTION('',(-0.0209424198834001,0.999780683474845,1.51862103411938E-14));
#765=DIRECTION('',(5.07076848316245E-15,1.53071999520193E-14,-0.999999999999999));
#766=DIRECTION('',(-0.999780683474845,-0.0209424198834,-5.27969714310315E-15));
#767=DIRECTION('',(1.,4.81732709278757E-14,1.35746580749397E-14));
#768=DIRECTION('',(-4.8173270927876E-14,1.,2.05668815311807E-14));
#769=DIRECTION('',(-1.,-4.82455352316861E-14,-1.35746580749397E-14));
#770=DIRECTION('',(4.82455352316865E-14,-1.,-2.98672256722287E-14));
#771=DIRECTION('',(1.,4.82455352316861E-14,1.35746580749397E-14));
#772=DIRECTION('',(-4.82455352316864E-14,1.,2.05668815311807E-14));
#773=DIRECTION('',(1.,4.82455352316861E-14,1.35746580749397E-14));
#774=DIRECTION('',(-4.82455352316864E-14,1.,2.05668815311807E-14));
#775=CARTESIAN_POINT('',(0.,0.,0.));
#776=CARTESIAN_POINT('',(-1.62463627876064,178.426012780268,-309.701758743852));
#777=CARTESIAN_POINT('',(2.69997118769965,176.801820426738,-307.531337340312));
#778=CARTESIAN_POINT('',(3.06734598933819,175.771465575435,-309.370184575331));
#779=CARTESIAN_POINT('',(2.84592515091128,176.348581813203,-311.417617862657));
#780=CARTESIAN_POINT('',(2.40889269329066,178.158006295433,-312.447049626259));
#781=CARTESIAN_POINT('',(2.35058397603853,180.219172674761,-311.887620533781));
#782=CARTESIAN_POINT('',(2.49685873026234,181.264561182409,-310.031358378606));
#783=CARTESIAN_POINT('',(2.40099129819205,180.688250227069,-307.982630838053));
#784=CARTESIAN_POINT('',(2.34138699400209,178.816361786461,-306.948075449765));
#785=CARTESIAN_POINT('',(2.69997118769965,176.801820426738,-307.531337340312));
#786=CARTESIAN_POINT('',(3.06734598933819,175.771465575435,-309.370184575331));
#787=CARTESIAN_POINT('',(2.84592515091128,176.348581813203,-311.417617862657));
#788=CARTESIAN_POINT('',(2.96921338266061,176.039377423613,-309.404948917382));
#789=CARTESIAN_POINT('',(-1.39440570458117,176.474320077374,-311.662990450074));
#790=CARTESIAN_POINT('',(-1.51483545053737,175.656099906515,-309.700985385775));
#791=CARTESIAN_POINT('',(-1.39464655829989,176.472906750398,-307.743917453959));
#792=CARTESIAN_POINT('',(-1.22133246165703,178.424127663891,-306.932609119411));
#793=CARTESIAN_POINT('',(-1.2073188844319,180.390133184204,-307.736262677374));
#794=CARTESIAN_POINT('',(-1.24728155884034,181.205941452448,-309.700636819766));
#795=CARTESIAN_POINT('',(-1.20748871622967,180.394562027023,-311.661500418616));
#796=CARTESIAN_POINT('',(-1.22095233007612,178.431128781743,-312.471514554945));
#797=CARTESIAN_POINT('',(-1.39440570458117,176.474320077374,-311.662990450074));
#798=CARTESIAN_POINT('',(-1.51483545053737,175.656099906515,-309.700985385775));
#799=CARTESIAN_POINT('',(-1.39464655829989,176.472906750398,-307.743917453959));
#800=CARTESIAN_POINT('',(-1.47473234417194,175.928604408972,-309.701808241189));
#801=CARTESIAN_POINT('',(0.535609135467284,179.283844642213,-303.049244752061));
#802=CARTESIAN_POINT('',(0.535609135467352,179.677266671291,-302.977001364568));
#803=CARTESIAN_POINT('',(-0.564390864532674,179.67726667129,-302.977001364568));
#804=CARTESIAN_POINT('',(-1.8307623352607,179.677266671291,-302.977001364568));
#805=CARTESIAN_POINT('',(-1.83076233526069,178.985083088269,-303.315217558725));
#806=CARTESIAN_POINT('',(-1.91459731892527,179.093222919734,-303.43668871398));
#807=CARTESIAN_POINT('',(-2.04093643498928,179.517222018349,-303.531213683435));
#808=CARTESIAN_POINT('',(-1.91468089835048,179.706668836191,-303.137119262914));
#809=CARTESIAN_POINT('',(-1.83076233526053,179.67726667129,-302.977001364568));
#810=CARTESIAN_POINT('',(-1.83076233526048,178.985083088269,-303.315217558725));
#811=CARTESIAN_POINT('',(0.535609135467322,178.985083088269,-303.315217558725));
#812=CARTESIAN_POINT('',(-0.564390864532636,178.985083088269,-303.315217558725));
#813=CARTESIAN_POINT('',(-0.564390864532654,179.283844642213,-303.049244752061));
#814=CARTESIAN_POINT('',(0.53560913546742,178.295756251687,-303.928891543931));
#815=CARTESIAN_POINT('',(-1.8307623352607,177.69753454981,-303.226112742917));
#816=CARTESIAN_POINT('',(-1.7149855480652,177.868560825176,-303.080531189565));
#817=CARTESIAN_POINT('',(-1.51894085124227,178.365186700875,-302.902304101692));
#818=CARTESIAN_POINT('',(-1.71491172760641,178.835645888675,-303.147357954852));
#819=CARTESIAN_POINT('',(-1.83076233526063,178.985083088269,-303.315217558725));
#820=CARTESIAN_POINT('',(-1.8307623352605,177.69753454981,-303.226112742917));
#821=CARTESIAN_POINT('',(0.535609135467344,177.69753454981,-303.226112742917));
#822=CARTESIAN_POINT('',(-0.564390864532576,177.69753454981,-303.226112742917));
#823=CARTESIAN_POINT('',(-0.564390864532595,178.295756251687,-303.928891543931));
#824=CARTESIAN_POINT('',(0.535609135467189,177.438258926447,-302.921520965074));
#825=CARTESIAN_POINT('',(-1.83076233526054,177.058538942188,-302.795772273016));
#826=CARTESIAN_POINT('',(-1.91459515197581,177.007413073168,-302.950155701279));
#827=CARTESIAN_POINT('',(-2.04093745627826,177.137549138704,-303.364617701163));
#828=CARTESIAN_POINT('',(-1.91468102115224,177.573569283289,-303.331634868236));
#829=CARTESIAN_POINT('',(-1.83076233526062,177.69753454981,-303.226112742917));
#830=CARTESIAN_POINT('',(-1.8307623352605,177.058538942188,-302.795772273017));
#831=CARTESIAN_POINT('',(0.535609135467274,177.058538942188,-302.795772273016));
#832=CARTESIAN_POINT('',(-0.56439086453255,177.058538942188,-302.795772273016));
#833=CARTESIAN_POINT('',(-0.564390864532567,177.438258926447,-302.921520965074));
#834=CARTESIAN_POINT('',(0.535609135467471,176.182418263067,-302.505634713629));
#835=CARTESIAN_POINT('',(-1.83076233526067,176.491931707047,-301.636170122202));
#836=CARTESIAN_POINT('',(-1.71498692539734,176.703519651082,-301.711491548639));
#837=CARTESIAN_POINT('',(-1.51893998995239,177.106184852687,-302.052468011145));
#838=CARTESIAN_POINT('',(-1.71491207583554,177.129190811245,-302.582426701247));
#839=CARTESIAN_POINT('',(-1.83076233526058,177.058538942188,-302.795772273017));
#840=CARTESIAN_POINT('',(-1.83076233526058,176.491931707048,-301.636170122201));
#841=CARTESIAN_POINT('',(0.53560913546748,176.491931707048,-301.636170122202));
#842=CARTESIAN_POINT('',(-0.564390864532539,176.491931707048,-301.636170122202));
#843=CARTESIAN_POINT('',(-0.564390864532512,176.182418263066,-302.505634713629));
#844=CARTESIAN_POINT('',(0.535609135467262,176.626078112763,-301.259334956866));
#845=CARTESIAN_POINT('',(-1.83076233526045,176.545119682447,-300.867613458144));
#846=CARTESIAN_POINT('',(-1.91459747215082,176.385852369344,-300.900529781888));
#847=CARTESIAN_POINT('',(-2.04093727484065,176.091990450818,-301.220462128536));
#848=CARTESIAN_POINT('',(-1.91467906892393,176.338567800438,-301.581575384952));
#849=CARTESIAN_POINT('',(-1.83076233526062,176.491931707047,-301.636170122202));
#850=CARTESIAN_POINT('',(-1.83076233526033,176.545119682447,-300.867613458144));
#851=CARTESIAN_POINT('',(0.535609135467478,176.545119682447,-300.867613458144));
#852=CARTESIAN_POINT('',(-0.564390864532552,176.545119682447,-300.867613458144));
#853=CARTESIAN_POINT('',(-0.56439086453255,176.626078112763,-301.259334956866));
#854=CARTESIAN_POINT('',(0.535609135467327,176.358325839908,-299.96380191355));
#855=CARTESIAN_POINT('',(-1.83076233526053,177.266060985766,-299.797116123137));
#856=CARTESIAN_POINT('',(-1.71498556970699,177.306625164026,-300.018019957702));
#857=CARTESIAN_POINT('',(-1.51894084466447,177.212661434673,-300.537224160916));
#858=CARTESIAN_POINT('',(-1.71491171917739,176.765208979481,-300.822126845651));
#859=CARTESIAN_POINT('',(-1.83076233526052,176.545119682447,-300.867613458144));
#860=CARTESIAN_POINT('',(-1.83076233526053,177.266060985765,-299.797116123137));
#861=CARTESIAN_POINT('',(0.535609135467285,177.266060985766,-299.797116123137));
#862=CARTESIAN_POINT('',(-0.564390864532601,177.266060985765,-299.797116123137));
#863=CARTESIAN_POINT('',(-0.564390864532555,176.358325839908,-299.96380191355));
#864=CARTESIAN_POINT('',(0.535609135467174,177.659483014843,-299.724872735644));
#865=CARTESIAN_POINT('',(-1.83076233526045,177.958244568787,-299.45889992898));
#866=CARTESIAN_POINT('',(-1.91459731892517,177.850104737322,-299.337428773725));
#867=CARTESIAN_POINT('',(-2.04093643498927,177.426105638707,-299.24290380427));
#868=CARTESIAN_POINT('',(-1.91468089835046,177.236658820864,-299.636998224791));
#869=CARTESIAN_POINT('',(-1.83076233526054,177.266060985765,-299.797116123137));
#870=CARTESIAN_POINT('',(-1.83076233526039,177.958244568787,-299.45889992898));
#871=CARTESIAN_POINT('',(0.535609135467273,177.958244568787,-299.45889992898));
#872=CARTESIAN_POINT('',(-0.564390864532639,177.958244568787,-299.45889992898));
#873=CARTESIAN_POINT('',(-0.564390864532621,177.659483014843,-299.724872735644));
#874=CARTESIAN_POINT('',(0.535609135467186,178.64757140537,-298.845225943774));
#875=CARTESIAN_POINT('',(-1.83076233526066,179.245793107246,-299.548004744788));
#876=CARTESIAN_POINT('',(-1.71498554806518,179.07476683188,-299.69358629814));
#877=CARTESIAN_POINT('',(-1.51894085124224,178.578140956181,-299.871813386013));
#878=CARTESIAN_POINT('',(-1.7149117276063,178.107681768382,-299.626759532853));
#879=CARTESIAN_POINT('',(-1.83076233526049,177.958244568787,-299.45889992898));
#880=CARTESIAN_POINT('',(-1.83076233526074,179.245793107246,-299.548004744788));
#881=CARTESIAN_POINT('',(0.535609135467318,179.245793107246,-299.548004744788));
#882=CARTESIAN_POINT('',(-0.5643908645327,179.245793107246,-299.548004744787));
#883=CARTESIAN_POINT('',(-0.564390864532681,178.647571405369,-298.845225943774));
#884=CARTESIAN_POINT('',(0.535609135467187,179.505068730609,-299.852596522631));
#885=CARTESIAN_POINT('',(-1.83076233526058,179.884788714868,-299.978345214688));
#886=CARTESIAN_POINT('',(-1.91459515197592,179.935914583888,-299.823961786425));
#887=CARTESIAN_POINT('',(-2.04093745627841,179.805778518352,-299.409499786542));
#888=CARTESIAN_POINT('',(-1.91468102115229,179.369758373767,-299.442482619469));
#889=CARTESIAN_POINT('',(-1.83076233526074,179.245793107246,-299.548004744787));
#890=CARTESIAN_POINT('',(-1.83076233526059,179.884788714868,-299.978345214688));
#891=CARTESIAN_POINT('',(0.535609135467074,179.884788714868,-299.978345214688));
#892=CARTESIAN_POINT('',(-0.564390864532725,179.884788714868,-299.978345214688));
#893=CARTESIAN_POINT('',(-0.564390864532709,179.505068730609,-299.852596522631));
#894=CARTESIAN_POINT('',(-2.06439086453272,178.471663828528,-301.387058743852));
#895=CARTESIAN_POINT('',(-1.83076233526055,179.67726667129,-302.977001364568));
#896=CARTESIAN_POINT('',(-1.71498556970693,179.63670249303,-302.756097530003));
#897=CARTESIAN_POINT('',(-1.51894084466399,179.730666222382,-302.236893326788));
#898=CARTESIAN_POINT('',(-1.71491171917738,180.178118677575,-301.951990642053));
#899=CARTESIAN_POINT('',(-1.83076233526059,180.398207974609,-301.906504029561));
#900=CARTESIAN_POINT('',(-1.83076233526051,180.398207974609,-301.906504029561));
#901=CARTESIAN_POINT('',(-1.8307623352607,180.398207974609,-301.906504029561));
#902=CARTESIAN_POINT('',(-1.914597472151,180.557475287712,-301.873587705817));
#903=CARTESIAN_POINT('',(-2.04093727484093,180.851337206238,-301.553655359169));
#904=CARTESIAN_POINT('',(-1.91467906892404,180.604759856618,-301.192542102753));
#905=CARTESIAN_POINT('',(-1.83076233526057,180.451395950008,-301.137947365503));
#906=CARTESIAN_POINT('',(-1.83076233526055,180.451395950008,-301.137947365503));
#907=CARTESIAN_POINT('',(-1.83076233526061,180.451395950008,-301.137947365503));
#908=CARTESIAN_POINT('',(-1.71498692539722,180.239808005974,-301.062625939066));
#909=CARTESIAN_POINT('',(-1.51893998995205,179.837142804368,-300.72164947656));
#910=CARTESIAN_POINT('',(-1.71491207583556,179.814136845811,-300.191690786458));
#911=CARTESIAN_POINT('',(-1.83076233526061,179.884788714868,-299.978345214688));
#912=CARTESIAN_POINT('',(-2.06439086453272,178.471663828528,-301.387058743852));
#913=CARTESIAN_POINT('',(-2.06439086453276,178.687693146859,-298.996801156557));
#914=CARTESIAN_POINT('',(0.535609135467186,180.585001817148,-302.810315574154));
#915=CARTESIAN_POINT('',(0.535609135467157,180.398207974609,-301.906504029561));
#916=CARTESIAN_POINT('',(-0.564390864532724,180.398207974609,-301.906504029561));
#917=CARTESIAN_POINT('',(-0.564390864532721,180.585001817148,-302.810315574154));
#918=CARTESIAN_POINT('',(0.535609135467153,180.760909393989,-300.268482774076));
#919=CARTESIAN_POINT('',(0.535609135467255,180.451395950008,-301.137947365503));
#920=CARTESIAN_POINT('',(-0.564390864532737,180.451395950008,-301.137947365503));
#921=CARTESIAN_POINT('',(-0.564390864532763,180.760909393989,-300.268482774076));
#922=CARTESIAN_POINT('',(0.535609135467206,180.317249544294,-301.514782530839));
#923=CARTESIAN_POINT('',(-0.564390864532725,180.317249544294,-301.514782530839));
#924=CARTESIAN_POINT('',(-2.06439086453278,181.059596939321,-300.122537439193));
#925=CARTESIAN_POINT('',(-2.06439086453157,178.471663828529,-301.387058743852));
#926=CARTESIAN_POINT('',(-2.06439086453143,175.790279213288,-302.697242518625));
#927=CARTESIAN_POINT('',(-0.655989280651872,178.471663828529,-301.387058743852));
#928=CARTESIAN_POINT('',(-1.56439086453264,178.471663828529,-301.387058743852));
#929=CARTESIAN_POINT('',(-1.56439086453279,181.644171757975,-301.387058743852));
#930=CARTESIAN_POINT('',(0.609462068077367,173.244563828529,-321.377738496352));
#931=CARTESIAN_POINT('',(0.989202350819791,175.715555018505,-297.221032972783));
#932=CARTESIAN_POINT('',(0.702546430102582,175.75960810976,-297.187821638775));
#933=CARTESIAN_POINT('',(0.411276959550817,175.753515293443,-297.187816419018));
#934=CARTESIAN_POINT('',(0.126710052061391,175.697511135552,-297.221017841268));
#935=CARTESIAN_POINT('',(0.989202333257229,175.715554971709,-297.221033062298));
#936=CARTESIAN_POINT('',(0.126710057313357,175.697511112114,-297.221017846747));
#937=CARTESIAN_POINT('',(0.126710051963608,175.697511135532,-297.221017840398));
#938=CARTESIAN_POINT('',(-0.503407900142129,175.573500843546,-297.294539311295));
#939=CARTESIAN_POINT('',(-1.56477260192172,174.865739709078,-297.750014405588));
#940=CARTESIAN_POINT('',(-2.1178363726566,173.068470030647,-298.519304923857));
#941=CARTESIAN_POINT('',(-1.26632565044206,171.222388934048,-298.86347819153));
#942=CARTESIAN_POINT('',(0.66658046743842,170.486501944247,-298.877351732944));
#943=CARTESIAN_POINT('',(2.56924478861002,171.302241167472,-298.863731800763));
#944=CARTESIAN_POINT('',(3.34237639933892,173.187924629277,-298.517893228011));
#945=CARTESIAN_POINT('',(2.71107277617693,174.956902929557,-297.748827290128));
#946=CARTESIAN_POINT('',(1.6244016510487,175.617937984662,-297.294627857843));
#947=CARTESIAN_POINT('',(0.98920234202144,175.715554990865,-297.221032956288));
#948=CARTESIAN_POINT('',(-1.37850659983192,174.760473084297,-311.268647167043));
#949=CARTESIAN_POINT('',(-1.2445622393566,174.936128184267,-311.674549664097));
#950=CARTESIAN_POINT('',(-0.809639246884541,175.423211785328,-312.370876870033));
#951=CARTESIAN_POINT('',(0.547841697360985,175.888648129178,-312.740435736029));
#952=CARTESIAN_POINT('',(1.93080908047949,175.485628206395,-312.376781936231));
#953=CARTESIAN_POINT('',(2.39083655211957,175.012511118,-311.675102796883));
#954=CARTESIAN_POINT('',(2.53221601484576,174.842380232308,-311.268621925912));
#955=CARTESIAN_POINT('',(-1.37850648084385,174.760473132375,-311.268647106972));
#956=CARTESIAN_POINT('',(2.53221597430588,174.842380272931,-311.268621894367));
#957=CARTESIAN_POINT('',(2.53221604247768,174.84238024865,-311.268621928231));
#958=CARTESIAN_POINT('',(2.72744727963262,174.607446101999,-310.707136027862));
#959=CARTESIAN_POINT('',(3.05939488255077,174.037737468082,-309.629802816441));
#960=CARTESIAN_POINT('',(3.19972768385347,172.818082883108,-308.112855915345));
#961=CARTESIAN_POINT('',(2.64393294996469,171.591835593611,-307.121135733404));
#962=CARTESIAN_POINT('',(1.6215388771341,170.892627770952,-306.684112200085));
#963=CARTESIAN_POINT('',(0.6667648923912,170.682270833417,-306.572351984626));
#964=CARTESIAN_POINT('',(-0.295509230398753,170.84944264035,-306.682305603764));
#965=CARTESIAN_POINT('',(-1.3490328922947,171.502151269241,-307.116784528367));
#966=CARTESIAN_POINT('',(-1.95849712901961,172.702455961092,-308.106134249236));
#967=CARTESIAN_POINT('',(-1.87510243937988,173.924985903213,-309.614498686044));
#968=CARTESIAN_POINT('',(-1.5639857870596,174.517234926414,-310.706383719184));
#969=CARTESIAN_POINT('',(-1.37850658041021,174.760473012032,-311.268647202125));
#970=CARTESIAN_POINT('',(13.7588417225982,179.659818368397,-281.581854682652));
#971=CARTESIAN_POINT('',(2.49840911107641,181.310978512915,-297.243379840056));
#972=CARTESIAN_POINT('',(2.37738866924311,180.485654249606,-296.687919745865));
#973=CARTESIAN_POINT('',(2.29613110271664,178.492599968465,-296.086273568659));
#974=CARTESIAN_POINT('',(2.77659559024001,176.556008999017,-296.688254490973));
#975=CARTESIAN_POINT('',(3.06736480942733,175.759050012831,-297.221057024656));
#976=CARTESIAN_POINT('',(2.49840910598465,181.310978510757,-297.243379844372));
#977=CARTESIAN_POINT('',(3.06736480948867,175.759050012663,-297.221057024777));
#978=CARTESIAN_POINT('',(3.067364809424,175.75905001284,-297.221057024671));
#979=CARTESIAN_POINT('',(3.19767890723816,175.401876748179,-297.459843240431));
#980=CARTESIAN_POINT('',(3.35075710944968,175.037777576368,-297.670047602373));
#981=CARTESIAN_POINT('',(3.53037872155979,174.669606250156,-297.853818048619));
#982=CARTESIAN_POINT('',(3.53037872161777,174.669606250027,-297.853818048683));
#983=CARTESIAN_POINT('',(3.53037872167788,174.669606249904,-281.581854682052));
#984=CARTESIAN_POINT('',(3.53037872167803,174.669606249905,-310.84170389059));
#985=CARTESIAN_POINT('',(3.53037872240784,174.66960624992,-310.841703890662));
#986=CARTESIAN_POINT('',(3.49770049211061,174.736586983722,-310.982013945932));
#987=CARTESIAN_POINT('',(3.46732699261788,174.800509357055,-311.124263497162));
#988=CARTESIAN_POINT('',(3.43908316038468,174.861250295833,-311.268325777662));
#989=CARTESIAN_POINT('',(3.43908315992085,174.861250295828,-311.268325777662));
#990=CARTESIAN_POINT('',(3.43908315992085,174.861250295828,-311.268325777662));
#991=CARTESIAN_POINT('',(3.29283861044358,175.175762545918,-312.014269994237));
#992=CARTESIAN_POINT('',(2.83846944539194,176.219295927718,-313.255677394257));
#993=CARTESIAN_POINT('',(2.32583561574682,178.633878390341,-313.958642741044));
#994=CARTESIAN_POINT('',(2.40260161734107,181.065898719507,-313.110298201004));
#995=CARTESIAN_POINT('',(2.63018071499854,182.057591054239,-311.7517317292));
#996=CARTESIAN_POINT('',(2.6932163219198,182.319819654208,-310.974593692257));
#997=CARTESIAN_POINT('',(2.69321632170957,182.31981965421,-310.974593692238));
#998=CARTESIAN_POINT('',(2.69321632149877,182.31981965421,-310.974593692222));
#999=CARTESIAN_POINT('',(2.713868856061,182.405734353654,-310.719977754532));
#1000=CARTESIAN_POINT('',(2.73800744606089,182.501809945346,-310.469312967082));
#1001=CARTESIAN_POINT('',(2.76642006335539,182.607756362918,-310.223130077152));
#1002=CARTESIAN_POINT('',(2.76642006360541,182.607756362923,-310.223130077175));
#1003=CARTESIAN_POINT('',(2.76642006360526,182.607756362923,-281.581854682052));
#1004=CARTESIAN_POINT('',(2.76641920247864,182.607753151917,-297.981679637344));
#1005=CARTESIAN_POINT('',(2.76641834135824,182.607749940911,-297.981679637344));
#1006=CARTESIAN_POINT('',(2.64687325401287,182.161983076612,-297.770274588316));
#1007=CARTESIAN_POINT('',(2.5597006587664,181.728969044246,-297.524718595747));
#1008=CARTESIAN_POINT('',(2.49840911420474,181.310978512201,-297.243379840566));
#1009=CARTESIAN_POINT('',(0.400037869243443,183.242370663277,-321.377738496352));
#1010=CARTESIAN_POINT('',(0.124707697643754,181.26141293435,-297.243485486568));
#1011=CARTESIAN_POINT('',(0.33630749005246,181.232003014944,-297.220636891137));
#1012=CARTESIAN_POINT('',(0.547207863493362,181.236383952676,-297.220613263393));
#1013=CARTESIAN_POINT('',(0.757408767567528,181.274558161784,-297.243412523793));
#1014=CARTESIAN_POINT('',(0.12470772626572,181.261413016921,-297.243485645353));
#1015=CARTESIAN_POINT('',(0.757408762949278,181.274558191905,-297.243412545655));
#1016=CARTESIAN_POINT('',(0.757408768985505,181.274558176562,-297.243412515694));
#1017=CARTESIAN_POINT('',(1.27079782387039,181.367793842917,-297.299099185921));
#1018=CARTESIAN_POINT('',(2.13641651763664,181.938885936422,-297.673542217027));
#1019=CARTESIAN_POINT('',(2.57906565433193,183.366692588339,-298.357981462001));
#1020=CARTESIAN_POINT('',(1.92117620026651,184.843696389798,-298.766306832198));
#1021=CARTESIAN_POINT('',(0.35441767975814,185.457179394251,-298.852297036922));
#1022=CARTESIAN_POINT('',(-1.18794560750286,184.779219591338,-298.766662452476));
#1023=CARTESIAN_POINT('',(-1.78259053880137,183.269472996499,-298.355827190832));
#1024=CARTESIAN_POINT('',(-1.27842210023728,181.867336122408,-297.673198587579));
#1025=CARTESIAN_POINT('',(-0.392561813682886,181.333307458117,-297.299338004602));
#1026=CARTESIAN_POINT('',(0.124707713781733,181.26141298945,-297.243485454216));
#1027=CARTESIAN_POINT('',(2.1687659975701,182.308774964476,-310.97476938461));
#1028=CARTESIAN_POINT('',(2.08899456519039,182.157645330451,-311.419876806501));
#1029=CARTESIAN_POINT('',(1.87654894309489,181.801034817046,-312.030539210271));
#1030=CARTESIAN_POINT('',(1.15960944724333,181.349368898531,-312.510847771331));
#1031=CARTESIAN_POINT('',(0.449253629060679,181.198414315737,-312.635384724128));
#1032=CARTESIAN_POINT('',(-0.267626090952786,181.314672841855,-312.515474648532));
#1033=CARTESIAN_POINT('',(-1.01220761553479,181.735985514718,-312.03733237819));
#1034=CARTESIAN_POINT('',(-1.2416897630742,182.087327666375,-311.421436524379));
#1035=CARTESIAN_POINT('',(-1.32800537049069,182.235461252451,-310.97496838205));
#1036=CARTESIAN_POINT('',(2.16876594738921,182.308774936556,-310.974769366137));
#1037=CARTESIAN_POINT('',(-1.3280053584048,182.235461242018,-310.974968376079));
#1038=CARTESIAN_POINT('',(-1.32800539487907,182.235461260356,-310.974968389208));
#1039=CARTESIAN_POINT('',(-1.42402782681222,182.400253560661,-310.478063818866));
#1040=CARTESIAN_POINT('',(-1.59696813706111,182.8055473673,-309.51677169545));
#1041=CARTESIAN_POINT('',(-1.63552214671316,183.652274449692,-308.158858901103));
#1042=CARTESIAN_POINT('',(-1.23888978473079,184.534620891669,-307.176006829165));
#1043=CARTESIAN_POINT('',(-0.45841658134095,185.103813838232,-306.667806009523));
#1044=CARTESIAN_POINT('',(0.338251126269392,185.298328131485,-306.517943918236));
#1045=CARTESIAN_POINT('',(1.1486146129281,185.151785330423,-306.65538305385));
#1046=CARTESIAN_POINT('',(1.97118002981485,184.619589500831,-307.158104303448));
#1047=CARTESIAN_POINT('',(2.41418168190824,183.752436267242,-308.137234171709));
#1048=CARTESIAN_POINT('',(2.41517002118528,182.891724904589,-309.510908717034));
#1049=CARTESIAN_POINT('',(2.25828044741465,182.478363138059,-310.475190521064));
#1050=CARTESIAN_POINT('',(2.16876597991755,182.308774995704,-310.974769404284));
#1051=CARTESIAN_POINT('',(-25.3402913745976,177.939686830968,-309.701758743852));
#1052=CARTESIAN_POINT('',(-25.2632134021537,174.260022890507,-311.268325777662));
#1053=CARTESIAN_POINT('',(-2.38011697823008,174.739581933832,-311.268857611108));
#1054=CARTESIAN_POINT('',(-1.95028706460571,182.222552124262,-310.974593691788));
#1055=CARTESIAN_POINT('',(-1.92494556954442,181.963480421337,-311.747842703727));
#1056=CARTESIAN_POINT('',(-1.8327532160336,180.980936170939,-313.104304571249));
#1057=CARTESIAN_POINT('',(-1.82305571784941,178.574459567464,-313.953729853138));
#1058=CARTESIAN_POINT('',(-2.08930241511767,176.140150427526,-313.276947637463));
#1059=CARTESIAN_POINT('',(-2.31119619844487,175.05938691062,-312.016347544439));
#1060=CARTESIAN_POINT('',(-2.3801169836823,174.739581901808,-311.268857625312));
#1061=CARTESIAN_POINT('',(-1.9502870645334,182.222552124267,-310.974593692017));
#1062=CARTESIAN_POINT('',(-25.4197067620076,181.730937863337,-310.974593692222));
#1063=CARTESIAN_POINT('',(-25.4197067620076,181.730937863337,-310.974593692222));
#1064=CARTESIAN_POINT('',(-25.2632134021537,174.260022890507,-311.268325777662));
#1065=CARTESIAN_POINT('',(-25.0705184734931,165.060863039309,-315.184743362152));
#1066=CARTESIAN_POINT('',(-2.54547568233022,174.024863636956,-309.901306181812));
#1067=CARTESIAN_POINT('',(-2.63116783734976,173.67838986897,-309.347540469665));
#1068=CARTESIAN_POINT('',(-2.71382520523943,172.889987905282,-308.316061805372));
#1069=CARTESIAN_POINT('',(-2.24496933310708,171.395953894717,-307.007721434747));
#1070=CARTESIAN_POINT('',(-0.827574206705389,170.106857041382,-306.258306847838));
#1071=CARTESIAN_POINT('',(1.25604535254121,169.840850292303,-306.124579135271));
#1072=CARTESIAN_POINT('',(3.04433408363528,170.829346239071,-306.583291829628));
#1073=CARTESIAN_POINT('',(3.86156187561925,172.371777541386,-307.674121678048));
#1074=CARTESIAN_POINT('',(3.89510513003486,173.721583249407,-309.14693888484));
#1075=CARTESIAN_POINT('',(3.66615349740156,174.391308005865,-310.258729656216));
#1076=CARTESIAN_POINT('',(3.53037872167748,174.669606249905,-310.84170389059));
#1077=CARTESIAN_POINT('',(-2.54547568233022,174.024863636956,-309.901306181812));
#1078=CARTESIAN_POINT('',(-2.38011699522804,174.739581848234,-311.268857649276));
#1079=CARTESIAN_POINT('',(-2.42393230425497,174.536270828376,-310.793385808321));
#1080=CARTESIAN_POINT('',(-2.47797267626825,174.297794348722,-310.337528730068));
#1081=CARTESIAN_POINT('',(-2.54547568230572,174.024863637067,-309.901306181989));
#1082=CARTESIAN_POINT('',(0.609462068077196,173.244563828528,-281.581854682652));
#1083=CARTESIAN_POINT('',(3.53037872142887,174.669606250022,-297.853818048492));
#1084=CARTESIAN_POINT('',(3.74416965655558,174.231397889816,-298.072547048197));
#1085=CARTESIAN_POINT('',(3.97932899020141,173.251906880662,-298.474038334098));
#1086=CARTESIAN_POINT('',(3.61280803656557,171.690879155421,-298.818598350901));
#1087=CARTESIAN_POINT('',(2.52852640987315,170.458634673749,-298.898549890058));
#1088=CARTESIAN_POINT('',(0.993855592593247,169.884631173994,-298.882996394537));
#1089=CARTESIAN_POINT('',(-0.629020222624856,170.09679377351,-298.894021630682));
#1090=CARTESIAN_POINT('',(-1.96569214610134,171.051613329276,-298.87263172813));
#1091=CARTESIAN_POINT('',(-2.68410292016244,172.5054600162,-298.642122910512));
#1092=CARTESIAN_POINT('',(-2.66426714511167,173.54456625742,-298.294552896204));
#1093=CARTESIAN_POINT('',(-2.54547387857392,174.024870929949,-298.091418057274));
#1094=CARTESIAN_POINT('',(-2.54547387851267,174.024870929935,-298.091418057277));
#1095=CARTESIAN_POINT('',(-2.54547568233036,174.024863636956,-281.581854682052));
#1096=CARTESIAN_POINT('',(-25.1663751443683,169.637012713354,-288.888854124952));
#1097=CARTESIAN_POINT('',(-25.2821744072543,175.165211820177,-297.221057024882));
#1098=CARTESIAN_POINT('',(-2.20213683122422,175.649407436982,-297.220567739951));
#1099=CARTESIAN_POINT('',(-2.54547387858322,174.024870929951,-298.091418057273));
#1100=CARTESIAN_POINT('',(-2.40598950739986,174.588840172786,-297.852899020158));
#1101=CARTESIAN_POINT('',(-2.29330111911038,175.131073230848,-297.563267561821));
#1102=CARTESIAN_POINT('',(-2.20213683854536,175.649407327978,-297.220567573136));
#1103=CARTESIAN_POINT('',(-25.2821744072543,175.165211820177,-297.221057024882));
#1104=CARTESIAN_POINT('',(-25.3400726537059,177.929245204647,-301.387058743852));
#1105=CARTESIAN_POINT('',(-25.3986714144133,180.726720857265,-297.243449298202));
#1106=CARTESIAN_POINT('',(-25.3986714144133,180.726720857265,-297.243449298202));
#1107=CARTESIAN_POINT('',(-1.87310214411401,181.219511284171,-297.243449298298));
#1108=CARTESIAN_POINT('',(-2.20213682737158,175.649407391508,-297.220567672159));
#1109=CARTESIAN_POINT('',(-2.05759404324823,176.471236447878,-296.677523089027));
#1110=CARTESIAN_POINT('',(-1.8122962124394,178.413917455898,-296.092441490195));
#1111=CARTESIAN_POINT('',(-1.82681844302877,180.395249753719,-296.686310948049));
#1112=CARTESIAN_POINT('',(-1.87310214411953,181.21951128427,-297.243449298382));
#1113=CARTESIAN_POINT('',(-25.5158717435497,186.321806101465,-288.956032016952));
#1114=CARTESIAN_POINT('',(-2.04942480525909,183.191061734601,-298.277229568065));
#1115=CARTESIAN_POINT('',(-2.06352255223097,183.864081146498,-298.538770614774));
#1116=CARTESIAN_POINT('',(-1.4938168941658,185.275723774316,-298.872008521545));
#1117=CARTESIAN_POINT('',(0.769666539896603,186.009899917626,-298.913110635597));
#1118=CARTESIAN_POINT('',(2.74783978437477,184.7113262512,-298.778144047446));
#1119=CARTESIAN_POINT('',(2.93647704443964,183.241869505453,-298.282410759283));
#1120=CARTESIAN_POINT('',(2.76641906020498,182.60775262141,-297.981680908571));
#1121=CARTESIAN_POINT('',(-2.04942480527014,183.191061734563,-298.277229568092));
#1122=CARTESIAN_POINT('',(-2.03025945670989,182.932282117273,-298.172362122392));
#1123=CARTESIAN_POINT('',(-2.04118937861968,183.017944616991,-298.208519627472));
#1124=CARTESIAN_POINT('',(-2.0476076959219,183.104313839322,-298.243518600872));
#1125=CARTESIAN_POINT('',(-2.0494248052901,183.191061734562,-298.277229568072));
#1126=CARTESIAN_POINT('',(-2.03025945682483,182.93228211727,-298.172362122373));
#1127=CARTESIAN_POINT('',(-1.8731021444118,181.219511284159,-297.243449298636));
#1128=CARTESIAN_POINT('',(-1.90354372768841,181.761642216526,-297.609888738135));
#1129=CARTESIAN_POINT('',(-1.95377734669709,182.332858918946,-297.91935004106));
#1130=CARTESIAN_POINT('',(-2.03025945693674,182.932282117277,-298.172362122359));
#1131=CARTESIAN_POINT('',(0.400037869243188,183.242370663276,-281.581854682652));
#1132=CARTESIAN_POINT('',(2.76642006360383,182.607756362923,-310.223130077175));
#1133=CARTESIAN_POINT('',(2.81613565994638,182.793138416087,-309.792366200167));
#1134=CARTESIAN_POINT('',(2.88523331234378,183.218125860232,-308.966654313247));
#1135=CARTESIAN_POINT('',(2.77767037966799,184.033947217104,-307.806669552966));
#1136=CARTESIAN_POINT('',(2.278501910182,184.957969696525,-306.820453214934));
#1137=CARTESIAN_POINT('',(1.16074744607943,185.718584175192,-306.189967140192));
#1138=CARTESIAN_POINT('',(-0.362177630733278,185.721279149057,-306.165380023596));
#1139=CARTESIAN_POINT('',(-1.49830857282032,184.941769684411,-306.763850177165));
#1140=CARTESIAN_POINT('',(-1.9924584922689,183.994245689957,-307.733748122771));
#1141=CARTESIAN_POINT('',(-2.05458284382622,183.437303923489,-308.505674035185));
#1142=CARTESIAN_POINT('',(-2.04942480527013,183.191061734567,-308.904754165094));
#1143=CARTESIAN_POINT('',(-2.04942480528001,183.191061734562,-308.904754165092));
#1144=CARTESIAN_POINT('',(-2.04942480528999,183.191061734562,-308.904754165082));
#1145=CARTESIAN_POINT('',(-2.04753698956092,183.100938352905,-309.050815451392));
#1146=CARTESIAN_POINT('',(-2.04076743437658,183.014637658474,-309.199267154522));
#1147=CARTESIAN_POINT('',(-2.03025945670978,182.932282117273,-309.349875188542));
#1148=CARTESIAN_POINT('',(-2.0302594569397,182.932282117268,-309.349875188558));
#1149=CARTESIAN_POINT('',(-2.03025945693984,182.932282117268,-281.581854682052));
#1150=CARTESIAN_POINT('',(-25.6182452329825,191.209065444222,-314.156681063152));
#1151=CARTESIAN_POINT('',(-2.0302594569397,182.932282117268,-309.349875188558));
#1152=CARTESIAN_POINT('',(-1.99396585381597,182.647833537132,-309.870061697056));
#1153=CARTESIAN_POINT('',(-1.96873588844618,182.411158527183,-310.411661835754));
#1154=CARTESIAN_POINT('',(-1.95028706453396,182.222552124272,-310.97459369202));
#1155=CARTESIAN_POINT('',(-26.1283609346414,179.857536830617,-281.581854682652));
#1156=CARTESIAN_POINT('',(-1.83325141137436,180.936885105529,-307.138432480252));
#1157=CARTESIAN_POINT('',(-1.93586722042614,182.018001078884,-309.702114897764));
#1158=CARTESIAN_POINT('',(-1.83336717259297,180.937239171428,-312.263414987702));
#1159=CARTESIAN_POINT('',(-1.82549353505067,178.369090481363,-313.296133169088));
#1160=CARTESIAN_POINT('',(-2.14673849634873,175.819335482573,-312.257912451208));
#1161=CARTESIAN_POINT('',(-2.38457050859243,174.740390145898,-309.703346123815));
#1162=CARTESIAN_POINT('',(-2.14762517597506,175.814765775931,-307.150924282605));
#1163=CARTESIAN_POINT('',(-1.82571763332883,178.363527338837,-306.106490220647));
#1164=CARTESIAN_POINT('',(-1.83325141137436,180.936885105529,-307.138432480252));
#1165=CARTESIAN_POINT('',(-1.93586722042614,182.018001078884,-309.702114897764));
#1166=CARTESIAN_POINT('',(-1.83336717259297,180.937239171428,-312.263414987702));
#1167=CARTESIAN_POINT('',(-1.90168124427865,181.657688098749,-309.701717843168));
#1168=CARTESIAN_POINT('',(-2.27658249844392,175.226687027154,-303.24220851103));
#1169=CARTESIAN_POINT('',(-2.37609022251179,174.758998164319,-301.844662556644));
#1170=CARTESIAN_POINT('',(-2.34902574145358,174.882771282112,-300.387632351114));
#1171=CARTESIAN_POINT('',(-2.22107686372077,175.513140967226,-299.093363794668));
#1172=CARTESIAN_POINT('',(-2.04258233933851,176.603579432649,-298.149408738182));
#1173=CARTESIAN_POINT('',(-1.89308596555569,177.979527228586,-297.672072232652));
#1174=CARTESIAN_POINT('',(-1.82473409917696,179.431720914586,-297.773760846928));
#1175=CARTESIAN_POINT('',(-1.84211460257583,180.751450436194,-298.411932511327));
#1176=CARTESIAN_POINT('',(-1.90190018871156,181.706203725601,-299.513127667943));
#1177=CARTESIAN_POINT('',(-1.9469218179586,182.18729608898,-300.902850735604));
#1178=CARTESIAN_POINT('',(-1.93611010117064,182.079953076347,-302.360763466189));
#1179=CARTESIAN_POINT('',(-1.8808690635621,181.43544791355,-303.681527817547));
#1180=CARTESIAN_POINT('',(-1.8283060816332,180.330146877258,-304.631050140975));
#1181=CARTESIAN_POINT('',(-1.83763429380056,178.94254298995,-305.105296057081));
#1182=CARTESIAN_POINT('',(-1.93623844585494,177.494365663151,-304.995008236014));
#1183=CARTESIAN_POINT('',(-2.1042075738791,176.188560302775,-304.35633880562));
#1184=CARTESIAN_POINT('',(-2.27658249844392,175.226687027154,-303.24220851103));
#1185=CARTESIAN_POINT('',(-2.37609022251179,174.758998164319,-301.844662556644));
#1186=CARTESIAN_POINT('',(-2.34902574145358,174.882771282112,-300.387632351114));
#1187=CARTESIAN_POINT('',(-2.35616410067527,174.852018766045,-301.78570891184));
#1188=CARTESIAN_POINT('',(-2.56439086453263,178.471663828528,-301.387058743852));
#1189=CARTESIAN_POINT('',(-1.56439086453263,178.471663828528,-301.387058743852));
#1190=CARTESIAN_POINT('',(-1.56439114185069,177.343622479821,-304.433073806174));
#1191=CARTESIAN_POINT('',(-1.56439074133349,177.337297084614,-298.342740858914));
#1192=CARTESIAN_POINT('',(-1.56439086063419,177.336844454533,-298.341621995469));
#1193=CARTESIAN_POINT('',(-1.59653069527907,177.026358956228,-298.457318031188));
#1194=CARTESIAN_POINT('',(-1.66128855731573,176.443211181006,-298.779815179359));
#1195=CARTESIAN_POINT('',(-1.77924290190696,175.744276803191,-299.53263814227));
#1196=CARTESIAN_POINT('',(-1.84642871544106,175.409115501615,-300.224502019894));
#1197=CARTESIAN_POINT('',(-1.87247963470972,175.248234217438,-300.864515991792));
#1198=CARTESIAN_POINT('',(-1.87984074059836,175.21030492588,-301.416228244848));
#1199=CARTESIAN_POINT('',(-1.87380173824185,175.240539433264,-301.813046586429));
#1200=CARTESIAN_POINT('',(-1.85385317464736,175.336464956344,-302.289619935058));
#1201=CARTESIAN_POINT('',(-1.82151575232669,175.508612507869,-302.759231997758));
#1202=CARTESIAN_POINT('',(-1.77121611422553,175.794997623367,-303.255987241877));
#1203=CARTESIAN_POINT('',(-1.7237269860493,176.099321471182,-303.625305139741));
#1204=CARTESIAN_POINT('',(-1.65573698055282,176.594407123592,-304.077643621884));
#1205=CARTESIAN_POINT('',(-1.60185711971291,177.032403653371,-304.319755641485));
#1206=CARTESIAN_POINT('',(-1.56439086425609,177.342971341559,-304.434771537056));
#1207=CARTESIAN_POINT('',(-1.56439086453263,178.249117757972,-301.387058743852));
#1208=CARTESIAN_POINT('',(-1.56439086453254,177.344399791396,-304.43144026603));
#1209=CARTESIAN_POINT('',(-1.56439086453256,177.852613659315,-304.673271189925));
#1210=CARTESIAN_POINT('',(-1.56439086453261,178.907797295151,-304.869438880017));
#1211=CARTESIAN_POINT('',(-1.5643908645327,180.480899957741,-304.266341130478));
#1212=CARTESIAN_POINT('',(-1.56439086453276,181.532960471659,-302.995593129611));
#1213=CARTESIAN_POINT('',(-1.5643908645328,181.898904004205,-301.377341043296));
#1214=CARTESIAN_POINT('',(-1.56439086453281,181.594687267888,-300.053972288017));
#1215=CARTESIAN_POINT('',(-1.56439086453279,180.994467186537,-299.123034873931));
#1216=CARTESIAN_POINT('',(-1.56439086453276,180.226489792049,-298.411237699226));
#1217=CARTESIAN_POINT('',(-1.56439086453271,178.905386539287,-297.909465457116));
#1218=CARTESIAN_POINT('',(-1.56439086453265,177.83635731033,-298.101043968334));
#1219=CARTESIAN_POINT('',(-1.56439086453262,177.337647954148,-298.343462675812));
#1220=CARTESIAN_POINT('',(-0.564390864532627,178.249117757972,-301.387058743852));
#1221=CARTESIAN_POINT('',(-2.11158314363395,175.946476705504,-304.541169810381));
#1222=CARTESIAN_POINT('',(-2.44727183798237,174.458577122682,-301.832065570688));
#1223=CARTESIAN_POINT('',(-2.23631410848822,175.331327400038,-298.844821377905));
#1224=CARTESIAN_POINT('',(-1.83692030263319,178.018199564369,-297.371980150293));
#1225=CARTESIAN_POINT('',(-1.82185890145658,180.997311190763,-298.224052334187));
#1226=CARTESIAN_POINT('',(-1.98340653405125,182.492795495822,-300.945359617496));
#1227=CARTESIAN_POINT('',(-1.87521080712743,181.620917616821,-303.930396736273));
#1228=CARTESIAN_POINT('',(-1.78652466948577,178.894526627986,-305.407057335234));
#1229=CARTESIAN_POINT('',(-2.11158314363395,175.946476705504,-304.541169810381));
#1230=CARTESIAN_POINT('',(-2.44727183798237,174.458577122682,-301.832065570688));
#1231=CARTESIAN_POINT('',(-2.23631410848822,175.331327400038,-298.844821377905));
#1232=CARTESIAN_POINT('',(-1.96763171759563,176.020802747537,-304.411896530448));
#1233=CARTESIAN_POINT('',(-2.28031774260388,174.608576247566,-301.810292890039));
#1234=CARTESIAN_POINT('',(-2.08442712435506,175.433278295564,-298.956283262466));
#1235=CARTESIAN_POINT('',(-1.70735528227702,178.02298312962,-297.514680801016));
#1236=CARTESIAN_POINT('',(-1.68715754717207,180.912719089463,-298.34310401155));
#1237=CARTESIAN_POINT('',(-1.83369246778176,182.343389253052,-300.964362556758));
#1238=CARTESIAN_POINT('',(-1.73545456147222,181.512090858014,-303.829908335746));
#1239=CARTESIAN_POINT('',(-1.65845246026443,178.874780949243,-305.266354076556));
#1240=CARTESIAN_POINT('',(-1.96763171759563,176.020802747537,-304.411896530448));
#1241=CARTESIAN_POINT('',(-2.28031774260388,174.608576247566,-301.810292890039));
#1242=CARTESIAN_POINT('',(-2.08442712435506,175.433278295564,-298.956283262466));
#1243=CARTESIAN_POINT('',(-1.8236802915573,176.095128789569,-304.282623250516));
#1244=CARTESIAN_POINT('',(-2.11336364722539,174.75857537245,-301.78852020939));
#1245=CARTESIAN_POINT('',(-1.9325401402219,175.535229191089,-299.067745147027));
#1246=CARTESIAN_POINT('',(-1.57779026192086,178.027766694871,-297.65738145174));
#1247=CARTESIAN_POINT('',(-1.55245619288755,180.828126988163,-298.462155688914));
#1248=CARTESIAN_POINT('',(-1.68397840151227,182.193983010282,-300.98336549602));
#1249=CARTESIAN_POINT('',(-1.59569831581701,181.403264099207,-303.72941993522));
#1250=CARTESIAN_POINT('',(-1.53038025104308,178.8550352705,-305.125650817877));
#1251=CARTESIAN_POINT('',(-1.8236802915573,176.095128789569,-304.282623250516));
#1252=CARTESIAN_POINT('',(-2.11336364722539,174.75857537245,-301.78852020939));
#1253=CARTESIAN_POINT('',(-1.9325401402219,175.535229191089,-299.067745147027));
#1254=CARTESIAN_POINT('',(-1.67972886551898,176.169454831601,-304.153349970583));
#1255=CARTESIAN_POINT('',(-1.9464095518469,174.908574497335,-301.766747528741));
#1256=CARTESIAN_POINT('',(-1.78065315608874,175.637180086615,-299.179207031587));
#1257=CARTESIAN_POINT('',(-1.4482252415647,178.032550260122,-297.800082102463));
#1258=CARTESIAN_POINT('',(-1.41775483860303,180.743534886863,-298.581207366277));
#1259=CARTESIAN_POINT('',(-1.53426433524279,182.044576767513,-301.002368435281));
#1260=CARTESIAN_POINT('',(-1.45594207016179,181.2944373404,-303.628931534693));
#1261=CARTESIAN_POINT('',(-1.40230804182174,178.835289591757,-304.984947559199));
#1262=CARTESIAN_POINT('',(-1.67972886551898,176.169454831601,-304.153349970583));
#1263=CARTESIAN_POINT('',(-1.9464095518469,174.908574497335,-301.766747528741));
#1264=CARTESIAN_POINT('',(-1.78065315608874,175.637180086615,-299.179207031587));
#1265=CARTESIAN_POINT('',(-2.3101445568059,175.094595922485,-310.566519392113));
#1266=CARTESIAN_POINT('',(-2.31015215499341,175.094557894968,-308.837140226263));
#1267=CARTESIAN_POINT('',(-2.23238138773982,175.458558072627,-307.986419732889));
#1268=CARTESIAN_POINT('',(-2.04034894192642,176.674653492687,-306.792735628793));
#1269=CARTESIAN_POINT('',(-1.93691229497942,177.515686349583,-306.450728989851));
#1270=CARTESIAN_POINT('',(-1.83223394939994,179.219464232582,-306.444976440553));
#1271=CARTESIAN_POINT('',(-1.83204609873623,180.073299304554,-306.785495260002));
#1272=CARTESIAN_POINT('',(-1.87391864739376,181.30008281846,-307.9860476977));
#1273=CARTESIAN_POINT('',(-1.90592974447643,181.662278109748,-308.83866992504));
#1274=CARTESIAN_POINT('',(-1.9059313728913,181.662299980836,-310.564765637056));
#1275=CARTESIAN_POINT('',(-1.87393533257961,181.300261306898,-311.41707927999));
#1276=CARTESIAN_POINT('',(-1.8320580228579,180.073958800686,-312.617592523502));
#1277=CARTESIAN_POINT('',(-1.83207988136366,179.222504129176,-312.958313445018));
#1278=CARTESIAN_POINT('',(-1.93695276450053,177.514495994404,-312.953022087249));
#1279=CARTESIAN_POINT('',(-2.04045964066496,176.674047038724,-312.609891545864));
#1280=CARTESIAN_POINT('',(-2.23208863002929,175.460317552194,-311.419119564276));
#1281=CARTESIAN_POINT('',(-2.3101445568059,175.094595922485,-310.566519392113));
#1282=CARTESIAN_POINT('',(-2.31015215499341,175.094557894968,-308.837140226263));
#1283=CARTESIAN_POINT('',(-2.30543728137402,175.099295346775,-310.565040571428));
#1284=CARTESIAN_POINT('',(-2.30544486243572,175.099257391092,-308.838618803891));
#1285=CARTESIAN_POINT('',(-2.22785212014059,175.462543670989,-307.989292366491));
#1286=CARTESIAN_POINT('',(-2.03619159543051,176.676709423165,-306.797217773354));
#1287=CARTESIAN_POINT('',(-1.9329246544468,177.516592001951,-306.455501327075));
#1288=CARTESIAN_POINT('',(-1.8283523936401,179.218205627654,-306.449606116972));
#1289=CARTESIAN_POINT('',(-1.82810082895377,180.070976286523,-306.789696072043));
#1290=CARTESIAN_POINT('',(-1.86977817874913,181.296063952689,-307.988612928631));
#1291=CARTESIAN_POINT('',(-1.90168043298929,181.657677180307,-308.839978800723));
#1292=CARTESIAN_POINT('',(-1.901682055568,181.657699017191,-310.563456885613));
#1293=CARTESIAN_POINT('',(-1.86979480907999,181.296242157987,-311.414514604746));
#1294=CARTESIAN_POINT('',(-1.82811267457701,180.07163490738,-312.613392273214));
#1295=CARTESIAN_POINT('',(-1.82819844076137,179.2212416954,-312.953684290759));
#1296=CARTESIAN_POINT('',(-1.9329651238908,177.515403126239,-312.948249383019));
#1297=CARTESIAN_POINT('',(-2.03630206368382,176.676104018185,-312.605410712471));
#1298=CARTESIAN_POINT('',(-2.22755994550482,175.464300272066,-311.416244093951));
#1299=CARTESIAN_POINT('',(-2.30543728137402,175.099295346775,-310.565040571428));
#1300=CARTESIAN_POINT('',(-2.30544486243572,175.099257391092,-308.838618803891));
#1301=CARTESIAN_POINT('',(-1.83470973818588,175.569237775732,-310.417158502937));
#1302=CARTESIAN_POINT('',(-1.83471560666733,175.569207003466,-308.986476566723));
#1303=CARTESIAN_POINT('',(-1.77492536021714,175.861103507157,-308.276555726705));
#1304=CARTESIAN_POINT('',(-1.62045694583934,176.882302471009,-307.245432229437));
#1305=CARTESIAN_POINT('',(-1.53416060118478,177.607157238694,-306.932735049514));
#1306=CARTESIAN_POINT('',(-1.44019681765614,179.092345134843,-306.912573758886));
#1307=CARTESIAN_POINT('',(-1.43357385070792,179.838674483386,-307.209777276109));
#1308=CARTESIAN_POINT('',(-1.45573131428564,180.894177375628,-308.245136021786));
#1309=CARTESIAN_POINT('',(-1.47674928427498,181.197584236154,-308.970866369074));
#1310=CARTESIAN_POINT('',(-1.47675032323857,181.197602652673,-310.432581741295));
#1311=CARTESIAN_POINT('',(-1.45574245911841,180.894327266855,-311.158047080403));
#1312=CARTESIAN_POINT('',(-1.43357784648854,179.839245576786,-312.193367244416));
#1313=CARTESIAN_POINT('',(-1.44005438053217,179.094998317817,-312.490768864949));
#1314=CARTESIAN_POINT('',(-1.534201062918,177.606116309661,-312.470978960029));
#1315=CARTESIAN_POINT('',(-1.6205443655696,176.881801964231,-312.157327373222));
#1316=CARTESIAN_POINT('',(-1.77469149305844,175.862572259223,-311.128697061435));
#1317=CARTESIAN_POINT('',(-1.83470973818588,175.569237775732,-310.417158502937));
#1318=CARTESIAN_POINT('',(-1.83471560666733,175.569207003466,-308.986476566723));
#1319=CARTESIAN_POINT('',(-1.45436188328985,175.948951258329,-310.297669791595));
#1320=CARTESIAN_POINT('',(-1.45436636800647,175.948926290263,-309.105945639091));
#1321=CARTESIAN_POINT('',(-1.40896053819898,176.18313985478,-308.508664521759));
#1322=CARTESIAN_POINT('',(-1.28454334896966,177.048421653667,-307.607589509953));
#1323=CARTESIAN_POINT('',(-1.21195924614907,177.680333949982,-307.318339897244));
#1324=CARTESIAN_POINT('',(-1.1265671122611,178.990649856651,-307.286651613552));
#1325=CARTESIAN_POINT('',(-1.11479605228527,179.650974626451,-307.549202888994));
#1326=CARTESIAN_POINT('',(-1.12118144779915,180.569453021362,-308.452406681055));
#1327=CARTESIAN_POINT('',(-1.13340491611381,180.825829137279,-309.076623524302));
#1328=CARTESIAN_POINT('',(-1.13340548351639,180.825844790143,-310.326834624685));
#1329=CARTESIAN_POINT('',(-1.12118816034945,180.569580034821,-310.950821320734));
#1330=CARTESIAN_POINT('',(-1.11479370539305,179.651474997667,-311.853987021148));
#1331=CARTESIAN_POINT('',(-1.12643397986697,178.99299366873,-312.116733200894));
#1332=CARTESIAN_POINT('',(-1.21199970165197,177.679412561866,-312.085344458254));
#1333=CARTESIAN_POINT('',(-1.28461214549331,177.048005904636,-311.795276035109));
#1334=CARTESIAN_POINT('',(-1.40877378348176,176.184376024846,-310.896359059161));
#1335=CARTESIAN_POINT('',(-1.45436188328985,175.948951258329,-310.297669791595));
#1336=CARTESIAN_POINT('',(-1.45436636800647,175.948926290263,-309.105945639091));
#1337=MECHANICAL_DESIGN_GEOMETRIC_PRESENTATION_REPRESENTATION('',(#596),
#1338);
#1338=(
GEOMETRIC_REPRESENTATION_CONTEXT(3)
GLOBAL_UNCERTAINTY_ASSIGNED_CONTEXT((#1339))
GLOBAL_UNIT_ASSIGNED_CONTEXT((#1342,#1341,#1340))
REPRESENTATION_CONTEXT('Î÷π«π«∏…-◊Ó∂Ã','TOP_LEVEL_ASSEMBLY_PART')
);
#1339=UNCERTAINTY_MEASURE_WITH_UNIT(LENGTH_MEASURE(0.005),#1342,
'DISTANCE_ACCURACY_VALUE','Maximum Tolerance applied to model');
#1340=(
NAMED_UNIT(*)
SI_UNIT($,.STERADIAN.)
SOLID_ANGLE_UNIT()
);
#1341=(
NAMED_UNIT(*)
PLANE_ANGLE_UNIT()
SI_UNIT($,.RADIAN.)
);
#1342=(
LENGTH_UNIT()
NAMED_UNIT(*)
SI_UNIT(.MILLI.,.METRE.)
);
#1343=PRODUCT_DEFINITION_SHAPE('','',#1344);
#1344=PRODUCT_DEFINITION('','',#1346,#1345);
#1345=PRODUCT_DEFINITION_CONTEXT('',#1352,'design');
#1346=PRODUCT_DEFINITION_FORMATION_WITH_SPECIFIED_SOURCE('','',#1348,
 .NOT_KNOWN.);
#1347=PRODUCT_RELATED_PRODUCT_CATEGORY('','',(#1348));
#1348=PRODUCT('Î÷π«π«∏…-◊Ó∂Ã','Î÷π«π«∏…-◊Ó∂Ã','Î÷π«π«∏…-◊Ó∂Ã',(#1350));
#1349=PRODUCT_CATEGORY('','');
#1350=PRODUCT_CONTEXT('',#1352,'mechanical');
#1351=APPLICATION_PROTOCOL_DEFINITION('international standard',
'automotive_design',2010,#1352);
#1352=APPLICATION_CONTEXT(
'core data for automotive mechanical design processes');
ENDSEC;
END-ISO-10303-21;
