ISO-10303-21;
HEADER;
/* Generated by software containing ST-Developer
 * from STEP Tools, Inc. (www.steptools.com) 
 */
/* OPTION: strings as raw bytes, not using required /X/ escapes */

FILE_DESCRIPTION(
/* description */ ('Unknown'),
/* implementation_level */ '2;1');

FILE_NAME(
/* name */ 'æ£’5',
/* time_stamp */ '2025-06-19T16:29:37+08:00',
/* author */ ('Unknown'),
/* organization */ ('Unknown'),
/* preprocessor_version */ 'ST-DEVELOPER v16.7',
/* originating_system */ 'DEX',
/* authorisation */ $);

FILE_SCHEMA (('AUTOMOTIVE_DESIGN {1 0 10303 214 3 1 1}'));
ENDSEC;

DATA;
#10=PROPERTY_DEFINITION_REPRESENTATION(#14,#12);
#11=PROPERTY_DEFINITION_REPRESENTATION(#15,#13);
#12=REPRESENTATION('',(#16),#83);
#13=REPRESENTATION('',(#17),#83);
#14=PROPERTY_DEFINITION('pmi validation property','',#88);
#15=PROPERTY_DEFINITION('pmi validation property','',#88);
#16=VALUE_REPRESENTATION_ITEM('number of annotations',COUNT_MEASURE(0.));
#17=VALUE_REPRESENTATION_ITEM('number of views',COUNT_MEASURE(0.));
#18=SHAPE_REPRESENTATION_RELATIONSHIP('','',#55,#19);
#19=ADVANCED_BREP_SHAPE_REPRESENTATION('',(#53),#83);
#20=PLANE('',#60);
#21=PLANE('',#61);
#22=ORIENTED_EDGE('',*,*,#26,.T.);
#23=ORIENTED_EDGE('',*,*,#27,.F.);
#24=ORIENTED_EDGE('',*,*,#26,.F.);
#25=ORIENTED_EDGE('',*,*,#27,.T.);
#26=EDGE_CURVE('',#28,#28,#30,.F.);
#27=EDGE_CURVE('',#29,#29,#31,.F.);
#28=VERTEX_POINT('',#77);
#29=VERTEX_POINT('',#79);
#30=CIRCLE('',#58,2.49999999560695);
#31=CIRCLE('',#59,2.49999999560695);
#32=EDGE_LOOP('',(#22));
#33=EDGE_LOOP('',(#23));
#34=EDGE_LOOP('',(#24));
#35=EDGE_LOOP('',(#25));
#36=FACE_BOUND('',#32,.T.);
#37=FACE_BOUND('',#33,.T.);
#38=FACE_BOUND('',#34,.T.);
#39=FACE_BOUND('',#35,.T.);
#40=CYLINDRICAL_SURFACE('',#57,2.49999999560695);
#41=ADVANCED_FACE('',(#36,#37),#40,.T.);
#42=ADVANCED_FACE('',(#38),#20,.T.);
#43=ADVANCED_FACE('',(#39),#21,.T.);
#44=CLOSED_SHELL('',(#41,#42,#43));
#45=STYLED_ITEM('',(#46),#53);
#46=PRESENTATION_STYLE_ASSIGNMENT((#47));
#47=SURFACE_STYLE_USAGE(.BOTH.,#48);
#48=SURFACE_SIDE_STYLE('',(#49));
#49=SURFACE_STYLE_FILL_AREA(#50);
#50=FILL_AREA_STYLE('',(#51));
#51=FILL_AREA_STYLE_COLOUR('',#52);
#52=COLOUR_RGB('',0.506983280181885,0.531564235687256,0.550000011920929);
#53=MANIFOLD_SOLID_BREP($,#44);
#54=SHAPE_DEFINITION_REPRESENTATION(#88,#55);
#55=SHAPE_REPRESENTATION('ëÖ¹Ç¹Ç¸É-×î¶Ìw-',(#56),#83);
#56=AXIS2_PLACEMENT_3D('',#74,#62,#63);
#57=AXIS2_PLACEMENT_3D('',#75,#64,#65);
#58=AXIS2_PLACEMENT_3D('',#76,#66,#67);
#59=AXIS2_PLACEMENT_3D('',#78,#68,#69);
#60=AXIS2_PLACEMENT_3D('',#80,#70,#71);
#61=AXIS2_PLACEMENT_3D('',#81,#72,#73);
#62=DIRECTION('',(0.,0.,1.));
#63=DIRECTION('',(1.,0.,0.));
#64=DIRECTION('',(-6.08870845413537E-17,-4.26048085699904E-15,1.));
#65=DIRECTION('',(0.985586605114022,0.169171640116824,8.15320033709099E-16));
#66=DIRECTION('',(-2.81181499167629E-15,-1.2490009027033E-16,-1.));
#67=DIRECTION('',(-0.985586605114022,-0.169171640116824,2.66800470605233E-15));
#68=DIRECTION('',(2.78093349487303E-15,1.02834407655905E-14,-1.));
#69=DIRECTION('',(-0.985586605114023,-0.169171640116824,-4.52415882534751E-15));
#70=DIRECTION('',(-2.81181499167629E-15,-1.2490009027033E-16,-1.));
#71=DIRECTION('',(0.985586605114022,0.169171640116824,-2.66800470605233E-15));
#72=DIRECTION('',(-2.78093349487303E-15,-1.02834407655905E-14,1.));
#73=DIRECTION('',(0.985586605114023,0.169171640116824,4.52415882534751E-15));
#74=CARTESIAN_POINT('',(0.,0.,0.));
#75=CARTESIAN_POINT('',(0.60946812300395,173.244563954889,-384.015791168445));
#76=CARTESIAN_POINT('',(0.60946812300283,173.244563954887,-313.436961072397));
#77=CARTESIAN_POINT('',(-1.85449838545249,172.821634855338,-313.436961072397));
#78=CARTESIAN_POINT('',(0.609468123004215,173.244563954888,-152.436961072396));
#79=CARTESIAN_POINT('',(-1.85449838545111,172.821634855339,-152.436961072396));
#80=CARTESIAN_POINT('',(0.60946812300283,173.244563954887,-313.436961072397));
#81=CARTESIAN_POINT('',(0.609468123004215,173.244563954888,-152.436961072396));
#82=MECHANICAL_DESIGN_GEOMETRIC_PRESENTATION_REPRESENTATION('',(#45),#83);
#83=(
GEOMETRIC_REPRESENTATION_CONTEXT(3)
GLOBAL_UNCERTAINTY_ASSIGNED_CONTEXT((#84))
GLOBAL_UNIT_ASSIGNED_CONTEXT((#87,#86,#85))
REPRESENTATION_CONTEXT('ëÖ¹Ç¹Ç¸É-×î¶Ì','TOP_LEVEL_ASSEMBLY_PART')
);
#84=UNCERTAINTY_MEASURE_WITH_UNIT(LENGTH_MEASURE(0.005),#87,
'DISTANCE_ACCURACY_VALUE','Maximum Tolerance applied to model');
#85=(
NAMED_UNIT(*)
SI_UNIT($,.STERADIAN.)
SOLID_ANGLE_UNIT()
);
#86=(
NAMED_UNIT(*)
PLANE_ANGLE_UNIT()
SI_UNIT($,.RADIAN.)
);
#87=(
LENGTH_UNIT()
NAMED_UNIT(*)
SI_UNIT(.MILLI.,.METRE.)
);
#88=PRODUCT_DEFINITION_SHAPE('','',#89);
#89=PRODUCT_DEFINITION('','',#91,#90);
#90=PRODUCT_DEFINITION_CONTEXT('',#97,'design');
#91=PRODUCT_DEFINITION_FORMATION_WITH_SPECIFIED_SOURCE('','',#93,
 .NOT_KNOWN.);
#92=PRODUCT_RELATED_PRODUCT_CATEGORY('','',(#93));
#93=PRODUCT('ëÖ¹Ç¹Ç¸É-×î¶Ì','ëÖ¹Ç¹Ç¸É-×î¶Ì','ëÖ¹Ç¹Ç¸É-×î¶Ì',(#95));
#94=PRODUCT_CATEGORY('','');
#95=PRODUCT_CONTEXT('',#97,'mechanical');
#96=APPLICATION_PROTOCOL_DEFINITION('international standard',
'automotive_design',2010,#97);
#97=APPLICATION_CONTEXT(
'core data for automotive mechanical design processes');
ENDSEC;
END-ISO-10303-21;
