ISO-10303-21;
HEADER;
FILE_DESCRIPTION (( 'STEP AP203' ),
    '1' );
FILE_NAME ('¶¤.stp',
    '2025-06-19T08:36:33',
    ( '' ),
    ( '' ),
    'SwSTEP 2.0',
    'SolidWorks 2023',
    '' );
FILE_SCHEMA (( 'CONFIG_CONTROL_DESIGN' ));
ENDSEC;

DATA;
#1 = EDGE_CURVE ( 'NONE', #543, #838, #735, .T. ) ;
#2 = AXIS2_PLACEMENT_3D ( 'NONE', #443, #340, #683 ) ;
#3 = CYLINDRICAL_SURFACE ( 'NONE', #307, 0.4496669133974839916 ) ;
#4 = CIRCLE ( 'NONE', #142, 2.248334566987419958 ) ;
#5 =( LENGTH_UNIT ( ) NAMED_UNIT ( * ) SI_UNIT ( .MILLI., .METRE. ) );
#6 = CARTESIAN_POINT ( 'NONE',  ( 1.682833413780430165, 178.4311768432820031, -198.6405058208939067 ) ) ;
#7 = CARTESIAN_POINT ( 'NONE',  ( 0.9333885581179609536, 176.6657602971179983, -195.9578949112920156 ) ) ;
#8 = LINE ( 'NONE', #350, #38 ) ;
#9 = VERTEX_POINT ( 'NONE', #618 ) ;
#10 = APPROVAL_STATUS ( 'not_yet_approved' ) ;
#11 = B_SPLINE_CURVE_WITH_KNOTS ( 'NONE', 3,
 ( #812, #40, #294, #1076, #377, #1071, #195, #651, #974, #372 ),
 .UNSPECIFIED., .F., .F.,
 ( 4, 2, 2, 2, 4 ),
 ( 0.000000000000000000, 0.0003062649438218786641, 0.0006125298876437571113, 0.0009187948314656356127, 0.001225059775287514006 ),
 .UNSPECIFIED. ) ;
#12 = LINE ( 'NONE', #781, #414 ) ;
#13 = FACE_OUTER_BOUND ( 'NONE', #547, .T. ) ;
#14 = CARTESIAN_POINT ( 'NONE',  ( 17.78105046182094995, 178.4311768432820031, -194.1438366869190588 ) ) ;
#15 = LINE ( 'NONE', #98, #470 ) ;
#16 = VERTEX_POINT ( 'NONE', #14 ) ;
#17 = CARTESIAN_POINT ( 'NONE',  ( 0.9333885581179609536, 179.6899794613310064, -195.0804138479734888 ) ) ;
#18 = CARTESIAN_POINT ( 'NONE',  ( -1.730899090731731871, 178.8000204980312731, -198.0235532621601635 ) ) ;
#19 = UNCERTAINTY_MEASURE_WITH_UNIT (LENGTH_MEASURE( 1.000000000000000082E-05 ), #5, 'distance_accuracy_value', 'NONE');
#20 = EDGE_CURVE ( 'NONE', #394, #184, #513, .T. ) ;
#21 = AXIS2_PLACEMENT_3D ( 'NONE', #701, #860, #619 ) ;
#22 = DIRECTION ( 'NONE',  ( -9.644491424052111684E-17, 0.000000000000000000, 1.000000000000000000 ) ) ;
#23 = CIRCLE ( 'NONE', #91, 2.597557364914876210 ) ;
#24 = CARTESIAN_POINT ( 'NONE',  ( 18.97602520865155284, 178.4311768432820031, -196.3921712539064970 ) ) ;
#25 = ORIENTED_EDGE ( 'NONE', *, *, #845, .F. ) ;
#26 = DIRECTION ( 'NONE',  ( 1.000000000000000000, 0.000000000000000000, 5.551115123125779621E-17 ) ) ;
#27 = CARTESIAN_POINT ( 'NONE',  ( -2.064390864531945091, 178.4311768432820031, -198.9897286188213457 ) ) ;
#28 = ADVANCED_FACE ( 'NONE', ( #944 ), #876, .T. ) ;
#29 = AXIS2_PLACEMENT_3D ( 'NONE', #146, #225, #320 ) ;
#30 = CARTESIAN_POINT ( 'NONE',  ( -1.966261872388253673, 179.3247285008046390, -198.2697223915304505 ) ) ;
#31 = CARTESIAN_POINT ( 'NONE',  ( -1.961018834279650180, 177.2231794039861938, -194.7099661921044174 ) ) ;
#32 = ADVANCED_FACE ( 'NONE', ( #863 ), #182, .T. ) ;
#33 = ORIENTED_EDGE ( 'NONE', *, *, #713, .T. ) ;
#34 = CARTESIAN_POINT ( 'NONE',  ( -1.815963686647379838, 177.1723742252335114, -195.0804138479734888 ) ) ;
#35 = VERTEX_POINT ( 'NONE', #534 ) ;
#36 = CARTESIAN_POINT ( 'NONE',  ( -1.671201769342205434, 179.6819796308440402, -197.3398907129575832 ) ) ;
#37 = CARTESIAN_POINT ( 'NONE',  ( -1.862648210009948846, 179.0031100206195447, -194.5808950648751079 ) ) ;
#38 = VECTOR ( 'NONE', #694, 999.9999999999998863 ) ;
#39 = ORIENTED_EDGE ( 'NONE', *, *, #247, .F. ) ;
#40 = CARTESIAN_POINT ( 'NONE',  ( -1.862648210009969718, 176.5765990616428098, -196.8025006875808174 ) ) ;
#41 = DIRECTION ( 'NONE',  ( -1.000000000000000000, 0.000000000000000000, -5.551115123125779621E-17 ) ) ;
#42 = B_SPLINE_CURVE_WITH_KNOTS ( 'NONE', 3,
 ( #212, #37, #908, #641, #297, #48, #128, #726, #902, #390 ),
 .UNSPECIFIED., .F., .F.,
 ( 4, 2, 2, 2, 4 ),
 ( 0.000000000000000000, 0.0003062649438218929213, 0.0006125298876437858427, 0.0009187948314656787640, 0.001225059775287571685 ),
 .UNSPECIFIED. ) ;
#43 = FACE_OUTER_BOUND ( 'NONE', #323, .T. ) ;
#44 = CARTESIAN_POINT ( 'NONE',  ( -1.771156201403961683, 177.9872558824455382, -194.7087567521394931 ) ) ;
#45 = ORIENTED_EDGE ( 'NONE', *, *, #388, .T. ) ;
#46 = EDGE_CURVE ( 'NONE', #16, #136, #81, .T. ) ;
#47 = CARTESIAN_POINT ( 'NONE',  ( 0.9333885581179609536, 177.6067875020534927, -197.8200554781325025 ) ) ;
#48 = CARTESIAN_POINT ( 'NONE',  ( -1.977953450403713731, 179.5684758214851229, -194.6254577146855240 ) ) ;
#49 = CARTESIAN_POINT ( 'NONE',  ( 0.9333885581179609536, 177.9245629151665185, -194.6461375053594907 ) ) ;
#50 = CIRCLE ( 'NONE', #187, 2.248334566987419958 ) ;
#51 = ORIENTED_EDGE ( 'NONE', *, *, #936, .T. ) ;
#52 = ORIENTED_EDGE ( 'NONE', *, *, #110, .T. ) ;
#53 = ADVANCED_FACE ( 'NONE', ( #880 ), #3, .F. ) ;
#54 = CARTESIAN_POINT ( 'NONE',  ( 0.9333885581179609536, 178.4311768432820031, -194.1389271498915150 ) ) ;
#55 = ADVANCED_FACE ( 'NONE', ( #251 ), #395, .T. ) ;
#56 = FACE_OUTER_BOUND ( 'NONE', #154, .T. ) ;
#57 = CIRCLE ( 'NONE', #541, 0.4496669133974839916 ) ;
#58 = AXIS2_PLACEMENT_3D ( 'NONE', #1087, #484, #408 ) ;
#59 = VERTEX_POINT ( 'NONE', #521 ) ;
#60 = ORIENTED_EDGE ( 'NONE', *, *, #980, .F. ) ;
#61 = CARTESIAN_POINT ( 'NONE',  ( 1.682833413780429943, 178.4311768432820031, -196.3921712539064970 ) ) ;
#62 = CARTESIAN_POINT ( 'NONE',  ( 0.9333885581179609536, 176.7823981608244992, -196.3921712539064970 ) ) ;
#63 = EDGE_CURVE ( 'NONE', #1023, #16, #869, .T. ) ;
#64 = ORIENTED_EDGE ( 'NONE', *, *, #665, .F. ) ;
#65 = ORIENTED_EDGE ( 'NONE', *, *, #622, .F. ) ;
#66 = CARTESIAN_POINT ( 'NONE',  ( -1.653209193870077032, 179.8099562793835275, -195.7078564818465622 ) ) ;
#67 = DIRECTION ( 'NONE',  ( -1.000000000000000000, 0.000000000000000000, -5.551115123125779621E-17 ) ) ;
#68 = EDGE_CURVE ( 'NONE', #121, #654, #920, .T. ) ;
#69 = ORIENTED_EDGE ( 'NONE', *, *, #1026, .T. ) ;
#70 = ORIENTED_EDGE ( 'NONE', *, *, #943, .F. ) ;
#71 = DIRECTION ( 'NONE',  ( 0.000000000000000000, 0.000000000000000000, -1.000000000000000000 ) ) ;
#72 = VECTOR ( 'NONE', #261, 1000.000000000000000 ) ;
#73 = ORIENTED_EDGE ( 'NONE', *, *, #147, .F. ) ;
#74 = CIRCLE ( 'NONE', #923, 2.266442117648981291 ) ;
#75 = EDGE_LOOP ( 'NONE', ( #284, #1014, #375, #505 ) ) ;
#76 = CALENDAR_DATE ( 2025, 19, 6 ) ;
#77 = DIRECTION ( 'NONE',  ( -1.000000000000000000, 0.000000000000000000, -5.551115123125779621E-17 ) ) ;
#78 = CARTESIAN_POINT ( 'NONE',  ( 0.9333885581179609536, 177.6067875020534927, -197.8200554781325025 ) ) ;
#79 = ORIENTED_EDGE ( 'NONE', *, *, #282, .T. ) ;
#80 = DIRECTION ( 'NONE',  ( 1.000000000000000000, 2.311115933264678576E-33, 2.775557561562895049E-17 ) ) ;
#81 = LINE ( 'NONE', #1113, #285 ) ;
#82 = ADVANCED_FACE ( 'NONE', ( #1045 ), #267, .T. ) ;
#83 = CARTESIAN_POINT ( 'NONE',  ( -1.671382248586512409, 178.2351464591587842, -197.9494760684245307 ) ) ;
#84 = CARTESIAN_POINT ( 'NONE',  ( -1.730756241144899121, 177.2028101588905145, -195.2573691331966188 ) ) ;
#85 = DIRECTION ( 'NONE',  ( -1.000000000000000000, 0.000000000000000000, -5.551115123125779621E-17 ) ) ;
#86 = DATE_AND_TIME ( #510, #1092 ) ;
#87 = EDGE_CURVE ( 'NONE', #1043, #485, #1108, .T. ) ;
#88 = DIRECTION ( 'NONE',  ( -1.000000000000000000, 0.000000000000000000, -5.551115123125779621E-17 ) ) ;
#89 = CARTESIAN_POINT ( 'NONE',  ( -1.815963686647379838, 179.6899794613310064, -197.7039286598389936 ) ) ;
#90 = CARTESIAN_POINT ( 'NONE',  ( 0.9333885581179609536, 176.4798102082779963, -197.5187933059134764 ) ) ;
#91 = AXIS2_PLACEMENT_3D ( 'NONE', #757, #961, #957 ) ;
#92 = CIRCLE ( 'NONE', #689, 0.7168821499066446723 ) ;
#93 = DIRECTION ( 'NONE',  ( -1.000000000000000000, 0.000000000000000000, -5.551115123125779621E-17 ) ) ;
#94 = DIRECTION ( 'NONE',  ( -1.000000000000000000, 0.000000000000000000, -5.551115123125779621E-17 ) ) ;
#95 = CARTESIAN_POINT ( 'NONE',  ( -1.375025437423400110, 178.4311768432820031, -193.2161676133584365 ) ) ;
#96 = EDGE_CURVE ( 'NONE', #121, #1085, #352, .T. ) ;
#97 = DIRECTION ( 'NONE',  ( -1.000000000000000000, -2.311115933264678576E-33, -2.775557561562895049E-17 ) ) ;
#98 = CARTESIAN_POINT ( 'NONE',  ( 18.97602520865155284, 178.4311768432820031, -198.1455310740633138 ) ) ;
#99 = EDGE_LOOP ( 'NONE', ( #729, #33, #570, #204 ) ) ;
#100 = CARTESIAN_POINT ( 'NONE',  ( 0.9333885581179609536, 178.9377907713979994, -198.1382050024530201 ) ) ;
#101 = EDGE_CURVE ( 'NONE', #1043, #184, #109, .T. ) ;
#102 = FACE_BOUND ( 'NONE', #287, .T. ) ;
#103 = FACE_OUTER_BOUND ( 'NONE', #601, .T. ) ;
#104 = EDGE_LOOP ( 'NONE', ( #915, #239, #504, #65 ) ) ;
#105 = CARTESIAN_POINT ( 'NONE',  ( 0.9333885581179609536, 180.3825434782864932, -197.5187933059134764 ) ) ;
#106 = AXIS2_PLACEMENT_3D ( 'NONE', #965, #360, #613 ) ;
#107 = CARTESIAN_POINT ( 'NONE',  ( -1.921794995480974544, 179.1331536973250422, -198.2697223915293137 ) ) ;
#108 = CYLINDRICAL_SURFACE ( 'NONE', #737, 0.7168821499066446723 ) ;
#109 = B_SPLINE_CURVE_WITH_KNOTS ( 'NONE', 3,
 ( #233, #392, #921, #144, #591, #495 ),
 .UNSPECIFIED., .F., .F.,
 ( 4, 2, 4 ),
 ( 0.0005887951228129720618, 0.0008821116582241314346, 0.001175428193635290807 ),
 .UNSPECIFIED. ) ;
#110 = EDGE_CURVE ( 'NONE', #543, #984, #851, .T. ) ;
#111 = DIRECTION ( 'NONE',  ( 1.596699042774098021E-16, 0.000000000000000000, -1.000000000000000000 ) ) ;
#112 = PRODUCT_DEFINITION_SHAPE ( 'NONE', 'NONE',  #903 ) ;
#113 = DIRECTION ( 'NONE',  ( -1.000000000000000000, 0.000000000000000000, 0.000000000000000000 ) ) ;
#114 = ORIENTED_EDGE ( 'NONE', *, *, #488, .T. ) ;
#115 = DIRECTION ( 'NONE',  ( -1.000000000000000000, 0.000000000000000000, -5.551115123125779621E-17 ) ) ;
#116 = EDGE_LOOP ( 'NONE', ( #419, #1075 ) ) ;
#117 = DIRECTION ( 'NONE',  ( -1.512385505241961566E-16, 0.000000000000000000, -1.000000000000000000 ) ) ;
#118 = CARTESIAN_POINT ( 'NONE',  ( 20.36461014894815236, 178.4311768432820031, -196.3921712539064970 ) ) ;
#119 = AXIS2_PLACEMENT_3D ( 'NONE', #532, #1061, #879 ) ;
#120 = CARTESIAN_POINT ( 'NONE',  ( 20.19944748924410050, 178.4311768432820031, -196.3921712539064970 ) ) ;
#121 = VERTEX_POINT ( 'NONE', #1110 ) ;
#122 = CARTESIAN_POINT ( 'NONE',  ( -1.771180025928659418, 180.1110625490056520, -195.9349230532119464 ) ) ;
#123 = CIRCLE ( 'NONE', #268, 0.4496669133974839916 ) ;
#124 = AXIS2_PLACEMENT_3D ( 'NONE', #237, #821, #586 ) ;
#125 = EDGE_CURVE ( 'NONE', #751, #527, #183, .T. ) ;
#126 = ORIENTED_EDGE ( 'NONE', *, *, #537, .T. ) ;
#127 = CARTESIAN_POINT ( 'NONE',  ( 0.9333885581179609536, 179.2555661845110251, -197.8200554781325025 ) ) ;
#128 = CARTESIAN_POINT ( 'NONE',  ( -1.961584502038785205, 179.6381032553326236, -194.7079407032979930 ) ) ;
#129 = DIRECTION ( 'NONE',  ( -0.9848077530122081313, 1.445911537725197175E-17, -0.1736481776669305810 ) ) ;
#130 = CC_DESIGN_PERSON_AND_ORGANIZATION_ASSIGNMENT ( #412, #603, ( #903 ) ) ;
#131 = ORIENTED_EDGE ( 'NONE', *, *, #241, .F. ) ;
#132 = ORIENTED_EDGE ( 'NONE', *, *, #968, .T. ) ;
#133 = CARTESIAN_POINT ( 'NONE',  ( -1.815963686647379838, 177.1723742252335114, -197.7039286598389936 ) ) ;
#134 = CARTESIAN_POINT ( 'NONE',  ( 0.9333885581179609536, 178.4311768432820031, -194.8558092997981532 ) ) ;
#135 = LOCAL_TIME ( 16, 36, 33.00000000000000000, #754 ) ;
#136 = VERTEX_POINT ( 'NONE', #178 ) ;
#137 = ORIENTED_EDGE ( 'NONE', *, *, #1048, .F. ) ;
#138 = EDGE_CURVE ( 'NONE', #136, #149, #1062, .T. ) ;
#139 = DIRECTION ( 'NONE',  ( 1.000000000000000000, 0.000000000000000000, 5.551115123125779621E-17 ) ) ;
#140 = VECTOR ( 'NONE', #434, 1000.000000000000000 ) ;
#141 = DIRECTION ( 'NONE',  ( 0.000000000000000000, 0.000000000000000000, -1.000000000000000000 ) ) ;
#142 = AXIS2_PLACEMENT_3D ( 'NONE', #814, #1078, #380 ) ;
#143 = AXIS2_PLACEMENT_3D ( 'NONE', #78, #693, #71 ) ;
#144 = CARTESIAN_POINT ( 'NONE',  ( -1.730904604794525348, 178.8000340032052975, -194.7607822791118792 ) ) ;
#145 = EDGE_LOOP ( 'NONE', ( #171, #666, #73, #1084 ) ) ;
#146 = CARTESIAN_POINT ( 'NONE',  ( -2.064390864531945091, 178.4311768432820031, -196.3921712539064970 ) ) ;
#147 = EDGE_CURVE ( 'NONE', #16, #966, #1046, .T. ) ;
#148 = CARTESIAN_POINT ( 'NONE',  ( -1.375025437423400110, 178.4311768432820031, -196.3921712539064970 ) ) ;
#149 = VERTEX_POINT ( 'NONE', #6 ) ;
#150 = VERTEX_POINT ( 'NONE', #1042 ) ;
#151 = APPROVAL_ROLE ( '' ) ;
#152 = CARTESIAN_POINT ( 'NONE',  ( 20.19944748924410050, 178.4311768432820031, -196.9221087934708123 ) ) ;
#153 = ORIENTED_EDGE ( 'NONE', *, *, #255, .F. ) ;
#154 = EDGE_LOOP ( 'NONE', ( #938, #79, #1008, #137 ) ) ;
#155 = PERSON_AND_ORGANIZATION_ROLE ( 'creator' ) ;
#156 = PERSON ( 'æœª', 'æœª', 'æœª', ('æœª'), ('æœª'), ('æœª') ) ;
#157 = LINE ( 'NONE', #1032, #579 ) ;
#158 = LINE ( 'NONE', #855, #616 ) ;
#159 = CIRCLE ( 'NONE', #325, 2.248334566987419958 ) ;
#160 = EDGE_CURVE ( 'NONE', #933, #984, #162, .T. ) ;
#161 = ORIENTED_EDGE ( 'NONE', *, *, #1102, .T. ) ;
#162 = B_SPLINE_CURVE_WITH_KNOTS ( 'NONE', 3,
 ( #1115, #167, #83, #535, #264, #609 ),
 .UNSPECIFIED., .F., .F.,
 ( 4, 2, 4 ),
 ( 0.0005887951228134420635, 0.0008821116582245346494, 0.001175428193635627127 ),
 .UNSPECIFIED. ) ;
#163 = DIRECTION ( 'NONE',  ( -1.000000000000000000, 0.000000000000000000, -5.551115123125779621E-17 ) ) ;
#164 = CARTESIAN_POINT ( 'NONE',  ( -1.653209193869694005, 177.0523974071810471, -197.0764860259659770 ) ) ;
#165 = ORIENTED_EDGE ( 'NONE', *, *, #916, .T. ) ;
#166 = CC_DESIGN_PERSON_AND_ORGANIZATION_ASSIGNMENT ( #934, #155, ( #972 ) ) ;
#167 = CARTESIAN_POINT ( 'NONE',  ( -1.653333284830292627, 178.3335111831615336, -197.9285332080143007 ) ) ;
#168 = DIRECTION ( 'NONE',  ( -1.000000000000000000, 0.000000000000000000, -5.551115123125779621E-17 ) ) ;
#169 = DIRECTION ( 'NONE',  ( -1.000000000000000000, 0.000000000000000000, -5.551115123125779621E-17 ) ) ;
#170 = CARTESIAN_POINT ( 'NONE',  ( 1.233166500382933517, 178.4311768432820031, -193.6760622228599971 ) ) ;
#171 = ORIENTED_EDGE ( 'NONE', *, *, #1088, .F. ) ;
#172 = DATE_TIME_ROLE ( 'classification_date' ) ;
#173 = CARTESIAN_POINT ( 'NONE',  ( 1.682833413780429943, 178.4311768432820031, -194.1257291362574904 ) ) ;
#174 = CARTESIAN_POINT ( 'NONE',  ( -1.653209193869874305, 177.1491531484429629, -195.5402706220566813 ) ) ;
#175 = CARTESIAN_POINT ( 'NONE',  ( 0.9333885581179609536, 178.9377907713979994, -194.6461375053594907 ) ) ;
#176 = VECTOR ( 'NONE', #447, 1000.000000000000000 ) ;
#177 = CONICAL_SURFACE ( 'NONE', #809, 1.753359820156841220, 0.3926990816987201982 ) ;
#178 = CARTESIAN_POINT ( 'NONE',  ( 1.682833413780429721, 178.4311768432820031, -194.1438366869190588 ) ) ;
#179 = CARTESIAN_POINT ( 'NONE',  ( -2.064390864531945091, 178.4311768432820031, -196.3921712539064970 ) ) ;
#180 = CARTESIAN_POINT ( 'NONE',  ( -1.375025437423400110, 178.4311768432820031, -199.5681748944545291 ) ) ;
#181 = EDGE_CURVE ( 'NONE', #589, #338, #631, .T. ) ;
#182 = PLANE ( 'NONE',  #246 ) ;
#183 = LINE ( 'NONE', #881, #176 ) ;
#184 = VERTEX_POINT ( 'NONE', #511 ) ;
#185 = DIRECTION ( 'NONE',  ( -9.567437562536701567E-17, 0.000000000000000000, -1.000000000000000000 ) ) ;
#186 = DIRECTION ( 'NONE',  ( -1.000000000000000000, 0.000000000000000000, -5.551115123125779621E-17 ) ) ;
#187 = AXIS2_PLACEMENT_3D ( 'NONE', #652, #1098, #994 ) ;
#188 = ORIENTED_EDGE ( 'NONE', *, *, #255, .T. ) ;
#189 = CARTESIAN_POINT ( 'NONE',  ( -1.903201928533925447, 180.3693553704841008, -196.7503552561514084 ) ) ;
#190 = CARTESIAN_POINT ( 'NONE',  ( -1.977953450403543645, 177.4698075262086547, -194.5238846774742569 ) ) ;
#191 = ORIENTED_EDGE ( 'NONE', *, *, #315, .F. ) ;
#192 = EDGE_CURVE ( 'NONE', #35, #485, #597, .T. ) ;
#193 = AXIS2_PLACEMENT_3D ( 'NONE', #173, #1031, #871 ) ;
#194 = AXIS2_PLACEMENT_3D ( 'NONE', #118, #464, #296 ) ;
#195 = CARTESIAN_POINT ( 'NONE',  ( -1.961584502038634437, 176.3691271946001677, -196.1890575958764771 ) ) ;
#196 = ORIENTED_EDGE ( 'NONE', *, *, #452, .F. ) ;
#197 = AXIS2_PLACEMENT_3D ( 'NONE', #919, #67, #1001 ) ;
#198 = CARTESIAN_POINT ( 'NONE',  ( -1.961018834279683709, 180.4920078808253265, -196.1871173146705019 ) ) ;
#199 = VERTEX_POINT ( 'NONE', #791 ) ;
#200 = ORIENTED_EDGE ( 'NONE', *, *, #456, .F. ) ;
#201 = ADVANCED_FACE ( 'NONE', ( #103 ), #604, .T. ) ;
#202 = DIRECTION ( 'NONE',  ( 0.000000000000000000, 0.000000000000000000, 1.000000000000000000 ) ) ;
#203 = LINE ( 'NONE', #897, #232 ) ;
#204 = ORIENTED_EDGE ( 'NONE', *, *, #1088, .T. ) ;
#205 = DIRECTION ( 'NONE',  ( 0.000000000000000000, 0.000000000000000000, -1.000000000000000000 ) ) ;
#206 = CARTESIAN_POINT ( 'NONE',  ( 0.9333885581179609536, 180.1965933894465195, -196.8264475965205236 ) ) ;
#207 = ADVANCED_FACE ( 'NONE', ( #1051 ), #517, .T. ) ;
#208 = B_SPLINE_CURVE_WITH_KNOTS ( 'NONE', 3,
 ( #909, #44, #646, #653, #477, #670 ),
 .UNSPECIFIED., .F., .F.,
 ( 4, 2, 4 ),
 ( 0.000000000000000000, 0.0002943975614064860309, 0.0005887951228129720618 ),
 .UNSPECIFIED. ) ;
#209 = VERTEX_POINT ( 'NONE', #625 ) ;
#210 = CARTESIAN_POINT ( 'NONE',  ( -1.815963686647379838, 177.9245629151665185, -198.1382050024530201 ) ) ;
#211 = CONICAL_SURFACE ( 'NONE', #376, 1.753359820156841220, 0.3926990816987201982 ) ;
#212 = CARTESIAN_POINT ( 'NONE',  ( -1.815963686647379838, 178.9377907713979994, -194.6461375053594907 ) ) ;
#213 = CIRCLE ( 'NONE', #490, 0.7168821499066446723 ) ;
#214 = FACE_OUTER_BOUND ( 'NONE', #941, .T. ) ;
#215 = EDGE_CURVE ( 'NONE', #59, #793, #1037, .T. ) ;
#216 = AXIS2_PLACEMENT_3D ( 'NONE', #105, #26, #117 ) ;
#217 = ORIENTED_EDGE ( 'NONE', *, *, #690, .F. ) ;
#218 = ORIENTED_EDGE ( 'NONE', *, *, #629, .T. ) ;
#219 = CARTESIAN_POINT ( 'NONE',  ( -1.730756241144968621, 180.0281276502808510, -195.8957755604153874 ) ) ;
#220 = DIRECTION ( 'NONE',  ( 0.000000000000000000, 0.000000000000000000, -1.000000000000000000 ) ) ;
#221 = ADVANCED_FACE ( 'NONE', ( #865, #341 ), #686, .F. ) ;
#222 = ORIENTED_EDGE ( 'NONE', *, *, #709, .T. ) ;
#223 = AXIS2_PLACEMENT_3D ( 'NONE', #383, #41, #1091 ) ;
#224 = ORIENTED_EDGE ( 'NONE', *, *, #1003, .T. ) ;
#225 = DIRECTION ( 'NONE',  ( -1.000000000000000000, 0.000000000000000000, -5.551115123125779621E-17 ) ) ;
#226 = CARTESIAN_POINT ( 'NONE',  ( 0.9333885581179609536, 177.1723742252335114, -195.0804138479734888 ) ) ;
#227 = ORIENTED_EDGE ( 'NONE', *, *, #681, .F. ) ;
#228 = EDGE_CURVE ( 'NONE', #846, #571, #946, .T. ) ;
#229 = ORIENTED_EDGE ( 'NONE', *, *, #46, .T. ) ;
#230 = DIRECTION ( 'NONE',  ( 0.000000000000000000, 0.000000000000000000, -1.000000000000000000 ) ) ;
#231 = CARTESIAN_POINT ( 'NONE',  ( -2.064390864531945091, 178.4311768432820031, -196.3921712539064970 ) ) ;
#232 = VECTOR ( 'NONE', #367, 1000.000000000000000 ) ;
#233 = CARTESIAN_POINT ( 'NONE',  ( -1.653333284830565963, 178.4311768432820031, -194.8558092997981532 ) ) ;
#234 = ORIENTED_EDGE ( 'NONE', *, *, #344, .F. ) ;
#235 = EDGE_LOOP ( 'NONE', ( #830, #724, #161, #425 ) ) ;
#236 = CALENDAR_DATE ( 2025, 19, 6 ) ;
#237 = CARTESIAN_POINT ( 'NONE',  ( 20.36461014894815236, 178.4311768432820031, -196.3921712539064970 ) ) ;
#238 = ORIENTED_EDGE ( 'NONE', *, *, #1079, .F. ) ;
#239 = ORIENTED_EDGE ( 'NONE', *, *, #315, .T. ) ;
#240 = CARTESIAN_POINT ( 'NONE',  ( -1.815963686647379838, 176.6657602971179983, -195.9578949112920156 ) ) ;
#241 = EDGE_CURVE ( 'NONE', #199, #682, #348, .T. ) ;
#242 = EDGE_LOOP ( 'NONE', ( #227, #385, #52, #493 ) ) ;
#243 = CARTESIAN_POINT ( 'NONE',  ( -2.064390864531945091, 178.4311768432820031, -194.1438366869190588 ) ) ;
#244 = DIRECTION ( 'NONE',  ( -1.000000000000000000, 0.000000000000000000, -5.551115123125779621E-17 ) ) ;
#245 = CARTESIAN_POINT ( 'NONE',  ( 0.9333885581179609536, 179.6899794613310064, -195.0804138479734888 ) ) ;
#246 = AXIS2_PLACEMENT_3D ( 'NONE', #432, #97, #771 ) ;
#247 = EDGE_CURVE ( 'NONE', #485, #35, #159, .T. ) ;
#248 = AXIS2_PLACEMENT_3D ( 'NONE', #283, #632, #595 ) ;
#249 = ORIENTED_EDGE ( 'NONE', *, *, #480, .F. ) ;
#250 = AXIS2_PLACEMENT_3D ( 'NONE', #231, #309, #580 ) ;
#251 = FACE_OUTER_BOUND ( 'NONE', #303, .T. ) ;
#252 = APPROVAL_STATUS ( 'not_yet_approved' ) ;
#253 = DIRECTION ( 'NONE',  ( 0.000000000000000000, 0.000000000000000000, -1.000000000000000000 ) ) ;
#254 = CARTESIAN_POINT ( 'NONE',  ( 20.19944748924410050, 178.4311768432820031, -196.3921712539064970 ) ) ;
#255 = EDGE_CURVE ( 'NONE', #736, #1043, #12, .T. ) ;
#256 = DIRECTION ( 'NONE',  ( -1.512385505241961566E-16, 0.000000000000000000, -1.000000000000000000 ) ) ;
#257 = PERSON_AND_ORGANIZATION ( #156, #515 ) ;
#258 = CARTESIAN_POINT ( 'NONE',  ( 0.9333885581179609536, 178.9377907713979994, -198.1382050024530201 ) ) ;
#259 = CARTESIAN_POINT ( 'NONE',  ( -1.771238467806038663, 177.1952155862670963, -197.6184825015836282 ) ) ;
#260 = CARTESIAN_POINT ( 'NONE',  ( -1.653333284830293293, 178.4311768432820031, -197.9285332080143576 ) ) ;
#261 = DIRECTION ( 'NONE',  ( -1.000000000000000000, 0.000000000000000000, -5.551115123125779621E-17 ) ) ;
#262 = B_SPLINE_CURVE_WITH_KNOTS ( 'NONE', 3,
 ( #89, #843, #854, #423, #1111, #336, #1052, #795, #30, #363 ),
 .UNSPECIFIED., .F., .F.,
 ( 4, 2, 2, 2, 4 ),
 ( 0.000000000000000000, 0.0002123179461757826144, 0.0004246358923515652288, 0.0006369538385273478161, 0.0008492717847031304576 ),
 .UNSPECIFIED. ) ;
#263 = EDGE_CURVE ( 'NONE', #833, #966, #15, .T. ) ;
#264 = CARTESIAN_POINT ( 'NONE',  ( -1.771262399827264966, 177.9871072935604275, -198.0757341698328844 ) ) ;
#265 = CARTESIAN_POINT ( 'NONE',  ( -1.671201769341947418, 176.9850263223021614, -197.0015385135335464 ) ) ;
#266 = AXIS2_PLACEMENT_3D ( 'NONE', #706, #353, #697 ) ;
#267 = CYLINDRICAL_SURFACE ( 'NONE', #648, 0.7168821499066446723 ) ;
#268 = AXIS2_PLACEMENT_3D ( 'NONE', #562, #478, #568 ) ;
#269 = CONICAL_SURFACE ( 'NONE', #1103, 0.5299375395643179942, 0.7853981633974433940 ) ;
#270 = CARTESIAN_POINT ( 'NONE',  ( -2.064390864531945091, 178.4311768432820031, -196.3921712539064970 ) ) ;
#271 = VERTEX_POINT ( 'NONE', #356 ) ;
#272 = CARTESIAN_POINT ( 'NONE',  ( -1.771180025928642543, 179.6671082537800146, -197.6183708501701233 ) ) ;
#273 = CARTESIAN_POINT ( 'NONE',  ( -2.064390864531945091, 178.4311768432820031, -196.3921712539064970 ) ) ;
#274 = DIRECTION ( 'NONE',  ( -1.000000000000000000, -0.000000000000000000, -5.551115123125779621E-17 ) ) ;
#275 = ORIENTED_EDGE ( 'NONE', *, *, #446, .F. ) ;
#276 = CARTESIAN_POINT ( 'NONE',  ( -1.977953450403592273, 180.5298451385585281, -196.4937442911178493 ) ) ;
#277 = ADVANCED_FACE ( 'NONE', ( #386 ), #211, .T. ) ;
#278 = CC_DESIGN_APPROVAL ( #403, ( #628 ) ) ;
#279 = ORIENTED_EDGE ( 'NONE', *, *, #584, .F. ) ;
#280 = CARTESIAN_POINT ( 'NONE',  ( -1.873292251387321139, 179.0180027675381211, -198.2183226775131857 ) ) ;
#281 = CARTESIAN_POINT ( 'NONE',  ( -1.961584502038624889, 177.5760536066507314, -194.5048270452681152 ) ) ;
#282 = EDGE_CURVE ( 'NONE', #793, #1027, #11, .T. ) ;
#283 = CARTESIAN_POINT ( 'NONE',  ( -1.375025437423400110, 178.4311768432820031, -196.3921712539064970 ) ) ;
#284 = ORIENTED_EDGE ( 'NONE', *, *, #181, .F. ) ;
#285 = VECTOR ( 'NONE', #779, 1000.000000000000000 ) ;
#286 = CIRCLE ( 'NONE', #308, 1.753359820156841220 ) ;
#287 = EDGE_LOOP ( 'NONE', ( #1097, #39 ) ) ;
#288 = APPLICATION_CONTEXT ( 'configuration controlled 3d designs of mechanical parts and assemblies' ) ;
#289 = CIRCLE ( 'NONE', #889, 2.716109031046492817 ) ;
#290 = LINE ( 'NONE', #445, #679 ) ;
#291 = DIRECTION ( 'NONE',  ( -1.512385505241961566E-16, 0.000000000000000000, -1.000000000000000000 ) ) ;
#292 = ORIENTED_EDGE ( 'NONE', *, *, #794, .T. ) ;
#293 = ADVANCED_FACE ( 'NONE', ( #548 ), #894, .F. ) ;
#294 = CARTESIAN_POINT ( 'NONE',  ( -1.903064382822139633, 176.4932714978386343, -196.7502774310084988 ) ) ;
#295 = CARTESIAN_POINT ( 'NONE',  ( -1.815963686647379838, 180.1965933894465195, -195.9578949112920156 ) ) ;
#296 = DIRECTION ( 'NONE',  ( 0.000000000000000000, 0.000000000000000000, 1.000000000000000000 ) ) ;
#297 = CARTESIAN_POINT ( 'NONE',  ( -1.977750431838936951, 179.3906229785679898, -194.5232911022726228 ) ) ;
#298 = ORIENTED_EDGE ( 'NONE', *, *, #1079, .T. ) ;
#299 = CARTESIAN_POINT ( 'NONE',  ( 0.9333885581179609536, 180.0799555257395070, -196.3921712539064970 ) ) ;
#300 = CARTESIAN_POINT ( 'NONE',  ( 0.9333885581179609536, 178.4311768432820031, -194.1389271498915150 ) ) ;
#301 = LINE ( 'NONE', #398, #1009 ) ;
#302 = CARTESIAN_POINT ( 'NONE',  ( 0.9333885581179609536, 177.9245629151665185, -198.1382050024530201 ) ) ;
#303 = EDGE_LOOP ( 'NONE', ( #922, #479, #917, #499 ) ) ;
#304 = ORIENTED_EDGE ( 'NONE', *, *, #550, .T. ) ;
#305 = DIRECTION ( 'NONE',  ( 0.000000000000000000, 0.000000000000000000, 1.000000000000000000 ) ) ;
#306 = CARTESIAN_POINT ( 'NONE',  ( -1.653333284830565963, 178.4311768432820031, -194.8558092997981532 ) ) ;
#307 = AXIS2_PLACEMENT_3D ( 'NONE', #347, #950, #766 ) ;
#308 = AXIS2_PLACEMENT_3D ( 'NONE', #24, #546, #978 ) ;
#309 = DIRECTION ( 'NONE',  ( -1.000000000000000000, 0.000000000000000000, -5.551115123125779621E-17 ) ) ;
#310 = VERTEX_POINT ( 'NONE', #461 ) ;
#311 = ORIENTED_EDGE ( 'NONE', *, *, #192, .T. ) ;
#312 = CARTESIAN_POINT ( 'NONE',  ( 18.97602520865155284, 178.4311768432820031, -194.6388114337496518 ) ) ;
#313 = MANIFOLD_SOLID_BREP ( 'ÊäÈë1', #343 ) ;
#314 = DIRECTION ( 'NONE',  ( -1.000000000000000000, 0.000000000000000000, -5.551115123125779621E-17 ) ) ;
#315 = EDGE_CURVE ( 'NONE', #310, #716, #466, .T. ) ;
#316 = ORIENTED_EDGE ( 'NONE', *, *, #330, .T. ) ;
#317 = CC_DESIGN_APPROVAL ( #700, ( #903 ) ) ;
#318 = ORIENTED_EDGE ( 'NONE', *, *, #446, .T. ) ;
#319 = CARTESIAN_POINT ( 'NONE',  ( -1.815963686647379838, 179.6899794613310064, -195.0804138479734888 ) ) ;
#320 = DIRECTION ( 'NONE',  ( 0.000000000000000000, 0.000000000000000000, -1.000000000000000000 ) ) ;
#321 = DIRECTION ( 'NONE',  ( 1.000000000000000000, 0.000000000000000000, 5.551115123125779621E-17 ) ) ;
#322 = ORIENTED_EDGE ( 'NONE', *, *, #931, .T. ) ;
#323 = EDGE_LOOP ( 'NONE', ( #928, #992, #275, #427 ) ) ;
#324 = CARTESIAN_POINT ( 'NONE',  ( -1.973305136883790167, 177.2846617079420639, -198.1415725434442834 ) ) ;
#325 = AXIS2_PLACEMENT_3D ( 'NONE', #774, #93, #440 ) ;
#326 = LINE ( 'NONE', #226, #491 ) ;
#327 = AXIS2_PLACEMENT_3D ( 'NONE', #179, #379, #882 ) ;
#328 = ORIENTED_EDGE ( 'NONE', *, *, #968, .F. ) ;
#329 = EDGE_LOOP ( 'NONE', ( #758, #818 ) ) ;
#330 = EDGE_CURVE ( 'NONE', #997, #1089, #800, .T. ) ;
#331 = DIRECTION ( 'NONE',  ( 0.000000000000000000, 0.000000000000000000, -1.000000000000000000 ) ) ;
#332 = ORIENTED_EDGE ( 'NONE', *, *, #362, .T. ) ;
#333 = CARTESIAN_POINT ( 'NONE',  ( 1.682833413780429943, 178.4311768432820031, -196.3921712539064970 ) ) ;
#334 =( NAMED_UNIT ( * ) PLANE_ANGLE_UNIT ( ) SI_UNIT ( $, .RADIAN. ) );
#335 = ADVANCED_FACE ( 'NONE', ( #887 ), #108, .T. ) ;
#336 = CARTESIAN_POINT ( 'NONE',  ( -1.973063042213159424, 179.5787097909113186, -198.1403737761718560 ) ) ;
#337 = AXIS2_PLACEMENT_3D ( 'NONE', #733, #739, #230 ) ;
#338 = VERTEX_POINT ( 'NONE', #27 ) ;
#339 = CARTESIAN_POINT ( 'NONE',  ( -2.064390864531945091, 178.4311768432820031, -198.6405058208939067 ) ) ;
#340 = DIRECTION ( 'NONE',  ( 1.000000000000000000, 0.000000000000000000, 0.000000000000000000 ) ) ;
#341 = FACE_BOUND ( 'NONE', #924, .T. ) ;
#342 = CARTESIAN_POINT ( 'NONE',  ( 20.36461014894815236, 178.4311768432820031, -196.7569461337667462 ) ) ;
#343 = CLOSED_SHELL ( 'NONE', ( #277, #633, #1065, #467, #497, #884, #368, #996, #825, #817, #429, #951, #32, #778, #201, #293, #563, #53, #207, #760, #82, #741, #335, #577, #1058, #659, #514, #898, #221, #1017, #28, #55, #542 ) ) ;
#344 = EDGE_CURVE ( 'NONE', #966, #149, #203, .T. ) ;
#345 = ORIENTED_EDGE ( 'NONE', *, *, #943, .T. ) ;
#346 = CONICAL_SURFACE ( 'NONE', #852, 3.176003640548041851, 0.6981317007977378974 ) ;
#347 = CARTESIAN_POINT ( 'NONE',  ( 0.9333885581179609536, 179.2555661845110251, -197.8200554781325025 ) ) ;
#348 = LINE ( 'NONE', #523, #140 ) ;
#349 = CYLINDRICAL_SURFACE ( 'NONE', #143, 0.4496669133974839916 ) ;
#350 = CARTESIAN_POINT ( 'NONE',  ( 1.233166500382933295, 178.4311768432820031, -193.6760622228599971 ) ) ;
#351 = EDGE_CURVE ( 'NONE', #803, #209, #755, .T. ) ;
#352 = LINE ( 'NONE', #696, #1081 ) ;
#353 = DIRECTION ( 'NONE',  ( -1.000000000000000000, -0.000000000000000000, -0.000000000000000000 ) ) ;
#354 = CARTESIAN_POINT ( 'NONE',  ( 0.9333885581179609536, 179.2555661845110251, -197.8200554781325025 ) ) ;
#355 = CARTESIAN_POINT ( 'NONE',  ( -2.064390864531945091, 178.4311768432820031, -196.3921712539064970 ) ) ;
#356 = CARTESIAN_POINT ( 'NONE',  ( 0.9333885581179609536, 177.9245629151665185, -194.6461375053594907 ) ) ;
#357 = CARTESIAN_POINT ( 'NONE',  ( 1.233166500382933739, 178.4311768432820031, -196.3921712539064970 ) ) ;
#358 = CARTESIAN_POINT ( 'NONE',  ( -1.903064382822219347, 177.1520951239382100, -194.8929490831734483 ) ) ;
#359 = VECTOR ( 'NONE', #561, 1000.000000000000000 ) ;
#360 = DIRECTION ( 'NONE',  ( -1.000000000000000000, 0.000000000000000000, -5.551115123125779621E-17 ) ) ;
#361 = ORIENTED_EDGE ( 'NONE', *, *, #181, .T. ) ;
#362 = EDGE_CURVE ( 'NONE', #571, #933, #1033, .T. ) ;
#363 = CARTESIAN_POINT ( 'NONE',  ( -1.950208444962173271, 179.2555661845069892, -198.2697223915437519 ) ) ;
#364 = DESIGN_CONTEXT ( 'detailed design', #948, 'design' ) ;
#365 = ORIENTED_EDGE ( 'NONE', *, *, #420, .T. ) ;
#366 = CARTESIAN_POINT ( 'NONE',  ( -1.671558248928776358, 179.8783742415016889, -197.0005868253172139 ) ) ;
#367 = DIRECTION ( 'NONE',  ( -1.000000000000000000, 0.000000000000000000, -5.551115123125779621E-17 ) ) ;
#368 = ADVANCED_FACE ( 'NONE', ( #416 ), #606, .T. ) ;
#369 = VECTOR ( 'NONE', #407, 1000.000000000000000 ) ;
#370 = EDGE_CURVE ( 'NONE', #743, #1027, #868, .T. ) ;
#371 = ORIENTED_EDGE ( 'NONE', *, *, #370, .T. ) ;
#372 = CARTESIAN_POINT ( 'NONE',  ( -1.815963686647379838, 176.6657602971179983, -195.9578949112920156 ) ) ;
#373 = DIRECTION ( 'NONE',  ( -1.000000000000000000, 0.000000000000000000, -5.551115123125779621E-17 ) ) ;
#374 = CARTESIAN_POINT ( 'NONE',  ( 0.9333885581179609536, 177.1723742252335114, -197.7039286598389936 ) ) ;
#375 = ORIENTED_EDGE ( 'NONE', *, *, #794, .F. ) ;
#376 = AXIS2_PLACEMENT_3D ( 'NONE', #1054, #731, #305 ) ;
#377 = CARTESIAN_POINT ( 'NONE',  ( -1.977750431838832812, 176.3329560876957487, -196.4957066030031001 ) ) ;
#378 = AXIS2_PLACEMENT_3D ( 'NONE', #357, #799, #111 ) ;
#379 = DIRECTION ( 'NONE',  ( -1.000000000000000000, 0.000000000000000000, -5.551115123125779621E-17 ) ) ;
#380 = DIRECTION ( 'NONE',  ( -9.644491424052111684E-17, 0.000000000000000000, 1.000000000000000000 ) ) ;
#381 = EDGE_CURVE ( 'NONE', #338, #589, #23, .T. ) ;
#382 = ORIENTED_EDGE ( 'NONE', *, *, #451, .F. ) ;
#383 = CARTESIAN_POINT ( 'NONE',  ( 0.9333885581179609536, 176.7823981608244992, -196.3921712539064970 ) ) ;
#384 = FACE_OUTER_BOUND ( 'NONE', #104, .T. ) ;
#385 = ORIENTED_EDGE ( 'NONE', *, *, #1, .F. ) ;
#386 = FACE_OUTER_BOUND ( 'NONE', #145, .T. ) ;
#387 = CIRCLE ( 'NONE', #553, 1.753359820156841220 ) ;
#388 = EDGE_CURVE ( 'NONE', #564, #900, #8, .T. ) ;
#389 = DIRECTION ( 'NONE',  ( -1.000000000000000000, 0.000000000000000000, -5.551115123125779621E-17 ) ) ;
#390 = CARTESIAN_POINT ( 'NONE',  ( -1.815963686647379838, 179.6899794613310064, -195.0804138479734888 ) ) ;
#391 = CARTESIAN_POINT ( 'NONE',  ( 0.9333885581179609536, 179.2555661845110251, -197.8200554781325025 ) ) ;
#392 = CARTESIAN_POINT ( 'NONE',  ( -1.653333284830565519, 178.5288425034025011, -194.8558092997980680 ) ) ;
#393 = ORIENTED_EDGE ( 'NONE', *, *, #845, .T. ) ;
#394 = VERTEX_POINT ( 'NONE', #175 ) ;
#395 = CONICAL_SURFACE ( 'NONE', #2, 3.176003640548041851, 0.6981317007977378974 ) ;
#396 = FACE_OUTER_BOUND ( 'NONE', #235, .T. ) ;
#397 = EDGE_CURVE ( 'NONE', #589, #900, #525, .T. ) ;
#398 = CARTESIAN_POINT ( 'NONE',  ( 1.233166500382934183, 178.4311768432820031, -199.1082802849529685 ) ) ;
#399 = ORIENTED_EDGE ( 'NONE', *, *, #362, .F. ) ;
#400 = ORIENTED_EDGE ( 'NONE', *, *, #622, .T. ) ;
#401 = DIRECTION ( 'NONE',  ( -1.000000000000000000, 0.000000000000000000, -5.551115123125779621E-17 ) ) ;
#402 = DIRECTION ( 'NONE',  ( -1.000000000000000000, 0.000000000000000000, -5.551115123125779621E-17 ) ) ;
#403 = APPROVAL ( #252, 'æœª' ) ;
#404 = EDGE_CURVE ( 'NONE', #338, #823, #442, .T. ) ;
#405 = ORIENTED_EDGE ( 'NONE', *, *, #147, .T. ) ;
#406 = ORIENTED_EDGE ( 'NONE', *, *, #160, .F. ) ;
#407 = DIRECTION ( 'NONE',  ( -1.000000000000000000, 0.000000000000000000, -5.551115123125779621E-17 ) ) ;
#408 = DIRECTION ( 'NONE',  ( -1.512385505241961566E-16, 0.000000000000000000, -1.000000000000000000 ) ) ;
#409 =( GEOMETRIC_REPRESENTATION_CONTEXT ( 3 ) GLOBAL_UNCERTAINTY_ASSIGNED_CONTEXT ( ( #19 ) ) GLOBAL_UNIT_ASSIGNED_CONTEXT ( ( #5, #334, #929 ) ) REPRESENTATION_CONTEXT ( 'NONE', 'WORKASPACE' ) );
#410 = EDGE_LOOP ( 'NONE', ( #893, #361 ) ) ;
#411 = ORIENTED_EDGE ( 'NONE', *, *, #1102, .F. ) ;
#412 = PERSON_AND_ORGANIZATION ( #156, #515 ) ;
#413 = B_SPLINE_CURVE_WITH_KNOTS ( 'NONE', 3,
 ( #415, #259, #1018, #441, #940, #164, #265, #756, #610, #1106 ),
 .UNSPECIFIED., .F., .F.,
 ( 4, 2, 2, 2, 4 ),
 ( 0.000000000000000000, 0.0002938570484089139375, 0.0005877140968178278749, 0.0008815711452267418124, 0.001175428193635655750 ),
 .UNSPECIFIED. ) ;
#414 = VECTOR ( 'NONE', #878, 1000.000000000000000 ) ;
#415 = CARTESIAN_POINT ( 'NONE',  ( -1.815963686647379838, 177.1723742252335114, -197.7039286598389936 ) ) ;
#416 = FACE_OUTER_BOUND ( 'NONE', #837, .T. ) ;
#417 = VECTOR ( 'NONE', #675, 1000.000000000000114 ) ;
#418 = VECTOR ( 'NONE', #373, 1000.000000000000000 ) ;
#419 = ORIENTED_EDGE ( 'NONE', *, *, #68, .F. ) ;
#420 = EDGE_CURVE ( 'NONE', #209, #1023, #158, .T. ) ;
#421 = ORIENTED_EDGE ( 'NONE', *, *, #732, .F. ) ;
#422 = COORDINATED_UNIVERSAL_TIME_OFFSET ( 8, 0, .AHEAD. ) ;
#423 = CARTESIAN_POINT ( 'NONE',  ( -1.927017939641803901, 179.6871338904743425, -197.9627974705470308 ) ) ;
#424 = DIRECTION ( 'NONE',  ( -0.7071067811865510144, -1.454740728241902348E-16, 0.7071067811865441310 ) ) ;
#425 = ORIENTED_EDGE ( 'NONE', *, *, #330, .F. ) ;
#426 = CARTESIAN_POINT ( 'NONE',  ( -1.815963686647379838, 180.1965933894465195, -195.9578949112920156 ) ) ;
#427 = ORIENTED_EDGE ( 'NONE', *, *, #96, .F. ) ;
#428 = DIRECTION ( 'NONE',  ( -1.000000000000000000, 0.000000000000000000, -5.551115123125779621E-17 ) ) ;
#429 = ADVANCED_FACE ( 'NONE', ( #763 ), #704, .T. ) ;
#430 = FACE_OUTER_BOUND ( 'NONE', #910, .T. ) ;
#431 = DIRECTION ( 'NONE',  ( -1.512385505241961566E-16, 0.000000000000000000, -1.000000000000000000 ) ) ;
#432 = CARTESIAN_POINT ( 'NONE',  ( 0.9333885581179609536, 180.2312495020129859, -196.9554822799100009 ) ) ;
#433 = APPROVAL_DATE_TIME ( #1012, #801 ) ;
#434 = DIRECTION ( 'NONE',  ( -1.000000000000000000, 0.000000000000000000, -5.551115123125779621E-17 ) ) ;
#435 = CARTESIAN_POINT ( 'NONE',  ( -1.731051433624375191, 176.8336243796215115, -195.8960570194624040 ) ) ;
#436 = CC_DESIGN_PERSON_AND_ORGANIZATION_ASSIGNMENT ( #773, #500, ( #828 ) ) ;
#437 = VECTOR ( 'NONE', #77, 1000.000000000000000 ) ;
#438 = CONICAL_SURFACE ( 'NONE', #888, 2.716109031046492817, 0.1745329251994331143 ) ;
#439 = DIRECTION ( 'NONE',  ( -0.4999999999999995004, -1.781686246118744394E-16, 0.8660254037844390407 ) ) ;
#440 = DIRECTION ( 'NONE',  ( 0.000000000000000000, 0.000000000000000000, -1.000000000000000000 ) ) ;
#441 = CARTESIAN_POINT ( 'NONE',  ( -1.671558248928582069, 177.1806748032725807, -197.3412731793497983 ) ) ;
#442 = LINE ( 'NONE', #180, #668 ) ;
#443 = CARTESIAN_POINT ( 'NONE',  ( -1.375025437423400110, 178.4311768432820031, -196.3921712539064970 ) ) ;
#444 = CARTESIAN_POINT ( 'NONE',  ( -2.064390864531945091, 178.4311768432820031, -196.3921712539064970 ) ) ;
#445 = CARTESIAN_POINT ( 'NONE',  ( 1.682833413780430165, 178.4311768432820031, -194.1257291362574904 ) ) ;
#446 = EDGE_CURVE ( 'NONE', #1085, #564, #831, .T. ) ;
#447 = DIRECTION ( 'NONE',  ( -1.000000000000000000, 0.000000000000000000, -5.551115123125779621E-17 ) ) ;
#448 = CARTESIAN_POINT ( 'NONE',  ( -1.815963686647379838, 178.9377907713979994, -198.1382050024530201 ) ) ;
#449 = AXIS2_PLACEMENT_3D ( 'NONE', #270, #428, #253 ) ;
#450 = AXIS2_PLACEMENT_3D ( 'NONE', #581, #587, #431 ) ;
#451 = EDGE_CURVE ( 'NONE', #743, #635, #213, .T. ) ;
#452 = EDGE_CURVE ( 'NONE', #184, #565, #42, .T. ) ;
#453 = CARTESIAN_POINT ( 'NONE',  ( 19.66950994967974964, 178.4311768432820031, -196.3921712539064970 ) ) ;
#454 = CARTESIAN_POINT ( 'NONE',  ( 0.9333885581179609536, 176.4798102082779963, -195.2655492018990060 ) ) ;
#455 = CARTESIAN_POINT ( 'NONE',  ( -1.653458752959209521, 179.8112913128211972, -197.0747631338605004 ) ) ;
#456 = EDGE_CURVE ( 'NONE', #149, #136, #4, .T. ) ;
#457 = LOCAL_TIME ( 16, 36, 33.00000000000000000, #885 ) ;
#458 = CARTESIAN_POINT ( 'NONE',  ( 1.233166500382933739, 178.4311768432820031, -196.3921712539064970 ) ) ;
#459 = EDGE_LOOP ( 'NONE', ( #742, #132, #481, #937 ) ) ;
#460 = CIRCLE ( 'NONE', #119, 0.4496669133974839916 ) ;
#461 = CARTESIAN_POINT ( 'NONE',  ( -1.815963686647379838, 177.1723742252335114, -195.0804138479734888 ) ) ;
#462 = ORIENTED_EDGE ( 'NONE', *, *, #46, .F. ) ;
#463 = SPHERICAL_SURFACE ( 'NONE', #875, 0.7850000000000000311 ) ;
#464 = DIRECTION ( 'NONE',  ( -1.000000000000000000, 0.000000000000000000, -5.551115123125779621E-17 ) ) ;
#465 = CARTESIAN_POINT ( 'NONE',  ( 0.9333885581179609536, 176.4798102082779963, -195.2655492018990060 ) ) ;
#466 = B_SPLINE_CURVE_WITH_KNOTS ( 'NONE', 3,
 ( #34, #723, #358, #31, #883, #190, #281, #1068, #806, #982 ),
 .UNSPECIFIED., .F., .F.,
 ( 4, 2, 2, 2, 4 ),
 ( 0.000000000000000000, 0.0003062649438218924334, 0.0006125298876437848669, 0.0009187948314656771377, 0.001225059775287569951 ),
 .UNSPECIFIED. ) ;
#467 = ADVANCED_FACE ( 'NONE', ( #43 ), #649, .T. ) ;
#468 = ORIENTED_EDGE ( 'NONE', *, *, #1095, .T. ) ;
#469 = B_SPLINE_CURVE_WITH_KNOTS ( 'NONE', 3,
 ( #886, #107, #280, #448 ),
 .UNSPECIFIED., .F., .F.,
 ( 4, 4 ),
 ( 0.0008492717847031304576, 0.001225059775286764172 ),
 .UNSPECIFIED. ) ;
#470 = VECTOR ( 'NONE', #787, 1000.000000000000114 ) ;
#471 = AXIS2_PLACEMENT_3D ( 'NONE', #120, #476, #560 ) ;
#472 = AXIS2_PLACEMENT_3D ( 'NONE', #1013, #657, #492 ) ;
#473 = DIRECTION ( 'NONE',  ( -1.000000000000000000, 0.000000000000000000, -5.551115123125779621E-17 ) ) ;
#474 = EDGE_LOOP ( 'NONE', ( #638, #332, #620, #797, #549 ) ) ;
#475 = CARTESIAN_POINT ( 'NONE',  ( -1.815963686647379838, 179.6899794613310064, -195.0804138479734888 ) ) ;
#476 = DIRECTION ( 'NONE',  ( -1.000000000000000000, 0.000000000000000000, -5.551115123125779621E-17 ) ) ;
#477 = CARTESIAN_POINT ( 'NONE',  ( -1.653333284830565741, 178.3331512337392724, -194.8558092997981817 ) ) ;
#478 = DIRECTION ( 'NONE',  ( -1.000000000000000000, 0.000000000000000000, -5.551115123125779621E-17 ) ) ;
#479 = ORIENTED_EDGE ( 'NONE', *, *, #381, .F. ) ;
#480 = EDGE_CURVE ( 'NONE', #1023, #833, #286, .T. ) ;
#481 = ORIENTED_EDGE ( 'NONE', *, *, #1095, .F. ) ;
#482 = LOCAL_TIME ( 16, 36, 33.00000000000000000, #761 ) ;
#483 = CARTESIAN_POINT ( 'NONE',  ( -1.979306613112039148, 177.3405414575508985, -198.1892694067335867 ) ) ;
#484 = DIRECTION ( 'NONE',  ( 1.000000000000000000, 0.000000000000000000, 5.551115123125779621E-17 ) ) ;
#485 = VERTEX_POINT ( 'NONE', #715 ) ;
#486 = ORIENTED_EDGE ( 'NONE', *, *, #784, .F. ) ;
#487 = AXIS2_PLACEMENT_3D ( 'NONE', #355, #163, #529 ) ;
#488 = EDGE_CURVE ( 'NONE', #900, #823, #1101, .T. ) ;
#489 = CARTESIAN_POINT ( 'NONE',  ( -1.731051433624760216, 179.6596006053202075, -195.2567073537194631 ) ) ;
#490 = AXIS2_PLACEMENT_3D ( 'NONE', #465, #807, #556 ) ;
#491 = VECTOR ( 'NONE', #314, 1000.000000000000000 ) ;
#492 = DIRECTION ( 'NONE',  ( -1.512385505241961566E-16, 0.000000000000000000, -1.000000000000000000 ) ) ;
#493 = ORIENTED_EDGE ( 'NONE', *, *, #569, .T. ) ;
#494 = CARTESIAN_POINT ( 'NONE',  ( 18.97602520865155284, 178.4311768432820031, -196.3921712539064970 ) ) ;
#495 = CARTESIAN_POINT ( 'NONE',  ( -1.815963686647379838, 178.9377907713979994, -194.6461375053594907 ) ) ;
#496 = CARTESIAN_POINT ( 'NONE',  ( 1.682833413780429721, 178.4311768432820031, -194.1257291362574904 ) ) ;
#497 = ADVANCED_FACE ( 'NONE', ( #892 ), #438, .T. ) ;
#498 = EDGE_LOOP ( 'NONE', ( #574, #365, #993, #421 ) ) ;
#499 = ORIENTED_EDGE ( 'NONE', *, *, #488, .F. ) ;
#500 = PERSON_AND_ORGANIZATION_ROLE ( 'design_owner' ) ;
#501 = DIRECTION ( 'NONE',  ( 1.596699042774098021E-16, 0.000000000000000000, -1.000000000000000000 ) ) ;
#502 = CARTESIAN_POINT ( 'NONE',  ( -1.671382538168089127, 178.6272055627608211, -197.9494765323534295 ) ) ;
#503 = CC_DESIGN_DATE_AND_TIME_ASSIGNMENT ( #864, #172, ( #628 ) ) ;
#504 = ORIENTED_EDGE ( 'NONE', *, *, #645, .F. ) ;
#505 = ORIENTED_EDGE ( 'NONE', *, *, #404, .F. ) ;
#506 = PERSON_AND_ORGANIZATION_ROLE ( 'classification_officer' ) ;
#507 = CARTESIAN_POINT ( 'NONE',  ( 0.9333885581179609536, 180.1965933894465195, -196.8264475965205236 ) ) ;
#508 = EDGE_LOOP ( 'NONE', ( #153, #710, #738, #222 ) ) ;
#509 = EDGE_LOOP ( 'NONE', ( #588, #804, #702, #292 ) ) ;
#510 = CALENDAR_DATE ( 2025, 19, 6 ) ;
#511 = CARTESIAN_POINT ( 'NONE',  ( -1.815963686647379838, 178.9377907713979994, -194.6461375053594907 ) ) ;
#512 = CARTESIAN_POINT ( 'NONE',  ( -1.375025437423400110, 178.4311768432820031, -196.3921712539064970 ) ) ;
#513 = LINE ( 'NONE', #963, #72 ) ;
#514 = ADVANCED_FACE ( 'NONE', ( #942, #102 ), #790, .F. ) ;
#515 = ORGANIZATION ( 'æœª', 'æœª', '' ) ;
#516 = DATE_TIME_ROLE ( 'creation_date' ) ;
#517 = CYLINDRICAL_SURFACE ( 'NONE', #106, 0.7168821499066446723 ) ;
#518 = CARTESIAN_POINT ( 'NONE',  ( 18.97602520865155284, 178.4311768432820031, -198.1455310740633138 ) ) ;
#519 = DIRECTION ( 'NONE',  ( -1.512385505241961566E-16, 0.000000000000000000, -1.000000000000000000 ) ) ;
#520 = APPROVAL_PERSON_ORGANIZATION ( #945, #801, #596 ) ;
#521 = CARTESIAN_POINT ( 'NONE',  ( 0.9333885581179609536, 176.6657602971179983, -196.8264475965205236 ) ) ;
#522 = DIRECTION ( 'NONE',  ( 0.000000000000000000, 0.000000000000000000, 1.000000000000000000 ) ) ;
#523 = CARTESIAN_POINT ( 'NONE',  ( 0.9333885581179609536, 179.2555661845110251, -198.2697223915299958 ) ) ;
#524 = CARTESIAN_POINT ( 'NONE',  ( 0.9333885581179609536, 180.1965933894465195, -195.9578949112920156 ) ) ;
#525 = LINE ( 'NONE', #95, #417 ) ;
#526 = VECTOR ( 'NONE', #776, 1000.000000000000000 ) ;
#527 = VERTEX_POINT ( 'NONE', #426 ) ;
#528 = CIRCLE ( 'NONE', #124, 0.3647748798602523657 ) ;
#529 = DIRECTION ( 'NONE',  ( 0.000000000000000000, 0.000000000000000000, -1.000000000000000000 ) ) ;
#530 = APPROVAL_DATE_TIME ( #624, #403 ) ;
#531 = DIRECTION ( 'NONE',  ( 0.000000000000000000, 0.000000000000000000, -1.000000000000000000 ) ) ;
#532 = CARTESIAN_POINT ( 'NONE',  ( 0.9333885581179609536, 179.2555661845110251, -194.9642870296800083 ) ) ;
#533 = DIRECTION ( 'NONE',  ( 0.7660444431189741277, 0.000000000000000000, -0.6427876096865440259 ) ) ;
#534 = CARTESIAN_POINT ( 'NONE',  ( -2.064390864531945091, 178.4311768432820031, -198.6405058208939067 ) ) ;
#535 = CARTESIAN_POINT ( 'NONE',  ( -1.730904604794227586, 178.0623196833588509, -198.0235602287005179 ) ) ;
#536 = CARTESIAN_POINT ( 'NONE',  ( -1.653209193869964455, 179.7132005381214697, -197.2440718857558579 ) ) ;
#537 = EDGE_CURVE ( 'NONE', #933, #35, #765, .T. ) ;
#538 = EDGE_LOOP ( 'NONE', ( #316, #583, #626, #847 ) ) ;
#539 = DIRECTION ( 'NONE',  ( -1.512385505241961566E-16, 0.000000000000000000, -1.000000000000000000 ) ) ;
#540 = AXIS2_PLACEMENT_3D ( 'NONE', #1069, #820, #644 ) ;
#541 = AXIS2_PLACEMENT_3D ( 'NONE', #391, #1007, #727 ) ;
#542 = ADVANCED_FACE ( 'NONE', ( #545 ), #177, .T. ) ;
#543 = VERTEX_POINT ( 'NONE', #302 ) ;
#544 = CARTESIAN_POINT ( 'NONE',  ( -1.815963686647379838, 180.1965933894465195, -196.8264475965205236 ) ) ;
#545 = FACE_OUTER_BOUND ( 'NONE', #660, .T. ) ;
#546 = DIRECTION ( 'NONE',  ( 1.000000000000000000, 0.000000000000000000, 0.000000000000000000 ) ) ;
#547 = EDGE_LOOP ( 'NONE', ( #672, #655, #345, #647 ) ) ;
#548 = FACE_OUTER_BOUND ( 'NONE', #459, .T. ) ;
#549 = ORIENTED_EDGE ( 'NONE', *, *, #629, .F. ) ;
#550 = EDGE_CURVE ( 'NONE', #838, #997, #123, .T. ) ;
#551 = DIRECTION ( 'NONE',  ( 1.000000000000000000, 0.000000000000000000, 5.551115123125779621E-17 ) ) ;
#552 = ORIENTED_EDGE ( 'NONE', *, *, #247, .T. ) ;
#553 = AXIS2_PLACEMENT_3D ( 'NONE', #494, #813, #912 ) ;
#554 = CARTESIAN_POINT ( 'NONE',  ( -1.975783502712050055, 177.4667814876986256, -198.2531884799123247 ) ) ;
#555 = CARTESIAN_POINT ( 'NONE',  ( -1.771156201403896846, 178.8750978041188944, -198.0755857556728756 ) ) ;
#556 = DIRECTION ( 'NONE',  ( -1.512385505241961566E-16, 0.000000000000000000, -1.000000000000000000 ) ) ;
#557 = ORIENTED_EDGE ( 'NONE', *, *, #709, .F. ) ;
#558 = CIRCLE ( 'NONE', #669, 3.176003640548041851 ) ;
#559 = DIRECTION ( 'NONE',  ( -0.7071067811865435759, -1.454740728241917879E-16, 0.7071067811865515695 ) ) ;
#560 = DIRECTION ( 'NONE',  ( 0.000000000000000000, 0.000000000000000000, -1.000000000000000000 ) ) ;
#561 = DIRECTION ( 'NONE',  ( -1.000000000000000000, 0.000000000000000000, -5.551115123125779621E-17 ) ) ;
#562 = CARTESIAN_POINT ( 'NONE',  ( 0.9333885581179609536, 177.6067875020534927, -197.8200554781325025 ) ) ;
#563 = ADVANCED_FACE ( 'NONE', ( #746 ), #1082, .T. ) ;
#564 = VERTEX_POINT ( 'NONE', #170 ) ;
#565 = VERTEX_POINT ( 'NONE', #319 ) ;
#566 = CARTESIAN_POINT ( 'NONE',  ( 1.233166500382934183, 178.4311768432820031, -199.1082802849529685 ) ) ;
#567 = CARTESIAN_POINT ( 'NONE',  ( -1.815963686647379838, 177.9245629151665185, -194.6461375053594907 ) ) ;
#568 = DIRECTION ( 'NONE',  ( 0.000000000000000000, 0.000000000000000000, -1.000000000000000000 ) ) ;
#569 = EDGE_CURVE ( 'NONE', #984, #969, #853, .T. ) ;
#570 = ORIENTED_EDGE ( 'NONE', *, *, #732, .T. ) ;
#571 = VERTEX_POINT ( 'NONE', #573 ) ;
#572 = FACE_OUTER_BOUND ( 'NONE', #842, .T. ) ;
#573 = CARTESIAN_POINT ( 'NONE',  ( -1.815963686647379838, 178.9377907713979994, -198.1382050024530201 ) ) ;
#574 = ORIENTED_EDGE ( 'NONE', *, *, #351, .T. ) ;
#575 = ORIENTED_EDGE ( 'NONE', *, *, #1048, .T. ) ;
#576 = VECTOR ( 'NONE', #88, 1000.000000000000000 ) ;
#577 = ADVANCED_FACE ( 'NONE', ( #384 ), #663, .F. ) ;
#578 = DIRECTION ( 'NONE',  ( -9.567437562536701567E-17, 0.000000000000000000, -1.000000000000000000 ) ) ;
#579 = VECTOR ( 'NONE', #94, 1000.000000000000000 ) ;
#580 = DIRECTION ( 'NONE',  ( 0.000000000000000000, 0.000000000000000000, -1.000000000000000000 ) ) ;
#581 = CARTESIAN_POINT ( 'NONE',  ( 0.9333885581179609536, 180.3825434782864932, -197.5187933059134764 ) ) ;
#582 = EDGE_LOOP ( 'NONE', ( #298, #229, #200, #234 ) ) ;
#583 = ORIENTED_EDGE ( 'NONE', *, *, #768, .T. ) ;
#584 = EDGE_CURVE ( 'NONE', #785, #751, #872, .T. ) ;
#585 = CARTESIAN_POINT ( 'NONE',  ( 0.9333885581179609536, 177.9245629151665185, -198.1382050024530201 ) ) ;
#586 = DIRECTION ( 'NONE',  ( 0.000000000000000000, 0.000000000000000000, 1.000000000000000000 ) ) ;
#587 = DIRECTION ( 'NONE',  ( -1.000000000000000000, 0.000000000000000000, -5.551115123125779621E-17 ) ) ;
#588 = ORIENTED_EDGE ( 'NONE', *, *, #388, .F. ) ;
#589 = VERTEX_POINT ( 'NONE', #1093 ) ;
#590 = MECHANICAL_CONTEXT ( 'NONE', #288, 'mechanical' ) ;
#591 = CARTESIAN_POINT ( 'NONE',  ( -1.771262399827203904, 178.8752463930040619, -194.7086083379798254 ) ) ;
#592 = CARTESIAN_POINT ( 'NONE',  ( -1.653458752959072076, 177.0510623737432638, -195.7095793739520104 ) ) ;
#593 = ORIENTED_EDGE ( 'NONE', *, *, #768, .F. ) ;
#594 = CARTESIAN_POINT ( 'NONE',  ( 18.97602520865155284, 178.4311768432820031, -194.6388114337496518 ) ) ;
#595 = DIRECTION ( 'NONE',  ( -6.827461773931831540E-17, 0.000000000000000000, 1.000000000000000000 ) ) ;
#596 = APPROVAL_ROLE ( '' ) ;
#597 = CIRCLE ( 'NONE', #449, 2.248334566987419958 ) ;
#598 = FACE_OUTER_BOUND ( 'NONE', #498, .T. ) ;
#599 = AXIS2_PLACEMENT_3D ( 'NONE', #995, #1080, #220 ) ;
#600 = EDGE_CURVE ( 'NONE', #150, #199, #57, .T. ) ;
#601 = EDGE_LOOP ( 'NONE', ( #322, #747, #911, #279 ) ) ;
#602 = DIRECTION ( 'NONE',  ( -2.775557561562895049E-17, -8.326672684688678984E-17, 1.000000000000000000 ) ) ;
#603 = PERSON_AND_ORGANIZATION_ROLE ( 'creator' ) ;
#604 = CYLINDRICAL_SURFACE ( 'NONE', #21, 0.7168821499066446723 ) ;
#605 = CARTESIAN_POINT ( 'NONE',  ( -1.375025437423400110, 178.4311768432820031, -199.5681748944545291 ) ) ;
#606 = CYLINDRICAL_SURFACE ( 'NONE', #687, 0.7168821499066446723 ) ;
#607 = CC_DESIGN_PERSON_AND_ORGANIZATION_ASSIGNMENT ( #1024, #506, ( #628 ) ) ;
#608 = DIRECTION ( 'NONE',  ( 0.000000000000000000, 0.000000000000000000, -1.000000000000000000 ) ) ;
#609 = CARTESIAN_POINT ( 'NONE',  ( -1.815963686647379838, 177.9245629151665185, -198.1382050024530201 ) ) ;
#610 = CARTESIAN_POINT ( 'NONE',  ( -1.771180025928659862, 176.7512911375588942, -196.8494194546005929 ) ) ;
#611 = CARTESIAN_POINT ( 'NONE',  ( 0.9333885581179609536, 176.6657602971179983, -195.9578949112920156 ) ) ;
#612 = AXIS2_PLACEMENT_3D ( 'NONE', #1016, #522, #1105 ) ;
#613 = DIRECTION ( 'NONE',  ( -1.512385505241961566E-16, 0.000000000000000000, -1.000000000000000000 ) ) ;
#614 = CARTESIAN_POINT ( 'NONE',  ( 1.233166500382933739, 178.4311768432820031, -196.3921712539064970 ) ) ;
#615 = AXIS2_PLACEMENT_3D ( 'NONE', #299, #115, #205 ) ;
#616 = VECTOR ( 'NONE', #424, 1000.000000000000000 ) ;
#617 = CIRCLE ( 'NONE', #472, 0.7168821499066446723 ) ;
#618 = CARTESIAN_POINT ( 'NONE',  ( -1.815963686647379838, 180.1965933894465195, -196.8264475965205236 ) ) ;
#619 = DIRECTION ( 'NONE',  ( -1.512385505241961566E-16, 0.000000000000000000, -1.000000000000000000 ) ) ;
#620 = ORIENTED_EDGE ( 'NONE', *, *, #160, .T. ) ;
#621 = CARTESIAN_POINT ( 'NONE',  ( -1.730756241144936203, 179.6595435276739749, -197.5269733746158920 ) ) ;
#622 = EDGE_CURVE ( 'NONE', #635, #271, #810, .T. ) ;
#623 = B_SPLINE_CURVE_WITH_KNOTS ( 'NONE', 3,
 ( #749, #986, #554, #483, #324, #692, #1114, #780 ),
 .UNSPECIFIED., .F., .F.,
 ( 4, 2, 2, 4 ),
 ( 0.0003768244345727145609, 0.0005888832697514105596, 0.0008009421049301067210, 0.001225059775287499044 ),
 .UNSPECIFIED. ) ;
#624 = DATE_AND_TIME ( #877, #457 ) ;
#625 = CARTESIAN_POINT ( 'NONE',  ( 20.36461014894815236, 178.4311768432820031, -196.0273963740462193 ) ) ;
#626 = ORIENTED_EDGE ( 'NONE', *, *, #215, .F. ) ;
#627 = DIRECTION ( 'NONE',  ( -1.000000000000000000, 0.000000000000000000, -5.551115123125779621E-17 ) ) ;
#628 = SECURITY_CLASSIFICATION ( '', '', #953 ) ;
#629 = EDGE_CURVE ( 'NONE', #846, #543, #832, .T. ) ;
#630 = CARTESIAN_POINT ( 'NONE',  ( 0.9333885581179609536, 176.4798102082779963, -197.5187933059134764 ) ) ;
#631 = CIRCLE ( 'NONE', #990, 2.597557364914876210 ) ;
#632 = DIRECTION ( 'NONE',  ( 1.000000000000000000, -0.000000000000000000, 5.551115123125779621E-17 ) ) ;
#633 = ADVANCED_FACE ( 'NONE', ( #815 ), #346, .T. ) ;
#634 = VECTOR ( 'NONE', #734, 1000.000000000000000 ) ;
#635 = VERTEX_POINT ( 'NONE', #1099 ) ;
#636 = ORIENTED_EDGE ( 'NONE', *, *, #973, .T. ) ;
#637 = CARTESIAN_POINT ( 'NONE',  ( -1.862686120837406145, 180.2858270295639898, -196.8024812411546236 ) ) ;
#638 = ORIENTED_EDGE ( 'NONE', *, *, #228, .T. ) ;
#639 = CARTESIAN_POINT ( 'NONE',  ( -1.903064382822208023, 180.3690821887255140, -196.0340650768045521 ) ) ;
#640 = CARTESIAN_POINT ( 'NONE',  ( -1.815963686647379838, 178.9377907713979994, -198.1382050024530201 ) ) ;
#641 = CARTESIAN_POINT ( 'NONE',  ( -1.961018834279766532, 179.2840104415293467, -194.5049122528684507 ) ) ;
#642 = ORIENTED_EDGE ( 'NONE', *, *, #600, .F. ) ;
#643 = FACE_OUTER_BOUND ( 'NONE', #582, .T. ) ;
#644 = DIRECTION ( 'NONE',  ( 1.596699042774098021E-16, 0.000000000000000000, -1.000000000000000000 ) ) ;
#645 = EDGE_CURVE ( 'NONE', #271, #716, #1073, .T. ) ;
#646 = CARTESIAN_POINT ( 'NONE',  ( -1.730899090731884638, 178.0623331885331311, -194.7607892456524610 ) ) ;
#647 = ORIENTED_EDGE ( 'NONE', *, *, #228, .F. ) ;
#648 = AXIS2_PLACEMENT_3D ( 'NONE', #90, #1035, #256 ) ;
#649 = CONICAL_SURFACE ( 'NONE', #904, 2.266442117648981291, 0.7853981633974539411 ) ;
#650 = ORIENTED_EDGE ( 'NONE', *, *, #456, .T. ) ;
#651 = CARTESIAN_POINT ( 'NONE',  ( -1.903201928533803100, 176.4929983160802180, -196.0339872516613866 ) ) ;
#652 = CARTESIAN_POINT ( 'NONE',  ( 17.78105046182094995, 178.4311768432820031, -196.3921712539064970 ) ) ;
#653 = CARTESIAN_POINT ( 'NONE',  ( -1.671382538168324272, 178.2351481238033273, -194.8348659754590813 ) ) ;
#654 = VERTEX_POINT ( 'NONE', #496 ) ;
#655 = ORIENTED_EDGE ( 'NONE', *, *, #241, .T. ) ;
#656 = CYLINDRICAL_SURFACE ( 'NONE', #1000, 0.7168821499066446723 ) ;
#657 = DIRECTION ( 'NONE',  ( 1.000000000000000000, 0.000000000000000000, 5.551115123125779621E-17 ) ) ;
#658 = CIRCLE ( 'NONE', #1002, 0.7168821499066446723 ) ;
#659 = ADVANCED_FACE ( 'NONE', ( #214 ), #962, .F. ) ;
#660 = EDGE_LOOP ( 'NONE', ( #664, #249, #1010, #238 ) ) ;
#661 = ORIENTED_EDGE ( 'NONE', *, *, #87, .T. ) ;
#662 = CARTESIAN_POINT ( 'NONE',  ( 0.9333885581179609536, 177.1723742252335114, -197.7039286598389936 ) ) ;
#663 = CYLINDRICAL_SURFACE ( 'NONE', #599, 0.4496669133974839916 ) ;
#664 = ORIENTED_EDGE ( 'NONE', *, *, #263, .F. ) ;
#665 = EDGE_CURVE ( 'NONE', #1085, #823, #301, .T. ) ;
#666 = ORIENTED_EDGE ( 'NONE', *, *, #263, .T. ) ;
#667 = CALENDAR_DATE ( 2025, 19, 6 ) ;
#668 = VECTOR ( 'NONE', #533, 1000.000000000000114 ) ;
#669 = AXIS2_PLACEMENT_3D ( 'NONE', #512, #1116, #873 ) ;
#670 = CARTESIAN_POINT ( 'NONE',  ( -1.653333284830565963, 178.4311768432820031, -194.8558092997981532 ) ) ;
#671 = ORIENTED_EDGE ( 'NONE', *, *, #96, .T. ) ;
#672 = ORIENTED_EDGE ( 'NONE', *, *, #985, .F. ) ;
#673 = PERSON_AND_ORGANIZATION_ROLE ( 'design_supplier' ) ;
#674 = DIRECTION ( 'NONE',  ( 0.000000000000000000, 0.000000000000000000, -1.000000000000000000 ) ) ;
#675 = DIRECTION ( 'NONE',  ( 0.7660444431189741277, 7.871877887342042996E-17, 0.6427876096865440259 ) ) ;
#676 = EDGE_LOOP ( 'NONE', ( #932, #661, #552, #788, #399, #70, #25, #856, #328, #1015, #196 ) ) ;
#677 = DIRECTION ( 'NONE',  ( -9.567437562536701567E-17, 0.000000000000000000, -1.000000000000000000 ) ) ;
#678 = APPROVAL_STATUS ( 'not_yet_approved' ) ;
#679 = VECTOR ( 'NONE', #559, 999.9999999999998863 ) ;
#680 = CYLINDRICAL_SURFACE ( 'NONE', #777, 0.4496669133974839916 ) ;
#681 = EDGE_CURVE ( 'NONE', #838, #969, #840, .T. ) ;
#682 = VERTEX_POINT ( 'NONE', #827 ) ;
#683 = DIRECTION ( 'NONE',  ( 0.000000000000000000, 0.000000000000000000, -1.000000000000000000 ) ) ;
#684 = COORDINATED_UNIVERSAL_TIME_OFFSET ( 8, 0, .AHEAD. ) ;
#685 = VECTOR ( 'NONE', #439, 999.9999999999998863 ) ;
#686 = PLANE ( 'NONE',  #193 ) ;
#687 = AXIS2_PLACEMENT_3D ( 'NONE', #1019, #169, #519 ) ;
#688 = CARTESIAN_POINT ( 'NONE',  ( -1.815963686647379838, 177.1723742252335114, -195.0804138479734888 ) ) ;
#689 = AXIS2_PLACEMENT_3D ( 'NONE', #630, #551, #539 ) ;
#690 = EDGE_CURVE ( 'NONE', #635, #310, #326, .T. ) ;
#691 = DIRECTION ( 'NONE',  ( -0.9238795325112882928, 0.000000000000000000, 0.3826834323650861180 ) ) ;
#692 = CARTESIAN_POINT ( 'NONE',  ( -1.933931830538966112, 177.1605599296327966, -197.9711612578785491 ) ) ;
#693 = DIRECTION ( 'NONE',  ( -1.000000000000000000, 0.000000000000000000, -5.551115123125779621E-17 ) ) ;
#694 = DIRECTION ( 'NONE',  ( -0.9848077530122081313, -3.572488387300970015E-17, 0.1736481776669304700 ) ) ;
#695 = EDGE_CURVE ( 'NONE', #271, #736, #617, .T. ) ;
#696 = CARTESIAN_POINT ( 'NONE',  ( 1.682833413780429721, 178.4311768432820031, -198.6586133715554752 ) ) ;
#697 = DIRECTION ( 'NONE',  ( 0.000000000000000000, 0.000000000000000000, -1.000000000000000000 ) ) ;
#698 = DIRECTION ( 'NONE',  ( 0.000000000000000000, 0.000000000000000000, -1.000000000000000000 ) ) ;
#699 = DIRECTION ( 'NONE',  ( -1.000000000000000000, 0.000000000000000000, -5.551115123125779621E-17 ) ) ;
#700 = APPROVAL ( #678, 'æœª' ) ;
#701 = CARTESIAN_POINT ( 'NONE',  ( 0.9333885581179609536, 180.3825434782864932, -195.2655492018990060 ) ) ;
#702 = ORIENTED_EDGE ( 'NONE', *, *, #665, .T. ) ;
#703 = CARTESIAN_POINT ( 'NONE',  ( -1.815963686647379838, 179.6899794613310064, -197.7039286598389936 ) ) ;
#704 = CONICAL_SURFACE ( 'NONE', #471, 0.5299375395643179942, 0.7853981633974433940 ) ;
#705 = CIRCLE ( 'NONE', #216, 0.7168821499066446723 ) ;
#706 = CARTESIAN_POINT ( 'NONE',  ( 17.78105046182094995, 178.4311768432820031, -196.3921712539064970 ) ) ;
#707 = EDGE_LOOP ( 'NONE', ( #131, #642, #998, #393 ) ) ;
#708 = CARTESIAN_POINT ( 'NONE',  ( -1.961584502038675959, 180.4932264919639522, -196.5952849119362611 ) ) ;
#709 = EDGE_CURVE ( 'NONE', #716, #1043, #208, .T. ) ;
#710 = ORIENTED_EDGE ( 'NONE', *, *, #695, .F. ) ;
#711 = CARTESIAN_POINT ( 'NONE',  ( -1.815963686647379838, 180.1965933894465195, -196.8264475965205236 ) ) ;
#712 = DIRECTION ( 'NONE',  ( -1.000000000000000000, 0.000000000000000000, -5.551115123125779621E-17 ) ) ;
#713 = EDGE_CURVE ( 'NONE', #209, #803, #528, .T. ) ;
#714 = DIRECTION ( 'NONE',  ( -0.4999999999999995004, 7.211110073938373556E-17, -0.8660254037844390407 ) ) ;
#715 = CARTESIAN_POINT ( 'NONE',  ( -2.064390864531945091, 178.4311768432820031, -194.1438366869190588 ) ) ;
#716 = VERTEX_POINT ( 'NONE', #567 ) ;
#717 = CARTESIAN_POINT ( 'NONE',  ( -1.950208444957250320, 177.6067875020535496, -198.2697223915301095 ) ) ;
#718 = VECTOR ( 'NONE', #691, 1000.000000000000114 ) ;
#719 = CONICAL_SURFACE ( 'NONE', #327, 2.248334566987419958, 1.047197551196598297 ) ;
#720 = ORIENTED_EDGE ( 'NONE', *, *, #936, .F. ) ;
#721 = LINE ( 'NONE', #17, #418 ) ;
#722 = B_SPLINE_CURVE_WITH_KNOTS ( 'NONE', 3,
 ( #295, #976, #639, #198, #891, #276, #708, #189, #637, #711 ),
 .UNSPECIFIED., .F., .F.,
 ( 4, 2, 2, 2, 4 ),
 ( 0.000000000000000000, 0.0003062649438220250856, 0.0006125298876440503880, 0.0009187948314660755820, 0.001225059775288100993 ),
 .UNSPECIFIED. ) ;
#723 = CARTESIAN_POINT ( 'NONE',  ( -1.862648210009926864, 177.1485322389800103, -194.9912244985493146 ) ) ;
#724 = ORIENTED_EDGE ( 'NONE', *, *, #681, .T. ) ;
#725 = DIRECTION ( 'NONE',  ( -1.000000000000000000, 0.000000000000000000, -5.551115123125779621E-17 ) ) ;
#726 = CARTESIAN_POINT ( 'NONE',  ( -1.903201928534111964, 179.7104625520565548, -194.8927514134022658 ) ) ;
#727 = DIRECTION ( 'NONE',  ( 0.000000000000000000, 0.000000000000000000, -1.000000000000000000 ) ) ;
#728 = CARTESIAN_POINT ( 'NONE',  ( 18.97602520865155284, 178.4311768432820031, -196.3921712539064970 ) ) ;
#729 = ORIENTED_EDGE ( 'NONE', *, *, #420, .F. ) ;
#730 = ORIENTED_EDGE ( 'NONE', *, *, #138, .T. ) ;
#731 = DIRECTION ( 'NONE',  ( -1.000000000000000000, 0.000000000000000000, 0.000000000000000000 ) ) ;
#732 = EDGE_CURVE ( 'NONE', #803, #833, #930, .T. ) ;
#733 = CARTESIAN_POINT ( 'NONE',  ( 0.9333885581179609536, 180.0799555257395070, -196.3921712539064970 ) ) ;
#734 = DIRECTION ( 'NONE',  ( -1.000000000000000000, 0.000000000000000000, -5.551115123125779621E-17 ) ) ;
#735 = CIRCLE ( 'NONE', #977, 0.4496669133974839916 ) ;
#736 = VERTEX_POINT ( 'NONE', #134 ) ;
#737 = AXIS2_PLACEMENT_3D ( 'NONE', #454, #712, #291 ) ;
#738 = ORIENTED_EDGE ( 'NONE', *, *, #645, .T. ) ;
#739 = DIRECTION ( 'NONE',  ( -1.000000000000000000, 0.000000000000000000, -5.551115123125779621E-17 ) ) ;
#740 = CARTESIAN_POINT ( 'NONE',  ( -1.950208444957250320, 177.6067875020535496, -198.2697223915301095 ) ) ;
#741 = ADVANCED_FACE ( 'NONE', ( #56 ), #836, .F. ) ;
#742 = ORIENTED_EDGE ( 'NONE', *, *, #125, .T. ) ;
#743 = VERTEX_POINT ( 'NONE', #7 ) ;
#744 = CARTESIAN_POINT ( 'NONE',  ( -1.815963686647379838, 176.6657602971179983, -195.9578949112920156 ) ) ;
#745 = DIRECTION ( 'NONE',  ( -1.512385505241961566E-16, 0.000000000000000000, -1.000000000000000000 ) ) ;
#746 = FACE_OUTER_BOUND ( 'NONE', #752, .T. ) ;
#747 = ORIENTED_EDGE ( 'NONE', *, *, #1011, .T. ) ;
#748 = ORIENTED_EDGE ( 'NONE', *, *, #808, .F. ) ;
#749 = CARTESIAN_POINT ( 'NONE',  ( -1.950208444957250320, 177.6067875020535496, -198.2697223915301095 ) ) ;
#750 = DIRECTION ( 'NONE',  ( 1.000000000000000000, 0.000000000000000000, 0.000000000000000000 ) ) ;
#751 = VERTEX_POINT ( 'NONE', #524 ) ;
#752 = EDGE_LOOP ( 'NONE', ( #468, #165, #748, #720 ) ) ;
#753 = AXIS2_PLACEMENT_3D ( 'NONE', #1047, #955, #22 ) ;
#754 = COORDINATED_UNIVERSAL_TIME_OFFSET ( 8, 0, .AHEAD. ) ;
#755 = CIRCLE ( 'NONE', #194, 0.3647748798602523657 ) ;
#756 = CARTESIAN_POINT ( 'NONE',  ( -1.730756241144649543, 176.8342260362836100, -196.8885669473971234 ) ) ;
#757 = CARTESIAN_POINT ( 'NONE',  ( -2.064390864531945091, 178.4311768432820031, -196.3921712539064970 ) ) ;
#758 = ORIENTED_EDGE ( 'NONE', *, *, #351, .F. ) ;
#759 = CARTESIAN_POINT ( 'NONE',  ( -1.873403721735511063, 177.8441949538599545, -198.2184784592805613 ) ) ;
#760 = ADVANCED_FACE ( 'NONE', ( #1038 ), #349, .F. ) ;
#761 = COORDINATED_UNIVERSAL_TIME_OFFSET ( 8, 0, .AHEAD. ) ;
#762 = CARTESIAN_POINT ( 'NONE',  ( 0.9333885581179609536, 179.2555661845110251, -194.9642870296800083 ) ) ;
#763 = FACE_OUTER_BOUND ( 'NONE', #99, .T. ) ;
#764 = ORIENTED_EDGE ( 'NONE', *, *, #973, .F. ) ;
#765 = LINE ( 'NONE', #339, #850 ) ;
#766 = DIRECTION ( 'NONE',  ( 0.000000000000000000, 0.000000000000000000, -1.000000000000000000 ) ) ;
#767 = LOCAL_TIME ( 16, 36, 33.00000000000000000, #684 ) ;
#768 = EDGE_CURVE ( 'NONE', #1089, #793, #413, .T. ) ;
#769 = DIRECTION ( 'NONE',  ( -1.000000000000000000, 0.000000000000000000, -5.551115123125779621E-17 ) ) ;
#770 = CARTESIAN_POINT ( 'NONE',  ( -1.771180025928627444, 177.1952454327845601, -195.1659716576423875 ) ) ;
#771 = DIRECTION ( 'NONE',  ( 2.775557561562895049E-17, 8.326672684688678984E-17, -1.000000000000000000 ) ) ;
#772 = CARTESIAN_POINT ( 'NONE',  ( 1.682833413780429943, 178.4311768432820031, -196.3921712539064970 ) ) ;
#773 = PERSON_AND_ORGANIZATION ( #156, #515 ) ;
#774 = CARTESIAN_POINT ( 'NONE',  ( -2.064390864531945091, 178.4311768432820031, -196.3921712539064970 ) ) ;
#775 = CARTESIAN_POINT ( 'NONE',  ( -1.815963686647379838, 176.6657602971179983, -196.8264475965205236 ) ) ;
#776 = DIRECTION ( 'NONE',  ( -1.000000000000000000, 0.000000000000000000, -5.551115123125779621E-17 ) ) ;
#777 = AXIS2_PLACEMENT_3D ( 'NONE', #762, #1025, #331 ) ;
#778 = ADVANCED_FACE ( 'NONE', ( #430 ), #680, .F. ) ;
#779 = DIRECTION ( 'NONE',  ( -1.000000000000000000, 0.000000000000000000, -5.551115123125779621E-17 ) ) ;
#780 = CARTESIAN_POINT ( 'NONE',  ( -1.815963686647379838, 177.1723742252335114, -197.7039286598389936 ) ) ;
#781 = CARTESIAN_POINT ( 'NONE',  ( 0.9333885581179608426, 178.4311768432820031, -194.8558092997981532 ) ) ;
#782 = DIRECTION ( 'NONE',  ( 0.000000000000000000, 0.000000000000000000, -1.000000000000000000 ) ) ;
#783 = B_SPLINE_CURVE_WITH_KNOTS ( 'NONE', 3,
 ( #475, #819, #489, #925, #826, #66, #918, #219, #122, #834 ),
 .UNSPECIFIED., .F., .F.,
 ( 4, 2, 2, 2, 4 ),
 ( 0.000000000000000000, 0.0002938570484089247253, 0.0005877140968178494506, 0.0008815711452267742301, 0.001175428193635698901 ),
 .UNSPECIFIED. ) ;
#784 = EDGE_CURVE ( 'NONE', #1027, #310, #816, .T. ) ;
#785 = VERTEX_POINT ( 'NONE', #245 ) ;
#786 = SHAPE_DEFINITION_REPRESENTATION ( #112, #1022 ) ;
#787 = DIRECTION ( 'NONE',  ( -0.9238795325112882928, 4.686520405326253595E-17, -0.3826834323650861180 ) ) ;
#788 = ORIENTED_EDGE ( 'NONE', *, *, #537, .F. ) ;
#789 = CARTESIAN_POINT ( 'NONE',  ( -1.375025437423400110, 178.4311768432820031, -193.2161676133584365 ) ) ;
#790 = PLANE ( 'NONE',  #1063 ) ;
#791 = CARTESIAN_POINT ( 'NONE',  ( 0.9333885581179609536, 179.2555661845110251, -198.2697223915299958 ) ) ;
#792 = FACE_OUTER_BOUND ( 'NONE', #329, .T. ) ;
#793 = VERTEX_POINT ( 'NONE', #775 ) ;
#794 = EDGE_CURVE ( 'NONE', #823, #900, #558, .T. ) ;
#795 = CARTESIAN_POINT ( 'NONE',  ( -1.975864772671334757, 179.3958504018063707, -198.2532345843695225 ) ) ;
#796 = DIRECTION ( 'NONE',  ( -1.000000000000000000, 0.000000000000000000, -5.551115123125779621E-17 ) ) ;
#797 = ORIENTED_EDGE ( 'NONE', *, *, #110, .F. ) ;
#798 = APPROVAL_PERSON_ORGANIZATION ( #1109, #700, #151 ) ;
#799 = DIRECTION ( 'NONE',  ( -1.000000000000000000, 0.000000000000000000, -5.551115123125779621E-17 ) ) ;
#800 = LINE ( 'NONE', #374, #848 ) ;
#801 = APPROVAL ( #10, 'æœª' ) ;
#802 = DIRECTION ( 'NONE',  ( 0.000000000000000000, 0.000000000000000000, 1.000000000000000000 ) ) ;
#803 = VERTEX_POINT ( 'NONE', #342 ) ;
#804 = ORIENTED_EDGE ( 'NONE', *, *, #835, .T. ) ;
#805 = CARTESIAN_POINT ( 'NONE',  ( 17.78105046182094995, 178.4311768432820031, -198.6405058208939067 ) ) ;
#806 = CARTESIAN_POINT ( 'NONE',  ( -1.862686120837416359, 177.8591906225246930, -194.5808420838285144 ) ) ;
#807 = DIRECTION ( 'NONE',  ( 1.000000000000000000, 0.000000000000000000, 5.551115123125779621E-17 ) ) ;
#808 = EDGE_CURVE ( 'NONE', #150, #1039, #157, .T. ) ;
#809 = AXIS2_PLACEMENT_3D ( 'NONE', #728, #113, #802 ) ;
#810 = CIRCLE ( 'NONE', #197, 0.4496669133974839916 ) ;
#811 = VERTEX_POINT ( 'NONE', #507 ) ;
#812 = CARTESIAN_POINT ( 'NONE',  ( -1.815963686647379838, 176.6657602971179983, -196.8264475965205236 ) ) ;
#813 = DIRECTION ( 'NONE',  ( 1.000000000000000000, 0.000000000000000000, 0.000000000000000000 ) ) ;
#814 = CARTESIAN_POINT ( 'NONE',  ( 1.682833413780429943, 178.4311768432820031, -196.3921712539064970 ) ) ;
#815 = FACE_OUTER_BOUND ( 'NONE', #75, .T. ) ;
#816 = B_SPLINE_CURVE_WITH_KNOTS ( 'NONE', 3,
 ( #240, #956, #435, #861, #592, #174, #935, #84, #770, #688 ),
 .UNSPECIFIED., .F., .F.,
 ( 4, 2, 2, 2, 4 ),
 ( 0.000000000000000000, 0.0002938570484088704610, 0.0005877140968177409219, 0.0008815711452266113829, 0.001175428193635481844 ),
 .UNSPECIFIED. ) ;
#817 = ADVANCED_FACE ( 'NONE', ( #598 ), #269, .T. ) ;
#818 = ORIENTED_EDGE ( 'NONE', *, *, #713, .F. ) ;
#819 = CARTESIAN_POINT ( 'NONE',  ( -1.771238467806036221, 179.6671381002974499, -195.1658600062287690 ) ) ;
#820 = DIRECTION ( 'NONE',  ( -1.000000000000000000, 0.000000000000000000, -5.551115123125779621E-17 ) ) ;
#821 = DIRECTION ( 'NONE',  ( -1.000000000000000000, 0.000000000000000000, -5.551115123125779621E-17 ) ) ;
#822 = AXIS2_PLACEMENT_3D ( 'NONE', #127, #389, #901 ) ;
#823 = VERTEX_POINT ( 'NONE', #605 ) ;
#824 = ORIENTED_EDGE ( 'NONE', *, *, #20, .F. ) ;
#825 = ADVANCED_FACE ( 'NONE', ( #13 ), #947, .F. ) ;
#826 = CARTESIAN_POINT ( 'NONE',  ( -1.653458752959369837, 179.7123759865090733, -195.5382530031320130 ) ) ;
#827 = CARTESIAN_POINT ( 'NONE',  ( -1.950208444962173271, 179.2555661845069892, -198.2697223915437519 ) ) ;
#828 = PRODUCT ( '\X2\9489\X0\', '\X2\9489\X0\', '', ( #590 ) ) ;
#829 = VECTOR ( 'NONE', #769, 1000.000000000000000 ) ;
#830 = ORIENTED_EDGE ( 'NONE', *, *, #550, .F. ) ;
#831 = CIRCLE ( 'NONE', #540, 2.716109031046492817 ) ;
#832 = CIRCLE ( 'NONE', #58, 0.7168821499066446723 ) ;
#833 = VERTEX_POINT ( 'NONE', #518 ) ;
#834 = CARTESIAN_POINT ( 'NONE',  ( -1.815963686647379838, 180.1965933894465195, -195.9578949112920156 ) ) ;
#835 = EDGE_CURVE ( 'NONE', #564, #1085, #289, .T. ) ;
#836 = CYLINDRICAL_SURFACE ( 'NONE', #1050, 0.4496669133974839916 ) ;
#837 = EDGE_LOOP ( 'NONE', ( #1107, #188, #1090, #824 ) ) ;
#838 = VERTEX_POINT ( 'NONE', #867 ) ;
#839 = LINE ( 'NONE', #206, #369 ) ;
#840 = LINE ( 'NONE', #926, #359 ) ;
#841 = ORIENTED_EDGE ( 'NONE', *, *, #344, .T. ) ;
#842 = EDGE_LOOP ( 'NONE', ( #60, #906, #671, #970 ) ) ;
#843 = CARTESIAN_POINT ( 'NONE',  ( -1.848327697999260222, 179.7065079006977157, -197.7657591104749315 ) ) ;
#844 = CARTESIAN_POINT ( 'NONE',  ( -1.653333284830293293, 178.5292024528247623, -197.9285332080143860 ) ) ;
#845 = EDGE_CURVE ( 'NONE', #1039, #682, #262, .T. ) ;
#846 = VERTEX_POINT ( 'NONE', #100 ) ;
#847 = ORIENTED_EDGE ( 'NONE', *, *, #874, .F. ) ;
#848 = VECTOR ( 'NONE', #186, 1000.000000000000000 ) ;
#849 = APPROVAL_DATE_TIME ( #859, #700 ) ;
#850 = VECTOR ( 'NONE', #714, 999.9999999999998863 ) ;
#851 = LINE ( 'NONE', #585, #437 ) ;
#852 = AXIS2_PLACEMENT_3D ( 'NONE', #148, #750, #141 ) ;
#853 = B_SPLINE_CURVE_WITH_KNOTS ( 'NONE', 3,
 ( #964, #759, #1040, #740 ),
 .UNSPECIFIED., .F., .F.,
 ( 4, 4 ),
 ( 0.000000000000000000, 0.0003768244345727145609 ),
 .UNSPECIFIED. ) ;
#854 = CARTESIAN_POINT ( 'NONE',  ( -1.877626318392245697, 179.7099777204602731, -197.8317224068295275 ) ) ;
#855 = CARTESIAN_POINT ( 'NONE',  ( 20.19944748924410050, 178.4311768432820031, -195.8622337143421532 ) ) ;
#856 = ORIENTED_EDGE ( 'NONE', *, *, #916, .F. ) ;
#857 = ORIENTED_EDGE ( 'NONE', *, *, #282, .F. ) ;
#858 = DIRECTION ( 'NONE',  ( 1.596699042774098021E-16, 0.000000000000000000, -1.000000000000000000 ) ) ;
#859 = DATE_AND_TIME ( #236, #135 ) ;
#860 = DIRECTION ( 'NONE',  ( -1.000000000000000000, 0.000000000000000000, -5.551115123125779621E-17 ) ) ;
#861 = CARTESIAN_POINT ( 'NONE',  ( -1.671558248928638468, 176.9839794450626300, -195.7837556824952685 ) ) ;
#862 = CIRCLE ( 'NONE', #337, 0.4496669133974839916 ) ;
#863 = FACE_OUTER_BOUND ( 'NONE', #979, .T. ) ;
#864 = DATE_AND_TIME ( #76, #767 ) ;
#865 = FACE_OUTER_BOUND ( 'NONE', #116, .T. ) ;
#866 = EDGE_CURVE ( 'NONE', #654, #121, #74, .T. ) ;
#867 = CARTESIAN_POINT ( 'NONE',  ( 0.9333885581179609536, 177.6067875020534927, -198.2697223915299958 ) ) ;
#868 = LINE ( 'NONE', #611, #526 ) ;
#869 = LINE ( 'NONE', #594, #718 ) ;
#870 = APPLICATION_PROTOCOL_DEFINITION ( 'international standard', 'config_control_design', 1994, #948 ) ;
#871 = DIRECTION ( 'NONE',  ( 2.775557561562895049E-17, 8.326672684688678984E-17, -1.000000000000000000 ) ) ;
#872 = CIRCLE ( 'NONE', #1083, 0.7168821499066446723 ) ;
#873 = DIRECTION ( 'NONE',  ( -6.827461773931831540E-17, 0.000000000000000000, 1.000000000000000000 ) ) ;
#874 = EDGE_CURVE ( 'NONE', #997, #59, #92, .T. ) ;
#875 = AXIS2_PLACEMENT_3D ( 'NONE', #453, #1067, #202 ) ;
#876 = CYLINDRICAL_SURFACE ( 'NONE', #487, 2.248334566987419958 ) ;
#877 = CALENDAR_DATE ( 2025, 19, 6 ) ;
#878 = DIRECTION ( 'NONE',  ( -1.000000000000000000, 0.000000000000000000, -5.551115123125779621E-17 ) ) ;
#879 = DIRECTION ( 'NONE',  ( 0.000000000000000000, 0.000000000000000000, -1.000000000000000000 ) ) ;
#880 = FACE_OUTER_BOUND ( 'NONE', #707, .T. ) ;
#881 = CARTESIAN_POINT ( 'NONE',  ( 0.9333885581179609536, 180.1965933894465195, -195.9578949112920156 ) ) ;
#882 = DIRECTION ( 'NONE',  ( 0.000000000000000000, 0.000000000000000000, -1.000000000000000000 ) ) ;
#883 = CARTESIAN_POINT ( 'NONE',  ( -1.977750431838801948, 177.2924022229818775, -194.6268264513691406 ) ) ;
#884 = ADVANCED_FACE ( 'NONE', ( #981 ), #719, .F. ) ;
#885 = COORDINATED_UNIVERSAL_TIME_OFFSET ( 8, 0, .AHEAD. ) ;
#886 = CARTESIAN_POINT ( 'NONE',  ( -1.950208444962173271, 179.2555661845069892, -198.2697223915437519 ) ) ;
#887 = FACE_OUTER_BOUND ( 'NONE', #1100, .T. ) ;
#888 = AXIS2_PLACEMENT_3D ( 'NONE', #458, #244, #858 ) ;
#889 = AXIS2_PLACEMENT_3D ( 'NONE', #614, #960, #501 ) ;
#890 = CC_DESIGN_PERSON_AND_ORGANIZATION_ASSIGNMENT ( #257, #673, ( #972 ) ) ;
#891 = CARTESIAN_POINT ( 'NONE',  ( -1.977750431838836365, 180.5293975988682007, -196.2886359048098370 ) ) ;
#892 = FACE_OUTER_BOUND ( 'NONE', #1060, .T. ) ;
#893 = ORIENTED_EDGE ( 'NONE', *, *, #381, .T. ) ;
#894 = CYLINDRICAL_SURFACE ( 'NONE', #615, 0.4496669133974839916 ) ;
#895 = ORIENTED_EDGE ( 'NONE', *, *, #784, .T. ) ;
#896 = CARTESIAN_POINT ( 'NONE',  ( -1.731051433624545055, 180.0287293069429495, -196.8882854883500784 ) ) ;
#897 = CARTESIAN_POINT ( 'NONE',  ( -2.064390864531945091, 178.4311768432820031, -198.6405058208939067 ) ) ;
#898 = ADVANCED_FACE ( 'NONE', ( #1049 ), #905, .T. ) ;
#899 = AXIS2_PLACEMENT_3D ( 'NONE', #47, #725, #1006 ) ;
#900 = VERTEX_POINT ( 'NONE', #789 ) ;
#901 = DIRECTION ( 'NONE',  ( 0.000000000000000000, 0.000000000000000000, -1.000000000000000000 ) ) ;
#902 = CARTESIAN_POINT ( 'NONE',  ( -1.862686120837395043, 179.7138408088067081, -194.9911520710766411 ) ) ;
#903 = PRODUCT_DEFINITION ( 'æœ', '', #972, #364 ) ;
#904 = AXIS2_PLACEMENT_3D ( 'NONE', #772, #796, #952 ) ;
#905 = CONICAL_SURFACE ( 'NONE', #378, 2.716109031046492817, 0.1745329251994331143 ) ;
#906 = ORIENTED_EDGE ( 'NONE', *, *, #866, .T. ) ;
#907 = CYLINDRICAL_SURFACE ( 'NONE', #899, 0.4496669133974839916 ) ;
#908 = CARTESIAN_POINT ( 'NONE',  ( -1.903064382822285294, 179.0900004693815504, -194.5348429060717592 ) ) ;
#909 = CARTESIAN_POINT ( 'NONE',  ( -1.815963686647379838, 177.9245629151665185, -194.6461375053594907 ) ) ;
#910 = EDGE_LOOP ( 'NONE', ( #958, #1020, #975, #764 ) ) ;
#911 = ORIENTED_EDGE ( 'NONE', *, *, #125, .F. ) ;
#912 = DIRECTION ( 'NONE',  ( 0.000000000000000000, 0.000000000000000000, -1.000000000000000000 ) ) ;
#913 = DIRECTION ( 'NONE',  ( -0.7071067811865511255, 5.887846720064131299E-17, -0.7071067811865440200 ) ) ;
#914 = CC_DESIGN_SECURITY_CLASSIFICATION ( #628, ( #972 ) ) ;
#915 = ORIENTED_EDGE ( 'NONE', *, *, #690, .T. ) ;
#916 = EDGE_CURVE ( 'NONE', #9, #1039, #983, .T. ) ;
#917 = ORIENTED_EDGE ( 'NONE', *, *, #404, .T. ) ;
#918 = CARTESIAN_POINT ( 'NONE',  ( -1.671201769342292476, 179.8773273642622428, -195.7828039942789360 ) ) ;
#919 = CARTESIAN_POINT ( 'NONE',  ( 0.9333885581179609536, 177.6067875020534927, -194.9642870296800083 ) ) ;
#920 = CIRCLE ( 'NONE', #1028, 2.266442117648981291 ) ;
#921 = CARTESIAN_POINT ( 'NONE',  ( -1.671382248586775088, 178.6272072274051652, -194.8348664393880654 ) ) ;
#922 = ORIENTED_EDGE ( 'NONE', *, *, #397, .F. ) ;
#923 = AXIS2_PLACEMENT_3D ( 'NONE', #971, #627, #185 ) ;
#924 = EDGE_LOOP ( 'NONE', ( #650, #730 ) ) ;
#925 = CARTESIAN_POINT ( 'NONE',  ( -1.671558248928963542, 179.6816788832919372, -195.4430693284626841 ) ) ;
#926 = CARTESIAN_POINT ( 'NONE',  ( 0.9333885581179609536, 177.6067875020534927, -198.2697223915299958 ) ) ;
#927 = ORIENTED_EDGE ( 'NONE', *, *, #874, .T. ) ;
#928 = ORIENTED_EDGE ( 'NONE', *, *, #68, .T. ) ;
#929 =( NAMED_UNIT ( * ) SI_UNIT ( $, .STERADIAN. ) SOLID_ANGLE_UNIT ( ) );
#930 = LINE ( 'NONE', #152, #991 ) ;
#931 = EDGE_CURVE ( 'NONE', #785, #565, #721, .T. ) ;
#932 = ORIENTED_EDGE ( 'NONE', *, *, #101, .F. ) ;
#933 = VERTEX_POINT ( 'NONE', #967 ) ;
#934 = PERSON_AND_ORGANIZATION ( #156, #515 ) ;
#935 = CARTESIAN_POINT ( 'NONE',  ( -1.671201769342133492, 177.1803740557204492, -195.4444517948550128 ) ) ;
#936 = EDGE_CURVE ( 'NONE', #811, #150, #705, .T. ) ;
#937 = ORIENTED_EDGE ( 'NONE', *, *, #1026, .F. ) ;
#938 = ORIENTED_EDGE ( 'NONE', *, *, #215, .T. ) ;
#939 = APPROVAL_ROLE ( '' ) ;
#940 = CARTESIAN_POINT ( 'NONE',  ( -1.653458752958980815, 177.1499777000553877, -197.2460895046804694 ) ) ;
#941 = EDGE_LOOP ( 'NONE', ( #1059, #557, #191, #486, #857, #593, #411, #1005, #406, #126, #311 ) ) ;
#942 = FACE_OUTER_BOUND ( 'NONE', #410, .T. ) ;
#943 = EDGE_CURVE ( 'NONE', #682, #571, #469, .T. ) ;
#944 = FACE_OUTER_BOUND ( 'NONE', #1074, .T. ) ;
#945 = PERSON_AND_ORGANIZATION ( #156, #515 ) ;
#946 = LINE ( 'NONE', #258, #576 ) ;
#947 = CYLINDRICAL_SURFACE ( 'NONE', #1064, 0.4496669133974839916 ) ;
#948 = APPLICATION_CONTEXT ( 'configuration controlled 3d designs of mechanical parts and assemblies' ) ;
#949 = APPROVAL_PERSON_ORGANIZATION ( #1030, #403, #939 ) ;
#950 = DIRECTION ( 'NONE',  ( -1.000000000000000000, 0.000000000000000000, -5.551115123125779621E-17 ) ) ;
#951 = ADVANCED_FACE ( 'NONE', ( #792 ), #463, .T. ) ;
#952 = DIRECTION ( 'NONE',  ( -9.567437562536701567E-17, 0.000000000000000000, -1.000000000000000000 ) ) ;
#953 = SECURITY_CLASSIFICATION_LEVEL ( 'unclassified' ) ;
#954 = CIRCLE ( 'NONE', #223, 0.4496669133974839916 ) ;
#955 = DIRECTION ( 'NONE',  ( -1.000000000000000000, 0.000000000000000000, -5.551115123125779621E-17 ) ) ;
#956 = CARTESIAN_POINT ( 'NONE',  ( -1.771238467806066863, 176.7511795213396795, -195.9349530310764180 ) ) ;
#957 = DIRECTION ( 'NONE',  ( 0.000000000000000000, 0.000000000000000000, -1.000000000000000000 ) ) ;
#958 = ORIENTED_EDGE ( 'NONE', *, *, #20, .T. ) ;
#959 = CARTESIAN_POINT ( 'NONE',  ( 0.9333885581179609536, 176.6657602971179983, -196.8264475965205236 ) ) ;
#960 = DIRECTION ( 'NONE',  ( -1.000000000000000000, 0.000000000000000000, -5.551115123125779621E-17 ) ) ;
#961 = DIRECTION ( 'NONE',  ( -1.000000000000000000, -0.000000000000000000, -5.551115123125779621E-17 ) ) ;
#962 = CONICAL_SURFACE ( 'NONE', #250, 2.248334566987419958, 1.047197551196598297 ) ;
#963 = CARTESIAN_POINT ( 'NONE',  ( 0.9333885581179609536, 178.9377907713979994, -194.6461375053594907 ) ) ;
#964 = CARTESIAN_POINT ( 'NONE',  ( -1.815963686647379838, 177.9245629151665185, -198.1382050024530201 ) ) ;
#965 = CARTESIAN_POINT ( 'NONE',  ( 0.9333885581179609536, 178.4311768432820031, -198.6454153579209958 ) ) ;
#966 = VERTEX_POINT ( 'NONE', #805 ) ;
#967 = CARTESIAN_POINT ( 'NONE',  ( -1.653333284830293293, 178.4311768432820031, -197.9285332080143576 ) ) ;
#968 = EDGE_CURVE ( 'NONE', #527, #9, #722, .T. ) ;
#969 = VERTEX_POINT ( 'NONE', #717 ) ;
#970 = ORIENTED_EDGE ( 'NONE', *, *, #835, .F. ) ;
#971 = CARTESIAN_POINT ( 'NONE',  ( 1.682833413780429943, 178.4311768432820031, -196.3921712539064970 ) ) ;
#972 = PRODUCT_DEFINITION_FORMATION_WITH_SPECIFIED_SOURCE ( 'ä»', '', #828, .NOT_KNOWN. ) ;
#973 = EDGE_CURVE ( 'NONE', #394, #785, #460, .T. ) ;
#974 = CARTESIAN_POINT ( 'NONE',  ( -1.862686120837501846, 176.5765266570003860, -195.9818612666577451 ) ) ;
#975 = ORIENTED_EDGE ( 'NONE', *, *, #931, .F. ) ;
#976 = CARTESIAN_POINT ( 'NONE',  ( -1.862648210009970162, 180.2857546249217648, -195.9818418202318355 ) ) ;
#977 = AXIS2_PLACEMENT_3D ( 'NONE', #1029, #85, #608 ) ;
#978 = DIRECTION ( 'NONE',  ( 0.000000000000000000, 0.000000000000000000, -1.000000000000000000 ) ) ;
#979 = EDGE_LOOP ( 'NONE', ( #69, #51, #1096, #1004, #218, #1070, #304, #927, #575, #1066, #400, #1055, #224, #636, #987 ) ) ;
#980 = EDGE_CURVE ( 'NONE', #654, #564, #290, .T. ) ;
#981 = FACE_OUTER_BOUND ( 'NONE', #676, .T. ) ;
#982 = CARTESIAN_POINT ( 'NONE',  ( -1.815963686647379838, 177.9245629151665185, -194.6461375053594907 ) ) ;
#983 = B_SPLINE_CURVE_WITH_KNOTS ( 'NONE', 3,
 ( #544, #1056, #896, #366, #455, #536, #36, #621, #272, #703 ),
 .UNSPECIFIED., .F., .F.,
 ( 4, 2, 2, 2, 4 ),
 ( 0.000000000000000000, 0.0002938570484088994092, 0.0005877140968177988183, 0.0008815711452266982275, 0.001175428193635597637 ),
 .UNSPECIFIED. ) ;
#984 = VERTEX_POINT ( 'NONE', #210 ) ;
#985 = EDGE_CURVE ( 'NONE', #199, #846, #1057, .T. ) ;
#986 = CARTESIAN_POINT ( 'NONE',  ( -1.966273090601052376, 177.5375768547971802, -198.2697223915300810 ) ) ;
#987 = ORIENTED_EDGE ( 'NONE', *, *, #584, .T. ) ;
#988 = DIRECTION ( 'NONE',  ( -1.512385505241961566E-16, 0.000000000000000000, -1.000000000000000000 ) ) ;
#989 = CARTESIAN_POINT ( 'NONE',  ( 0.9333885581179609536, 180.3825434782864932, -195.2655492018990060 ) ) ;
#990 = AXIS2_PLACEMENT_3D ( 'NONE', #444, #274, #531 ) ;
#991 = VECTOR ( 'NONE', #913, 1000.000000000000000 ) ;
#992 = ORIENTED_EDGE ( 'NONE', *, *, #980, .T. ) ;
#993 = ORIENTED_EDGE ( 'NONE', *, *, #480, .T. ) ;
#994 = DIRECTION ( 'NONE',  ( 0.000000000000000000, 0.000000000000000000, -1.000000000000000000 ) ) ;
#995 = CARTESIAN_POINT ( 'NONE',  ( 0.9333885581179609536, 177.6067875020534927, -194.9642870296800083 ) ) ;
#996 = ADVANCED_FACE ( 'NONE', ( #396 ), #907, .F. ) ;
#997 = VERTEX_POINT ( 'NONE', #662 ) ;
#998 = ORIENTED_EDGE ( 'NONE', *, *, #808, .T. ) ;
#999 = CYLINDRICAL_SURFACE ( 'NONE', #29, 2.248334566987419958 ) ;
#1000 = AXIS2_PLACEMENT_3D ( 'NONE', #300, #473, #1086 ) ;
#1001 = DIRECTION ( 'NONE',  ( 0.000000000000000000, 0.000000000000000000, -1.000000000000000000 ) ) ;
#1002 = AXIS2_PLACEMENT_3D ( 'NONE', #54, #139, #988 ) ;
#1003 = EDGE_CURVE ( 'NONE', #736, #394, #658, .T. ) ;
#1004 = ORIENTED_EDGE ( 'NONE', *, *, #985, .T. ) ;
#1005 = ORIENTED_EDGE ( 'NONE', *, *, #569, .F. ) ;
#1006 = DIRECTION ( 'NONE',  ( 0.000000000000000000, 0.000000000000000000, -1.000000000000000000 ) ) ;
#1007 = DIRECTION ( 'NONE',  ( -1.000000000000000000, 0.000000000000000000, -5.551115123125779621E-17 ) ) ;
#1008 = ORIENTED_EDGE ( 'NONE', *, *, #370, .F. ) ;
#1009 = VECTOR ( 'NONE', #129, 999.9999999999998863 ) ;
#1010 = ORIENTED_EDGE ( 'NONE', *, *, #63, .T. ) ;
#1011 = EDGE_CURVE ( 'NONE', #565, #527, #783, .T. ) ;
#1012 = DATE_AND_TIME ( #667, #482 ) ;
#1013 = CARTESIAN_POINT ( 'NONE',  ( 0.9333885581179609536, 178.4311768432820031, -194.1389271498915150 ) ) ;
#1014 = ORIENTED_EDGE ( 'NONE', *, *, #397, .T. ) ;
#1015 = ORIENTED_EDGE ( 'NONE', *, *, #1011, .F. ) ;
#1016 = CARTESIAN_POINT ( 'NONE',  ( 0.000000000000000000, 0.000000000000000000, 0.000000000000000000 ) ) ;
#1017 = ADVANCED_FACE ( 'NONE', ( #572 ), #1094, .T. ) ;
#1018 = CARTESIAN_POINT ( 'NONE',  ( -1.731051433624384295, 177.2027530812443672, -197.5276351540931046 ) ) ;
#1019 = CARTESIAN_POINT ( 'NONE',  ( 0.9333885581179609536, 178.4311768432820031, -194.1389271498915150 ) ) ;
#1020 = ORIENTED_EDGE ( 'NONE', *, *, #452, .T. ) ;
#1021 = AXIS2_PLACEMENT_3D ( 'NONE', #61, #401, #578 ) ;
#1022 = ADVANCED_BREP_SHAPE_REPRESENTATION ( '\X2\9489\X0\', ( #313, #612 ), #409 ) ;
#1023 = VERTEX_POINT ( 'NONE', #312 ) ;
#1024 = PERSON_AND_ORGANIZATION ( #156, #515 ) ;
#1025 = DIRECTION ( 'NONE',  ( -1.000000000000000000, 0.000000000000000000, -5.551115123125779621E-17 ) ) ;
#1026 = EDGE_CURVE ( 'NONE', #751, #811, #862, .T. ) ;
#1027 = VERTEX_POINT ( 'NONE', #744 ) ;
#1028 = AXIS2_PLACEMENT_3D ( 'NONE', #333, #699, #677 ) ;
#1029 = CARTESIAN_POINT ( 'NONE',  ( 0.9333885581179609536, 177.6067875020534927, -197.8200554781325025 ) ) ;
#1030 = PERSON_AND_ORGANIZATION ( #156, #515 ) ;
#1031 = DIRECTION ( 'NONE',  ( -1.000000000000000000, -2.311115933264678576E-33, -2.775557561562895049E-17 ) ) ;
#1032 = CARTESIAN_POINT ( 'NONE',  ( 0.9333885581179609536, 179.6899794613310064, -197.7039286598389936 ) ) ;
#1033 = B_SPLINE_CURVE_WITH_KNOTS ( 'NONE', 3,
 ( #640, #555, #18, #502, #844, #260 ),
 .UNSPECIFIED., .F., .F.,
 ( 4, 2, 4 ),
 ( 0.000000000000000000, 0.0002943975614067210317, 0.0005887951228134420635 ),
 .UNSPECIFIED. ) ;
#1034 = PRODUCT_RELATED_PRODUCT_CATEGORY ( 'detail', '', ( #828 ) ) ;
#1035 = DIRECTION ( 'NONE',  ( -1.000000000000000000, 0.000000000000000000, -5.551115123125779621E-17 ) ) ;
#1036 = APPLICATION_PROTOCOL_DEFINITION ( 'international standard', 'config_control_design', 1994, #288 ) ;
#1037 = LINE ( 'NONE', #959, #829 ) ;
#1038 = FACE_OUTER_BOUND ( 'NONE', #242, .T. ) ;
#1039 = VERTEX_POINT ( 'NONE', #1077 ) ;
#1040 = CARTESIAN_POINT ( 'NONE',  ( -1.921661881423254892, 177.7297734790200536, -198.2697223915299674 ) ) ;
#1041 = DIRECTION ( 'NONE',  ( -0.7071067811865435759, 5.887846720064192929E-17, -0.7071067811865514585 ) ) ;
#1042 = CARTESIAN_POINT ( 'NONE',  ( 0.9333885581179609536, 179.6899794613310064, -197.7039286598389936 ) ) ;
#1043 = VERTEX_POINT ( 'NONE', #306 ) ;
#1044 = DIRECTION ( 'NONE',  ( -1.000000000000000000, 0.000000000000000000, -5.551115123125779621E-17 ) ) ;
#1045 = FACE_OUTER_BOUND ( 'NONE', #538, .T. ) ;
#1046 = CIRCLE ( 'NONE', #266, 2.248334566987419958 ) ;
#1047 = CARTESIAN_POINT ( 'NONE',  ( 1.682833413780429943, 178.4311768432820031, -196.3921712539064970 ) ) ;
#1048 = EDGE_CURVE ( 'NONE', #59, #743, #954, .T. ) ;
#1049 = FACE_OUTER_BOUND ( 'NONE', #509, .T. ) ;
#1050 = AXIS2_PLACEMENT_3D ( 'NONE', #62, #402, #674 ) ;
#1051 = FACE_OUTER_BOUND ( 'NONE', #474, .T. ) ;
#1052 = CARTESIAN_POINT ( 'NONE',  ( -1.979276788747425408, 179.5234165582326682, -198.1882673424167649 ) ) ;
#1053 = CC_DESIGN_DATE_AND_TIME_ASSIGNMENT ( #86, #516, ( #903 ) ) ;
#1054 = CARTESIAN_POINT ( 'NONE',  ( 18.97602520865155284, 178.4311768432820031, -196.3921712539064970 ) ) ;
#1055 = ORIENTED_EDGE ( 'NONE', *, *, #695, .T. ) ;
#1056 = CARTESIAN_POINT ( 'NONE',  ( -1.771238467806056871, 180.1111741652248952, -196.8493894767360644 ) ) ;
#1057 = CIRCLE ( 'NONE', #822, 0.4496669133974839916 ) ;
#1058 = ADVANCED_FACE ( 'NONE', ( #1072 ), #656, .T. ) ;
#1059 = ORIENTED_EDGE ( 'NONE', *, *, #87, .F. ) ;
#1060 = EDGE_LOOP ( 'NONE', ( #318, #45, #114, #64 ) ) ;
#1061 = DIRECTION ( 'NONE',  ( -1.000000000000000000, 0.000000000000000000, -5.551115123125779621E-17 ) ) ;
#1062 = CIRCLE ( 'NONE', #753, 2.248334566987419958 ) ;
#1063 = AXIS2_PLACEMENT_3D ( 'NONE', #273, #80, #602 ) ;
#1064 = AXIS2_PLACEMENT_3D ( 'NONE', #354, #168, #698 ) ;
#1065 = ADVANCED_FACE ( 'NONE', ( #643 ), #999, .T. ) ;
#1066 = ORIENTED_EDGE ( 'NONE', *, *, #451, .T. ) ;
#1067 = DIRECTION ( 'NONE',  ( 1.000000000000000000, 3.437845786126744815E-18, -0.000000000000000000 ) ) ;
#1068 = CARTESIAN_POINT ( 'NONE',  ( -1.903201928533859277, 177.7722840248545992, -194.5345674111575249 ) ) ;
#1069 = CARTESIAN_POINT ( 'NONE',  ( 1.233166500382933739, 178.4311768432820031, -196.3921712539064970 ) ) ;
#1070 = ORIENTED_EDGE ( 'NONE', *, *, #1, .T. ) ;
#1071 = CARTESIAN_POINT ( 'NONE',  ( -1.977953450403595603, 176.3325085480053929, -196.2905982166951446 ) ) ;
#1072 = FACE_OUTER_BOUND ( 'NONE', #508, .T. ) ;
#1073 = LINE ( 'NONE', #49, #634 ) ;
#1074 = EDGE_LOOP ( 'NONE', ( #462, #405, #841, #1104 ) ) ;
#1075 = ORIENTED_EDGE ( 'NONE', *, *, #866, .F. ) ;
#1076 = CARTESIAN_POINT ( 'NONE',  ( -1.961018834279612211, 176.3703458057388218, -196.5972251931428048 ) ) ;
#1077 = CARTESIAN_POINT ( 'NONE',  ( -1.815963686647379838, 179.6899794613310064, -197.7039286598389936 ) ) ;
#1078 = DIRECTION ( 'NONE',  ( -1.000000000000000000, 0.000000000000000000, -5.551115123125779621E-17 ) ) ;
#1079 = EDGE_CURVE ( 'NONE', #966, #16, #50, .T. ) ;
#1080 = DIRECTION ( 'NONE',  ( -1.000000000000000000, 0.000000000000000000, -5.551115123125779621E-17 ) ) ;
#1081 = VECTOR ( 'NONE', #1041, 1000.000000000000114 ) ;
#1082 = CYLINDRICAL_SURFACE ( 'NONE', #450, 0.7168821499066446723 ) ;
#1083 = AXIS2_PLACEMENT_3D ( 'NONE', #989, #321, #745 ) ;
#1084 = ORIENTED_EDGE ( 'NONE', *, *, #63, .F. ) ;
#1085 = VERTEX_POINT ( 'NONE', #566 ) ;
#1086 = DIRECTION ( 'NONE',  ( -1.512385505241961566E-16, 0.000000000000000000, -1.000000000000000000 ) ) ;
#1087 = CARTESIAN_POINT ( 'NONE',  ( 0.9333885581179609536, 178.4311768432820031, -198.6454153579209958 ) ) ;
#1088 = EDGE_CURVE ( 'NONE', #833, #1023, #387, .T. ) ;
#1089 = VERTEX_POINT ( 'NONE', #133 ) ;
#1090 = ORIENTED_EDGE ( 'NONE', *, *, #101, .T. ) ;
#1091 = DIRECTION ( 'NONE',  ( 0.000000000000000000, 0.000000000000000000, -1.000000000000000000 ) ) ;
#1092 = LOCAL_TIME ( 16, 36, 33.00000000000000000, #422 ) ;
#1093 = CARTESIAN_POINT ( 'NONE',  ( -2.064390864531945091, 178.4311768432820031, -193.7946138889916199 ) ) ;
#1094 = CONICAL_SURFACE ( 'NONE', #1021, 2.266442117648981291, 0.7853981633974539411 ) ;
#1095 = EDGE_CURVE ( 'NONE', #811, #9, #839, .T. ) ;
#1096 = ORIENTED_EDGE ( 'NONE', *, *, #600, .T. ) ;
#1097 = ORIENTED_EDGE ( 'NONE', *, *, #192, .F. ) ;
#1098 = DIRECTION ( 'NONE',  ( -1.000000000000000000, -0.000000000000000000, -0.000000000000000000 ) ) ;
#1099 = CARTESIAN_POINT ( 'NONE',  ( 0.9333885581179609536, 177.1723742252335114, -195.0804138479734888 ) ) ;
#1100 = EDGE_LOOP ( 'NONE', ( #371, #895, #217, #382 ) ) ;
#1101 = CIRCLE ( 'NONE', #248, 3.176003640548041851 ) ;
#1102 = EDGE_CURVE ( 'NONE', #969, #1089, #623, .T. ) ;
#1103 = AXIS2_PLACEMENT_3D ( 'NONE', #254, #1044, #782 ) ;
#1104 = ORIENTED_EDGE ( 'NONE', *, *, #138, .F. ) ;
#1105 = DIRECTION ( 'NONE',  ( 1.000000000000000000, 0.000000000000000000, 0.000000000000000000 ) ) ;
#1106 = CARTESIAN_POINT ( 'NONE',  ( -1.815963686647379838, 176.6657602971179983, -196.8264475965205236 ) ) ;
#1107 = ORIENTED_EDGE ( 'NONE', *, *, #1003, .F. ) ;
#1108 = LINE ( 'NONE', #243, #685 ) ;
#1109 = PERSON_AND_ORGANIZATION ( #156, #515 ) ;
#1110 = CARTESIAN_POINT ( 'NONE',  ( 1.682833413780429721, 178.4311768432820031, -198.6586133715554752 ) ) ;
#1111 = CARTESIAN_POINT ( 'NONE',  ( -1.947013179881028844, 179.6603047445023833, -198.0279311632724557 ) ) ;
#1112 = CC_DESIGN_APPROVAL ( #801, ( #972 ) ) ;
#1113 = CARTESIAN_POINT ( 'NONE',  ( -2.064390864531945091, 178.4311768432820031, -194.1438366869190588 ) ) ;
#1114 = CARTESIAN_POINT ( 'NONE',  ( -1.880665214986922740, 177.1393308772855164, -197.8275389444410735 ) ) ;
#1115 = CARTESIAN_POINT ( 'NONE',  ( -1.653333284830293293, 178.4311768432820031, -197.9285332080143576 ) ) ;
#1116 = DIRECTION ( 'NONE',  ( 1.000000000000000000, -0.000000000000000000, 5.551115123125779621E-17 ) ) ;
ENDSEC;
END-ISO-10303-21;
